<?xml version="1.0" encoding="UTF-8" standalone="no"?>
<!-- Created with Inkscape (http://www.inkscape.org/) -->

<svg
   sodipodi:docname="Isologo con brand.svg"
   xml:space="preserve"
   id="svg5"
   version="1.1"
   viewBox="0 0 84.553856 20.782341"
   height="20.782341mm"
   width="84.553856mm"
   inkscape:version="1.2.2 (732a01da63, 2022-12-09)"
   xmlns:inkscape="http://www.inkscape.org/namespaces/inkscape"
   xmlns:sodipodi="http://sodipodi.sourceforge.net/DTD/sodipodi-0.dtd"
   xmlns="http://www.w3.org/2000/svg"
   xmlns:svg="http://www.w3.org/2000/svg"><sodipodi:namedview
     id="namedview7"
     pagecolor="#ffffff"
     bordercolor="#000000"
     borderopacity="0.25"
     inkscape:showpageshadow="2"
     inkscape:pageopacity="0.0"
     inkscape:pagecheckerboard="0"
     inkscape:deskcolor="#d1d1d1"
     inkscape:document-units="mm"
     showgrid="false"
     inkscape:zoom="1.4142136"
     inkscape:cx="1451.6902"
     inkscape:cy="624.37529"
     inkscape:window-width="1366"
     inkscape:window-height="697"
     inkscape:window-x="-8"
     inkscape:window-y="-8"
     inkscape:window-maximized="1"
     inkscape:current-layer="layer1"><inkscape:grid
       type="xygrid"
       id="grid65304"
       units="cm"
       dotted="false"
       originx="-370.48372"
       originy="-146.83068"
       spacingy="1"
       spacingx="1"
       visible="false" /><inkscape:page
       x="-2.2495292e-06"
       y="-4.1547696e-06"
       width="84.553848"
       height="20.782339"
       id="page1"
       margin="0"
       bleed="0" /></sodipodi:namedview><defs
     id="defs2" /><g
     transform="matrix(0.26458333,0,0,0.26458333,-101.65133,-63.650311)"
     id="g27"
     inkscape:label="Isologo"
     inkscape:export-filename="Logo.svg"
     inkscape:export-xdpi="54.072048"
     inkscape:export-ydpi="54.072048"
     class="UnoptimicedTransforms"
     style="display:inline;fill:#ffffff"><g
       inkscape:groupmode="layer"
       id="layer5"
       inkscape:label="IsotipoTono2"
       transform="matrix(3.73571,0,0,3.73571,125.86456,-245.38216)"
       inkscape:highlight-color="#921e1e"
       style="fill:#ffffff"><path
         d="m 588,289 c 5.529,-11.424 22.788,-24.059 43,-21.717 -20.411,1.118 -33.051,13.334 -37.456,21.717 z"
         fill="#ffffff"
         fill-rule="evenodd"
         id="path13"
         style="fill:#ffffff"
         transform="matrix(0.26458333,0,0,0.26458333,-31.901609,66.582433)"
         inkscape:label="OblicuaInferior" /><rect
         x="609"
         y="255"
         width="5"
         height="11"
         fill="#ffffff"
         id="rect19"
         style="fill:#ffffff"
         transform="matrix(0.26458333,0,0,0.26458333,-31.901609,66.582433)"
         inkscape:label="Barras3" /><rect
         x="602"
         y="258"
         width="5"
         height="10"
         fill="#ffffff"
         id="rect17"
         style="fill:#ffffff"
         transform="matrix(0.26458333,0,0,0.26458333,-31.901609,66.582433)"
         inkscape:label="Barras2" /><rect
         x="595"
         y="261"
         width="5"
         height="10"
         fill="#ffffff"
         id="rect15"
         style="fill:#ffffff"
         transform="matrix(0.26458333,0,0,0.26458333,-31.901609,66.582433)"
         inkscape:label="Barras1" /><path
         d="m 631,267 -3.44,1.108 -0.093,0.529 c -0.155,0.665 -0.348,1.319 -0.575,1.958 l -0.361,0.864 3.336,3.504 -0.675,1.225 c -0.431,0.694 -0.899,1.368 -1.401,2.019 l -0.211,0.246 -5.138,-0.776 -1.34,1.29 -1.474,1.172 0.887,4.496 -0.282,0.184 c -0.744,0.44 -1.514,0.849 -2.307,1.226 l -1.4,0.591 -4.005,-2.919 -0.987,0.316 c -0.731,0.199 -1.478,0.367 -2.238,0.503 l -0.605,0.081 -1.801,4.281 -2.3,0.102 -2.3,-0.102 -1.801,-4.281 -0.605,-0.081 c -0.76,-0.136 -1.507,-0.304 -2.238,-0.503 l -0.646,-0.207 1.287,-1.517 0.227,-0.239 0.824,0.352 c 1.588,0.572 3.357,0.901 5.308,0.949 8.454,0.21 13.503,-5.534 15.099,-13.32 l 0.188,-1.121 0.739,-0.231 c 2.228,-0.611 4.581,-1.088 7.058,-1.402 z"
         fill="#ffffff"
         fill-rule="evenodd"
         id="path23"
         style="fill:#ffffff"
         transform="matrix(0.26458333,0,0,0.26458333,-31.901609,66.582433)"
         inkscape:label="RuedaInferior" /></g><g
       inkscape:groupmode="layer"
       id="layer6"
       inkscape:label="IsotipoTono1"
       style="fill:#ffffff;fill-opacity:1"
       transform="matrix(3.73571,0,0,3.73571,125.86456,-245.38216)"
       inkscape:highlight-color="#666666"><path
         d="m 577,289 c 7.668,-16.246 26.967,-27.754 55,-24.424 -28.309,1.59 -41.202,12.502 -47.31,24.424 z"
         fill="#921e1e"
         fill-rule="evenodd"
         id="path25"
         transform="matrix(0.26458333,0,0,0.26458333,-31.901609,66.582433)"
         inkscape:label="OblicuaSuperior"
         style="fill:#ffffff;fill-opacity:1" /><path
         d="m 605.002,240 2.303,0.103 1.802,4.347 0.606,0.082 c 0.76,0.138 1.508,0.309 2.239,0.511 l 0.988,0.321 4.008,-2.964 1.402,0.6 c 0.794,0.382 1.564,0.798 2.309,1.245 l 0.282,0.187 -0.888,4.564 1.475,1.19 1.341,1.309 5.143,-0.788 0.211,0.251 c 0.503,0.661 0.971,1.345 1.402,2.049 l 0.676,1.244 -3.339,3.558 0.361,0.876 c 0.228,0.65 0.42,1.313 0.576,1.988 l 0.092,0.538 4.898,1.599 0.111,1.958 -5.13,-0.454 c -1.712,-0.097 -3.388,-0.137 -5.028,-0.123 l -2.13,0.09 -0.042,-1.536 c -0.538,-9.694 -5.169,-17.066 -15.611,-17.311 -11.138,-0.262 -15.666,8.632 -15.666,19.28 0,2.661 0.329,5.181 0.984,7.467 l 0.476,1.439 -0.07,0.046 c -2.032,1.443 -3.896,3.022 -5.588,4.718 l -0.133,0.146 -3.069,0.47 -0.211,-0.25 c -0.503,-0.661 -0.971,-1.345 -1.402,-2.05 l -0.676,-1.244 3.339,-3.558 -0.361,-0.876 c -0.228,-0.649 -0.42,-1.313 -0.576,-1.988 l -0.092,-0.537 -4.898,-1.6 -0.116,-2.043 0.116,-2.044 4.898,-1.599 0.092,-0.538 c 0.156,-0.675 0.348,-1.338 0.576,-1.988 l 0.361,-0.876 -3.339,-3.558 0.676,-1.244 c 0.431,-0.704 0.899,-1.388 1.402,-2.049 l 0.211,-0.251 5.143,0.788 1.341,-1.309 1.475,-1.19 -0.888,-4.564 0.282,-0.187 c 0.745,-0.447 1.515,-0.863 2.309,-1.245 l 1.402,-0.6 4.008,2.964 0.988,-0.321 c 0.731,-0.202 1.479,-0.373 2.239,-0.511 l 0.606,-0.082 1.802,-4.347 z"
         fill="#921e1e"
         fill-rule="evenodd"
         id="path21"
         transform="matrix(0.26458333,0,0,0.26458333,-31.901609,66.582433)"
         inkscape:label="RuedaSuperior"
         style="fill:#ffffff;fill-opacity:1" /></g><g
       inkscape:groupmode="layer"
       id="layer4"
       inkscape:label="IsologoTexto"
       transform="matrix(3.7795276,0,0,3.7795276,120.57302,-251.65014)"
       style="fill:#ffffff"><text
         fill="#ffffff"
         font-family="'Times Sans Serif', 'Times Sans Serif_MSFontService', sans-serif"
         font-weight="700"
         font-size="16.9333px"
         id="text11"
         style="fill:#ffffff;stroke-width:0.264583"
         inkscape:label="IM"
         x="135.55125"
         y="143.04701">IM</text><text
         fill="#ffffff"
         font-family="'Times Sans Serif', 'Times Sans Serif_MSFontService', sans-serif"
         font-weight="700"
         font-size="64px"
         transform="matrix(0.26458333,0,0,0.26458333,68.691384,143.04701)"
         id="text9"
         style="fill:#ffffff"
         inkscape:label="SERPR">SERPR</text></g></g><g
     inkscape:groupmode="layer"
     id="layer2"
     inkscape:label="NombreEmpresa"
     style="display:inline"
     transform="translate(-370.48375,-146.83068)"><text
       fill="#c00000"
       font-family="Dense, Dense_MSFontService, sans-serif"
       font-weight="400"
       font-size="7.02982px"
       transform="scale(1.1070583,0.9032948)"
       id="text149"
       style="fill:#ffffff;fill-opacity:1;stroke-width:0.292909"
       inkscape:label="Texto"
       x="334.98273"
       y="184.41853">Servicios y Proyectos de Ingeniería Mecánica</text></g><g
     inkscape:groupmode="layer"
     id="layer3"
     inkscape:label="Cuadricula"
     style="display:none"
     sodipodi:insensitive="true"
     transform="translate(-370.48375,-146.83068)"><path
       style="fill:#ca1825;fill-opacity:1;stroke:#888888;stroke-width:0.08;stroke-dasharray:0.319997, 0.319997;stroke-dashoffset:0;stroke-opacity:1"
       d="m 368.28038,148.16519 h 91.24498"
       id="path65910"
       class="UnoptimicedTransforms"
       inkscape:export-filename="path65910.png"
       inkscape:export-xdpi="400"
       inkscape:export-ydpi="400" /><path
       style="fill:#ca1825;fill-opacity:1;stroke:#888888;stroke-width:0.08;stroke-dasharray:0.319997, 0.319997;stroke-dashoffset:0;stroke-opacity:1"
       d="m 368.28037,146.84 h 91.24498"
       id="path65996" /><path
       style="fill:#ca1825;fill-opacity:1;stroke:#888888;stroke-width:0.08;stroke-dasharray:0.319997, 0.319997;stroke-dashoffset:0;stroke-opacity:1"
       d="m 368.28038,159.9 h 91.24498"
       id="path65998" /><path
       style="fill:#ca1825;fill-opacity:1;stroke:#888888;stroke-width:0.08;stroke-dasharray:0.319997, 0.319997;stroke-dashoffset:0;stroke-opacity:1"
       d="m 368.28038,166.64 h 91.24498"
       id="path66000" /><path
       style="fill:#ca1825;fill-opacity:1;stroke:#888888;stroke-width:0.08;stroke-dasharray:0.319997, 0.319997;stroke-dashoffset:0;stroke-opacity:1"
       d="m 368.28038,162.25291 h 91.24498"
       id="path66002" /><path
       style="fill:#ca1825;fill-opacity:1;stroke:#888888;stroke-width:0.08;stroke-dasharray:0.319997, 0.319997;stroke-dashoffset:0;stroke-opacity:1"
       d="m 368.28038,148.16519 h 91.24498"
       id="path70268"
       class="UnoptimicedTransforms"
       transform="translate(0,0.26481)" /><path
       style="fill:#ca1825;fill-opacity:1;stroke:#888888;stroke-width:0.08;stroke-dasharray:0.319997, 0.319997;stroke-dashoffset:0;stroke-opacity:1"
       d="m 368.28038,159.65 h 91.24498"
       id="path70270" /><path
       style="fill:#ca1825;fill-opacity:1;stroke:#888888;stroke-width:0.08;stroke-dasharray:0.319997, 0.319997;stroke-dashoffset:0;stroke-opacity:1"
       d="m 368.28038,163.511 h 91.24498"
       id="path70272" /><path
       style="fill:#ca1825;fill-opacity:1;stroke:#888888;stroke-width:0.08;stroke-dasharray:0.319997, 0.319997;stroke-dashoffset:0;stroke-opacity:1"
       d="m 368.28038,167.54 h 91.24498"
       id="path70274" /></g><g
     inkscape:groupmode="layer"
     id="layer7"
     inkscape:label="AreaProteccion"
     style="display:none"
     sodipodi:insensitive="true"
     transform="translate(-370.48375,-146.83068)"><rect
       style="fill:none;fill-opacity:1;stroke:#666666;stroke-width:0.0778997;stroke-dasharray:none;stroke-dashoffset:0;stroke-opacity:1"
       id="rect124921"
       width="84.648827"
       height="20.716547"
       x="370.43558"
       y="146.83443" /><rect
       style="fill:none;fill-opacity:1;stroke:#666666;stroke-width:0.0900463;stroke-dasharray:none;stroke-dashoffset:0;stroke-opacity:1"
       id="rect126281"
       width="89.994492"
       height="26.036427"
       x="367.72964"
       y="144.17448" /><path
       style="fill:none;fill-opacity:1;stroke:#666666;stroke-width:0.0799999;stroke-dasharray:none;stroke-dashoffset:0;stroke-opacity:1"
       d="m 455.08148,170.2273 -0.0116,-2.71279 2.6543,-0.0117"
       id="path126343" /></g></svg>
