<?xml version="1.0" encoding="UTF-8" standalone="no"?>
<!-- Created with Inkscape (http://www.inkscape.org/) -->

<svg
   width="41.940208mm"
   height="10.308368mm"
   viewBox="0 0 41.940208 10.308368"
   version="1.1"
   id="svg1"
   inkscape:version="1.3.2 (091e20e, 2023-11-25, custom)"
   sodipodi:docname="ABELARDO_LUIS.svg"
   xml:space="preserve"
   inkscape:export-filename="..\..\..\..\Escritorio\Prueba.svg"
   inkscape:export-xdpi="300"
   inkscape:export-ydpi="300"
   xmlns:inkscape="http://www.inkscape.org/namespaces/inkscape"
   xmlns:sodipodi="http://sodipodi.sourceforge.net/DTD/sodipodi-0.dtd"
   xmlns="http://www.w3.org/2000/svg"
   xmlns:svg="http://www.w3.org/2000/svg"><sodipodi:namedview
     id="namedview1"
     pagecolor="#ffffff"
     bordercolor="#000000"
     borderopacity="0.25"
     inkscape:showpageshadow="2"
     inkscape:pageopacity="0.0"
     inkscape:pagecheckerboard="0"
     inkscape:deskcolor="#d1d1d1"
     inkscape:document-units="mm"
     inkscape:zoom="7.9999999"
     inkscape:cx="56.437501"
     inkscape:cy="324.5625"
     inkscape:window-width="1920"
     inkscape:window-height="991"
     inkscape:window-x="-9"
     inkscape:window-y="-9"
     inkscape:window-maximized="1"
     inkscape:current-layer="text2593"
     showgrid="false"
     showguides="false" /><defs
     id="defs1" /><g
     inkscape:label="logo"
     inkscape:groupmode="layer"
     id="layer1"
     style="display:inline"
     transform="matrix(1.2293076,0,0,1.2293076,-67.260869,-20.303675)"><g
       transform="matrix(0.08190298,0,0,0.08190298,27.219255,-2.2107603)"
       id="g27"
       inkscape:label="Isologo"
       inkscape:export-filename="g41.png"
       inkscape:export-xdpi="54.072048"
       inkscape:export-ydpi="54.072048"
       class="UnoptimicedTransforms"
       style="display:inline;fill:#ffffff"><g
         inkscape:groupmode="layer"
         id="layer5"
         inkscape:label="IsotipoTono2"
         transform="matrix(3.73571,0,0,3.73571,125.86456,-245.38216)"
         inkscape:highlight-color="#921e1e"
         style="fill:#ffffff"><path
           d="m 127.23887,143.79098 c 1.90682,-3.93985 7.85902,-8.29735 14.82963,-7.48965 -7.03924,0.38557 -11.39847,4.59856 -12.91764,7.48965 z"
           fill="#ffffff"
           fill-rule="evenodd"
           id="path13"
           style="fill:#ffffff;stroke-width:0.344875"
           inkscape:label="OblicuaInferior" /><rect
           x="134.48125"
           y="132.06522"
           width="1.724376"
           height="3.7936273"
           fill="#ffffff"
           id="rect19"
           style="fill:#ffffff;stroke-width:0.344875"
           inkscape:label="Barras3" /><rect
           x="132.06712"
           y="133.09985"
           width="1.724376"
           height="3.4487519"
           fill="#ffffff"
           id="rect17"
           style="fill:#ffffff;stroke-width:0.344875"
           inkscape:label="Barras2" /><rect
           x="129.653"
           y="134.13448"
           width="1.724376"
           height="3.4487519"
           fill="#ffffff"
           id="rect15"
           style="fill:#ffffff;stroke-width:0.344875"
           inkscape:label="Barras1" /><path
           d="m 142.0685,136.20373 -1.18637,0.38212 -0.0321,0.18244 c -0.0535,0.22934 -0.12002,0.45489 -0.1983,0.67526 l -0.1245,0.29797 1.1505,1.20845 -0.23279,0.42247 c -0.14864,0.23934 -0.31004,0.47179 -0.48317,0.6963 l -0.0728,0.0848 -1.77197,-0.26762 -0.46213,0.44489 -0.50835,0.40419 0.30591,1.55056 -0.0973,0.0635 c -0.25658,0.15174 -0.52214,0.2928 -0.79562,0.42281 l -0.48283,0.20383 -1.38122,-1.0067 -0.3404,0.10899 c -0.2521,0.0686 -0.50972,0.12656 -0.77183,0.17347 l -0.20865,0.0279 -0.62112,1.47641 -0.79321,0.0352 -0.79321,-0.0352 -0.62112,-1.47641 -0.20865,-0.0279 c -0.26211,-0.0469 -0.51973,-0.10484 -0.77183,-0.17347 l -0.22279,-0.0714 0.44385,-0.52318 0.0783,-0.0824 0.28418,0.12139 c 0.54766,0.19727 1.15774,0.31073 1.83059,0.32729 2.91558,0.0724 4.65685,-1.90854 5.20727,-4.59374 l 0.0648,-0.3866 0.25486,-0.0797 c 0.76838,-0.21072 1.57988,-0.37523 2.43413,-0.48352 z"
           fill="#ffffff"
           fill-rule="evenodd"
           id="path23"
           style="fill:#ffffff;stroke-width:0.344875"
           inkscape:label="RuedaInferior" /></g><g
         inkscape:groupmode="layer"
         id="layer6"
         inkscape:label="IsotipoTono1"
         style="fill:#ffffff;fill-opacity:1"
         transform="matrix(3.73571,0,0,3.73571,125.86456,-245.38216)"
         inkscape:highlight-color="#666666"><path
           d="m 123.44524,143.79098 c 2.64451,-5.60284 9.30025,-9.57167 18.96814,-8.42323 -9.76307,0.54835 -14.20955,4.31163 -16.31605,8.42323 z"
           fill="#921e1e"
           fill-rule="evenodd"
           id="path25"
           inkscape:label="OblicuaSuperior"
           style="fill:#ffffff;fill-opacity:1;stroke-width:0.344875" /><path
           d="m 133.10244,126.8921 0.79425,0.0355 0.62146,1.49917 0.209,0.0283 c 0.2621,0.0476 0.52007,0.10657 0.77217,0.17623 l 0.34074,0.11071 1.38226,-1.02221 0.48351,0.20692 c 0.27383,0.13174 0.53939,0.27521 0.79632,0.42937 l 0.0973,0.0645 -0.30624,1.57401 0.50869,0.4104 0.46247,0.45145 1.7737,-0.27177 0.0728,0.0866 c 0.17347,0.22796 0.33487,0.46386 0.48351,0.70665 l 0.23314,0.42902 -1.15154,1.22707 0.1245,0.30211 c 0.0786,0.22417 0.14485,0.45282 0.19865,0.68561 l 0.0317,0.18554 1.6892,0.55146 0.0383,0.67526 -1.76921,-0.15657 c -0.59042,-0.0334 -1.16843,-0.0472 -1.73403,-0.0424 l -0.73458,0.031 -0.0145,-0.52973 c -0.18554,-3.34322 -1.78266,-5.88564 -5.38384,-5.97013 -3.84122,-0.0904 -5.40282,2.97696 -5.40282,6.64919 0,0.91771 0.11347,1.7868 0.33936,2.57518 l 0.16416,0.49628 -0.0241,0.0159 c -0.70079,0.49766 -1.34364,1.04222 -1.92716,1.62713 l -0.0459,0.0503 -1.05842,0.16209 -0.0728,-0.0862 c -0.17348,-0.22796 -0.33488,-0.46386 -0.48352,-0.70699 l -0.23313,-0.42903 1.15153,-1.22707 -0.1245,-0.30211 c -0.0786,-0.22382 -0.14484,-0.45282 -0.19864,-0.68561 l -0.0317,-0.1852 -1.6892,-0.5518 -0.04,-0.70458 0.04,-0.70492 1.6892,-0.55146 0.0317,-0.18554 c 0.0538,-0.23279 0.12001,-0.46144 0.19864,-0.68561 l 0.1245,-0.30211 -1.15153,-1.22707 0.23313,-0.42902 c 0.14864,-0.24279 0.31004,-0.47869 0.48352,-0.70665 l 0.0728,-0.0866 1.77369,0.27177 0.46248,-0.45145 0.50869,-0.4104 -0.30625,-1.57401 0.0973,-0.0645 c 0.25693,-0.15416 0.52249,-0.29763 0.79632,-0.42937 l 0.48351,-0.20692 1.38226,1.02221 0.34074,-0.11071 c 0.2521,-0.0697 0.51007,-0.12864 0.77218,-0.17623 l 0.20899,-0.0283 0.62147,-1.49917 z"
           fill="#921e1e"
           fill-rule="evenodd"
           id="path21"
           inkscape:label="RuedaSuperior"
           style="fill:#ffffff;fill-opacity:1;stroke-width:0.344875" /></g><g
         inkscape:groupmode="layer"
         id="layer4"
         inkscape:label="IsologoTexto"
         transform="matrix(3.7795276,0,0,3.7795276,120.57302,-251.65014)"
         style="fill:#ffffff"><path
           d="m 147.39985,143.78235 h -2.06924 V 129.1683 h 2.06924 z m 5.07612,-14.60328 2.06925,-0.0104 5.30245,11.43474 5.21622,-11.43474 h 2.06925 v 14.61405 h -2.06925 v -12.29693 l -5.63654,12.29693 h -0.35565 l -5.64733,-12.29693 v 12.29693 h -0.9484 z"
           id="text11"
           style="stroke-width:0.344875"
           inkscape:label="IM"
           aria-label="IM" /><path
           d="m 65.660568,133.2421 h -0.646641 q -0.420317,-2.31713 -1.551939,-2.97455 -1.120844,-0.66819 -2.252466,-0.60353 -0.991516,0.0323 -1.756708,0.63586 -0.819078,0.65742 -0.819078,1.63816 0,0.65742 0.463426,1.21784 0.678973,0.8083 3.179318,2.15547 1.735153,0.92685 2.220134,1.26095 1.239395,0.84063 1.735153,1.8106 0.398762,0.79752 0.398762,1.67048 0,1.82138 -1.411833,2.98533 -1.325614,1.07774 -3.190095,1.07774 -0.625086,0 -1.153177,-0.0754 -0.68975,-0.0754 -1.487274,-0.44187 -0.786746,-0.3772 -1.562716,-1.48727 -0.775969,-1.12085 -0.775969,-3.06077 h 0.646641 q 0.01078,1.46572 0.398762,2.1878 0.506536,0.95919 1.573493,1.51961 0.969962,0.51731 2.133916,0.51731 1.163953,0 1.993809,-0.60353 0.916075,-0.65742 0.916075,-1.78904 0,-1.18551 -1.217841,-2.11236 -0.743637,-0.5712 -2.468013,-1.49805 -1.713598,-0.93763 -2.489568,-1.55194 -1.616602,-1.27173 -1.616602,-3.03921 0,-1.70282 1.304059,-2.80211 1.239396,-1.04541 2.974549,-1.04541 1.983032,0.11855 2.791334,0.77597 0.808301,0.64664 1.153176,1.44417 0.452649,1.05618 0.517313,2.1878 z m 13.870449,10.54025 h -9.193079 l 0.01078,-14.61409 h 9.182302 v 0.79753 h -7.102273 v 5.77665 h 5.927542 v 0.78675 h -5.927542 v 4.81748 q 0,0.75441 0.01078,0.82985 0.06466,0.50654 0.377207,0.67898 0.215547,0.12932 0.819079,0.12932 h 5.89521 z m 12.781937,0 -4.946803,-6.83284 q -0.549645,0.0215 -0.89452,0.0215 -0.290989,0 -0.635864,-0.0215 v 6.83284 h -2.058474 v -14.50632 l 3.222428,-0.10777 q 2.101583,-0.0754 3.437975,0.3341 1.163953,0.36643 1.896813,1.29328 0.743637,0.92685 0.743637,2.13392 0,2.94221 -3.599635,3.73974 l 5.151574,7.11305 z m -6.477187,-7.51181 q 0.097,0 0.301766,0 0.20477,0.0108 0.301766,0.0108 1.756708,0 2.877552,-0.7113 1.336392,-0.84064 1.336392,-2.50035 0,-1.39028 -0.862188,-2.23091 -0.862188,-0.85141 -2.263244,-0.85141 -0.625086,0 -1.692044,0.20477 z m 12.641832,-6.98373 3.265541,-0.11855 q 1.77826,-0.0647 3.0931,0.39876 1.20706,0.4311 1.93992,1.41184 0.74364,0.98074 0.74364,2.23091 0,1.9507 -1.30406,3.02843 -1.21784,1.0023 -3.21165,1.0023 -1.05618,0 -2.45724,-0.30177 v 6.84362 h -2.058474 z m 2.069251,7.03761 q 1.1424,0.21555 1.76749,0.21555 1.23939,0 2.01536,-0.95919 0.73286,-0.89452 0.73286,-2.15547 0,-2.13391 -1.48727,-2.98532 -0.71131,-0.39876 -1.61661,-0.39876 -0.54964,0 -1.41183,0.20477 z m 18.76337,7.45793 -4.94681,-6.83284 q -0.54964,0.0215 -0.89452,0.0215 -0.29099,0 -0.63586,-0.0215 v 6.83284 h -2.05848 v -14.50632 l 3.22243,-0.10777 q 2.10159,-0.0754 3.43798,0.3341 1.16395,0.36643 1.89681,1.29328 0.74364,0.92685 0.74364,2.13392 0,2.94221 -3.59964,3.73974 l 5.15158,7.11305 z m -6.47719,-7.51181 q 0.097,0 0.30176,0 0.20477,0.0108 0.30177,0.0108 1.75671,0 2.87755,-0.7113 1.33639,-0.84064 1.33639,-2.50035 0,-1.39028 -0.86218,-2.23091 -0.86219,-0.85141 -2.26325,-0.85141 -0.62508,0 -1.69204,0.20477 z"
           id="text9"
           inkscape:label="SERPR"
           aria-label="SERPR"
           style="stroke-width:0.344875" /></g></g><g
       inkscape:groupmode="layer"
       id="layer2"
       inkscape:label="NombreEmpresa"
       style="display:inline"
       transform="matrix(0.28469887,0,0,0.28469887,-90.614951,-36.857923)"><path
         d="m 513.43925,213.33943 -1.75373,-1.70092 q -0.0993,-0.09 -0.16545,-0.216 -0.16546,-0.25198 -0.16546,-0.53999 v -0.40497 q 0,-0.48598 0.41913,-0.82797 0.41914,-0.34199 1.01476,-0.34199 0.5956,0 1.01473,0.34199 0.41912,0.34199 0.41912,0.82797 v 0.75596 l -0.57355,0.0541 v -0.80997 q 0,-0.28797 -0.25367,-0.49497 -0.25369,-0.207 -0.60663,-0.207 -0.35297,0 -0.60664,0.207 -0.25369,0.207 -0.25369,0.49497 v 0.40499 q 0,0.17999 0.0993,0.324 l 0.0993,0.12597 1.75373,1.70092 0.16545,0.22499 q 0.17647,0.27 0.17647,0.54898 v 0.58499 q 0,0.48597 -0.41913,0.82797 -0.41912,0.34198 -1.01472,0.34198 -0.59561,0 -1.01476,-0.34198 -0.41912,-0.342 -0.41912,-0.82797 v -0.89096 l 0.57354,-0.0541 v 0.94495 q 0,0.28801 0.25369,0.49498 0.25369,0.20701 0.60665,0.20701 0.35293,0 0.60663,-0.20701 0.25367,-0.20697 0.25367,-0.49498 v -0.58497 q 0,-0.17099 -0.11029,-0.33299 z m 3.37509,0.68398 0.57355,-0.0541 v 0.57598 q 0,0.40498 -0.35296,0.69296 -0.34192,0.27899 -0.83825,0.27899 -0.49636,0 -0.8493,-0.27899 -0.34192,-0.28798 -0.34192,-0.69296 v -2.5379 q 0,-0.40497 0.34192,-0.68398 0.35294,-0.28798 0.8493,-0.28798 0.49633,0 0.83825,0.28798 0.35296,0.27901 0.35296,0.68398 v 1.34994 h -1.80888 v 1.18796 q 0,0.20698 0.17647,0.35997 0.18751,0.14401 0.4412,0.14401 0.25367,0 0.43015,-0.14401 0.18751,-0.15299 0.18751,-0.35997 z m -1.23533,-2.01593 v 0.88197 h 1.23533 v -0.88197 q 0,-0.20699 -0.18751,-0.35098 -0.17648,-0.153 -0.43015,-0.153 -0.25369,0 -0.4412,0.153 -0.17647,0.14399 -0.17647,0.35098 z m 4.29056,-0.97195 v 0.46797 h -0.40809 q -0.28679,0 -0.47428,0.16201 -0.1875,0.15298 -0.1875,0.38698 v 3.41985 h -0.57356 v -4.39182 h 0.39707 l 0.0993,0.34199 q 0.29778,-0.38698 1.14709,-0.38698 z m 2.77949,0.0449 -0.90443,4.39182 h -0.68384 l -0.90446,-4.39182 h 0.57356 l 0.66177,3.44686 h 0.0222 l 0.66178,-3.44686 z m 1.2243,0 v 4.39182 h -0.57355 v -4.39182 z m -0.57355,-0.50398 v -0.62998 h 0.57355 v 0.62998 z m 3.26482,3.44686 h 0.57354 v 0.52198 q 0,0.40498 -0.35296,0.69296 -0.34191,0.279 -0.83825,0.279 -0.49633,0 -0.8493,-0.279 -0.34191,-0.28798 -0.34191,-0.69296 v -2.5379 q 0,-0.40498 0.34191,-0.68397 0.35297,-0.28798 0.8493,-0.28798 0.49634,0 0.83825,0.28798 0.35296,0.27899 0.35296,0.68397 v 0.51298 l -0.57354,0.0541 v -0.56701 q 0,-0.207 -0.18751,-0.35098 -0.17648,-0.153 -0.43016,-0.153 -0.25369,0 -0.44118,0.153 -0.17648,0.14398 -0.17648,0.35098 v 2.53789 q 0,0.20699 0.17648,0.35998 0.18749,0.14401 0.44118,0.14401 0.25368,0 0.43016,-0.14401 0.18751,-0.15299 0.18751,-0.35998 z m 1.95227,-2.94288 v 4.39182 h -0.57355 v -4.39182 z m -0.57355,-0.50398 v -0.62998 h 0.57355 v 0.62998 z m 1.45593,3.96884 v -2.5379 q 0,-0.40498 0.34193,-0.68397 0.35295,-0.28798 0.84929,-0.28798 0.49633,0 0.83827,0.28798 0.35294,0.27899 0.35294,0.68397 v 2.5379 q 0,0.40498 -0.35294,0.69296 -0.34194,0.279 -0.83827,0.279 -0.49634,0 -0.84929,-0.279 -0.34193,-0.28798 -0.34193,-0.69296 z m 0.57355,-2.5379 v 2.5379 q 0,0.20698 0.17648,0.35998 0.18751,0.144 0.44119,0.144 0.25368,0 0.43017,-0.144 0.18749,-0.153 0.18749,-0.35998 v -2.5379 q 0,-0.207 -0.18749,-0.35098 -0.17649,-0.153 -0.43017,-0.153 -0.25368,0 -0.44119,0.153 -0.17648,0.14398 -0.17648,0.35098 z m 4.3347,2.5379 v -0.37798 q 0,-0.135 -0.0993,-0.27899 -0.011,-0.009 -0.0441,-0.0449 -0.0221,-0.036 -0.044,-0.0541 l -1.19121,-0.80996 q -0.12129,-0.081 -0.19854,-0.189 -0.18749,-0.25198 -0.18749,-0.54897 v -0.26999 q 0,-0.38698 0.33088,-0.65697 0.34193,-0.27899 0.81621,-0.27899 0.47427,0 0.80518,0.27899 0.34191,0.26999 0.34191,0.65697 v 0.40498 l -0.57355,0.054 v -0.45897 q 0,-0.198 -0.16545,-0.33298 -0.16544,-0.13501 -0.40809,-0.13501 -0.24266,0 -0.4081,0.13501 -0.16545,0.13498 -0.16545,0.33298 v 0.26999 q 0,0.16199 0.0882,0.28799 l 0.0993,0.09 1.19124,0.80997 q 0.1103,0.09 0.18749,0.18899 0.19854,0.26998 0.19854,0.54898 v 0.37798 q 0,0.40498 -0.35296,0.69297 -0.34192,0.27898 -0.83825,0.27898 -0.49635,0 -0.8493,-0.27898 -0.34192,-0.28799 -0.34192,-0.69297 v -0.43199 l 0.57355,-0.054 v 0.48597 q 0,0.20698 0.17649,0.35997 0.18749,0.14401 0.44118,0.14401 0.25367,0 0.43015,-0.14401 0.18751,-0.15299 0.18751,-0.35997 z m 4.8862,-3.46486 -1.06988,4.8958 q -0.0882,0.27898 -0.23164,0.47697 -0.34191,0.47699 -0.95957,0.47699 v -0.46799 q 0.34191,0 0.49633,-0.24297 0.0662,-0.072 0.12129,-0.243 l 0.1103,-0.50398 -0.95958,-4.39182 h 0.57354 l 0.66179,3.44686 h 0.0221 l 0.66179,-3.44686 z m 2.61406,1.27794 h 0.69488 q 0.4081,0 0.68385,-0.22498 0.28678,-0.23399 0.28678,-0.56698 v -0.90895 q 0,-0.333 -0.28678,-0.55799 -0.27575,-0.234 -0.68385,-0.234 h -0.69488 z m 0.69488,0.46799 h -0.69488 v 2.64589 h -0.57354 v -6.07475 h 1.26842 q 0.63972,0 1.09193,0.36898 0.45223,0.36899 0.45223,0.89098 v 0.90895 q 0,0.52198 -0.45223,0.89095 -0.45221,0.369 -1.09193,0.369 z m 3.92659,-1.79092 v 0.46797 h -0.40809 q -0.28678,0 -0.47427,0.162 -0.18752,0.15298 -0.18752,0.38698 v 3.41986 h -0.57354 v -4.39182 h 0.39707 l 0.0993,0.34199 q 0.29782,-0.38698 1.1471,-0.38698 z m 0.47428,3.50985 v -2.5379 q 0,-0.40498 0.34193,-0.68397 0.35295,-0.28798 0.84929,-0.28798 0.49633,0 0.83827,0.28798 0.35293,0.27899 0.35293,0.68397 v 2.5379 q 0,0.40498 -0.35293,0.69296 -0.34194,0.279 -0.83827,0.279 -0.49634,0 -0.84929,-0.279 -0.34193,-0.28798 -0.34193,-0.69296 z m 0.57355,-2.5379 v 2.5379 q 0,0.20698 0.17648,0.35998 0.1875,0.144 0.44119,0.144 0.25368,0 0.43016,-0.144 0.1875,-0.153 0.1875,-0.35998 v -2.5379 q 0,-0.207 -0.1875,-0.35098 -0.17648,-0.153 -0.43016,-0.153 -0.25369,0 -0.44119,0.153 -0.17648,0.14398 -0.17648,0.35098 z m 4.84208,-0.92696 -1.0699,4.8958 q -0.0882,0.27898 -0.23163,0.47697 -0.34191,0.47699 -0.95958,0.47699 v -0.46799 q 0.34192,0 0.49634,-0.24297 0.0662,-0.072 0.12129,-0.243 l 0.1103,-0.50398 -0.9596,-4.39182 h 0.57354 l 0.66179,3.44686 h 0.0222 l 0.66179,-3.44686 z m 2.38242,2.94288 0.57354,-0.0541 v 0.57598 q 0,0.40498 -0.35295,0.69296 -0.34191,0.27899 -0.83827,0.27899 -0.49633,0 -0.84927,-0.27899 -0.34194,-0.28798 -0.34194,-0.69296 v -2.5379 q 0,-0.40497 0.34194,-0.68397 0.35294,-0.28799 0.84927,-0.28799 0.49636,0 0.83827,0.28799 0.35295,0.279 0.35295,0.68397 v 1.34994 h -1.80888 v 1.18796 q 0,0.20699 0.17647,0.35998 0.18753,0.144 0.44119,0.144 0.2537,0 0.43019,-0.144 0.18749,-0.15299 0.18749,-0.35998 z m -1.23534,-2.01592 v 0.88197 h 1.23534 v -0.88197 q 0,-0.207 -0.18749,-0.35098 -0.17649,-0.153 -0.43019,-0.153 -0.25366,0 -0.44119,0.153 -0.17647,0.14398 -0.17647,0.35098 z m 4.38984,2.01592 h 0.57355 v 0.52198 q 0,0.40498 -0.35296,0.69296 -0.34191,0.279 -0.83826,0.279 -0.49632,0 -0.84929,-0.279 -0.34191,-0.28798 -0.34191,-0.69296 v -2.5379 q 0,-0.40498 0.34191,-0.68397 0.35297,-0.28798 0.84929,-0.28798 0.49635,0 0.83826,0.28798 0.35296,0.27899 0.35296,0.68397 v 0.51298 l -0.57355,0.0541 v -0.56701 q 0,-0.207 -0.18751,-0.35098 -0.17647,-0.153 -0.43016,-0.153 -0.25369,0 -0.44119,0.153 -0.17647,0.14398 -0.17647,0.35098 v 2.53789 q 0,0.20699 0.17647,0.35998 0.1875,0.14401 0.44119,0.14401 0.25369,0 0.43016,-0.14401 0.18751,-0.15299 0.18751,-0.35998 z m 1.03681,-2.4749 v -0.46798 h 0.69487 v -0.84597 l 0.57356,-0.0541 v 0.89996 h 0.69487 v 0.46797 h -0.69487 v 3.32087 q 0,0.0719 0.0662,0.12598 0.0662,0.0541 0.15439,0.0541 v 0.46797 q -0.33088,0 -0.56252,-0.18899 -0.23161,-0.18899 -0.23161,-0.45899 v -3.32086 z m 2.48168,2.99688 v -2.5379 q 0,-0.40498 0.34192,-0.68397 0.35296,-0.28798 0.84929,-0.28798 0.49634,0 0.83825,0.28798 0.35296,0.27899 0.35296,0.68397 v 2.5379 q 0,0.40498 -0.35296,0.69296 -0.34191,0.279 -0.83825,0.279 -0.49633,0 -0.84929,-0.279 -0.34192,-0.28798 -0.34192,-0.69296 z m 0.57355,-2.5379 v 2.5379 q 0,0.20698 0.17649,0.35998 0.18749,0.144 0.44117,0.144 0.25368,0 0.43016,-0.144 0.18751,-0.153 0.18751,-0.35998 v -2.5379 q 0,-0.207 -0.18751,-0.35098 -0.17648,-0.153 -0.43016,-0.153 -0.25368,0 -0.44117,0.153 -0.17649,0.14398 -0.17649,0.35098 z m 4.33471,2.5379 v -0.37798 q 0,-0.135 -0.0993,-0.27899 -0.011,-0.009 -0.044,-0.0449 -0.0222,-0.036 -0.044,-0.0541 l -1.1912,-0.80996 q -0.1213,-0.081 -0.19855,-0.189 -0.18752,-0.25198 -0.18752,-0.54897 v -0.26999 q 0,-0.38698 0.3309,-0.65697 0.34193,-0.27899 0.81622,-0.27899 0.47428,0 0.80515,0.27899 0.34194,0.26999 0.34194,0.65697 v 0.40498 l -0.57355,0.054 v -0.45897 q 0,-0.198 -0.16544,-0.33298 -0.16545,-0.13501 -0.4081,-0.13501 -0.24266,0 -0.40811,0.13501 -0.16544,0.13498 -0.16544,0.33298 v 0.26999 q 0,0.16199 0.0882,0.28799 l 0.0993,0.09 1.19121,0.80997 q 0.11031,0.09 0.18752,0.18899 0.19854,0.26998 0.19854,0.54898 v 0.37798 q 0,0.40498 -0.35296,0.69297 -0.34192,0.27898 -0.83825,0.27898 -0.49635,0 -0.8493,-0.27898 -0.34191,-0.28799 -0.34191,-0.69297 v -0.43199 l 0.57354,-0.054 v 0.48597 q 0,0.20698 0.17647,0.35997 0.1875,0.14401 0.4412,0.14401 0.25367,0 0.43015,-0.14401 0.18751,-0.15299 0.18751,-0.35997 z m 5.16192,-5.14779 v 6.07475 h -0.39707 l -0.0993,-0.34198 q -0.29779,0.38698 -0.83825,0.38698 -0.43017,0 -0.73899,-0.279 -0.30885,-0.28798 -0.30885,-0.69296 v -2.5379 q 0,-0.40498 0.30885,-0.68397 0.30882,-0.28798 0.73899,-0.28798 0.45222,0 0.76104,0.30598 v -1.88992 z m -0.57356,5.14779 v -2.5379 q 0,-0.207 -0.18749,-0.35098 -0.17649,-0.153 -0.43018,-0.153 -0.25366,0 -0.44118,0.153 -0.17648,0.14398 -0.17648,0.35098 v 2.5379 q 0,0.20698 0.17648,0.35998 0.18752,0.144 0.44118,0.144 0.25369,0 0.43018,-0.144 0.18749,-0.153 0.18749,-0.35998 z m 3.26483,-0.52198 0.57355,-0.0541 v 0.57598 q 0,0.40498 -0.35296,0.69296 -0.34192,0.27899 -0.83825,0.27899 -0.49636,0 -0.8493,-0.27899 -0.34194,-0.28798 -0.34194,-0.69296 v -2.5379 q 0,-0.40497 0.34194,-0.68397 0.35294,-0.28799 0.8493,-0.28799 0.49633,0 0.83825,0.28799 0.35296,0.279 0.35296,0.68397 v 1.34994 h -1.80888 v 1.18796 q 0,0.20699 0.17647,0.35998 0.1875,0.144 0.4412,0.144 0.25367,0 0.43016,-0.144 0.1875,-0.15299 0.1875,-0.35998 z m -1.23533,-2.01592 v 0.88197 h 1.23533 v -0.88197 q 0,-0.207 -0.1875,-0.35098 -0.17649,-0.153 -0.43016,-0.153 -0.2537,0 -0.4412,0.153 -0.17647,0.14398 -0.17647,0.35098 z m 4.75381,3.46486 h -0.57356 v -6.07475 h 0.57356 z m 1.59932,0 h -0.57355 v -4.39182 h 0.39706 l 0.0993,0.34199 q 0.2978,-0.38698 0.83826,-0.38698 0.43017,0 0.73899,0.28798 0.30884,0.27899 0.30884,0.68397 v 3.46486 h -0.57354 v -3.46486 q 0,-0.207 -0.18752,-0.35098 -0.17648,-0.153 -0.43015,-0.153 -0.25368,0 -0.44121,0.153 -0.17645,0.14398 -0.17645,0.35098 z m 2.62509,0.48598 v -0.41398 q 0,-0.50397 0.4853,-0.78298 -0.16545,-0.17098 -0.16545,-0.43197 0,-0.24299 0.16545,-0.42299 -0.4853,-0.29699 -0.4853,-0.79195 v -1.10697 q 0,-0.40498 0.30881,-0.68397 0.30885,-0.28798 0.73901,-0.28798 0.54045,0 0.83827,0.38698 l 0.0993,-0.34199 h 0.39707 v 2.03393 q 0,0.40497 -0.35295,0.69296 -0.34192,0.27899 -0.83826,0.27899 -0.12129,0 -0.20957,0.0719 -0.0882,0.0719 -0.0882,0.17099 0,0.099 0.0882,0.171 0.0882,0.0719 0.20957,0.0719 0.49634,0 0.83826,0.28798 0.35295,0.27899 0.35295,0.68397 v 0.41398 q 0,0.40499 -0.35295,0.68398 -0.34192,0.28799 -0.83826,0.28799 -0.49633,0 -0.8493,-0.28799 -0.34191,-0.27899 -0.34191,-0.68398 z m 1.80887,-2.84387 v -1.10697 q 0,-0.207 -0.18751,-0.35098 -0.17646,-0.153 -0.43015,-0.153 -0.2537,0 -0.44119,0.153 -0.17648,0.14398 -0.17648,0.35098 v 1.10697 q 0,0.20697 0.17648,0.35998 0.18749,0.14399 0.44119,0.14399 0.25369,0 0.43015,-0.14399 0.18751,-0.15301 0.18751,-0.35998 z m -1.23533,2.42989 v 0.41398 q 0,0.20699 0.17648,0.35098 0.18749,0.15299 0.44119,0.15299 0.25369,0 0.43015,-0.15299 0.18751,-0.14399 0.18751,-0.35098 v -0.41398 q 0,-0.207 -0.18751,-0.35098 -0.17646,-0.15299 -0.43015,-0.15299 -0.2537,0 -0.44119,0.15299 -0.17648,0.14398 -0.17648,0.35098 z m 4.40087,-1.52094 0.57356,-0.0541 v 0.57598 q 0,0.40498 -0.35297,0.69296 -0.34191,0.27899 -0.83826,0.27899 -0.49634,0 -0.84929,-0.27899 -0.34192,-0.28798 -0.34192,-0.69296 v -2.5379 q 0,-0.40497 0.34192,-0.68397 0.35295,-0.28799 0.84929,-0.28799 0.49635,0 0.83826,0.28799 0.35297,0.279 0.35297,0.68397 v 1.34994 H 585.618 v 1.18796 q 0,0.20699 0.17646,0.35998 0.18751,0.144 0.4412,0.144 0.25368,0 0.43017,-0.144 0.1875,-0.15299 0.1875,-0.35998 z m -1.23533,-2.01592 v 0.88197 h 1.23533 v -0.88197 q 0,-0.207 -0.1875,-0.35098 -0.17649,-0.153 -0.43017,-0.153 -0.25369,0 -0.4412,0.153 -0.17646,0.14398 -0.17646,0.35098 z m 3.22067,3.46486 h -0.57355 v -4.39182 h 0.39707 l 0.0994,0.34199 q 0.29779,-0.38698 0.83825,-0.38698 0.43017,0 0.739,0.28798 0.30884,0.27899 0.30884,0.68397 v 3.46486 h -0.57355 v -3.46486 q 0,-0.207 -0.18751,-0.35098 -0.17648,-0.153 -0.43016,-0.153 -0.25368,0 -0.4412,0.153 -0.17646,0.14398 -0.17646,0.35098 z m 3.31997,-4.39182 v 4.39182 h -0.57356 v -4.39182 z m -0.57356,-0.50398 v -0.62998 h 0.57356 v 0.62998 z m 3.26482,3.44686 0.57355,-0.0541 v 0.57598 q 0,0.40498 -0.35296,0.69296 -0.34192,0.27899 -0.83825,0.27899 -0.49635,0 -0.84931,-0.27899 -0.34191,-0.28798 -0.34191,-0.69296 v -2.5379 q 0,-0.40497 0.34191,-0.68397 0.35296,-0.28799 0.84931,-0.28799 0.49633,0 0.83825,0.28799 0.35296,0.279 0.35296,0.68397 v 1.34994 h -1.80888 v 1.18796 q 0,0.20699 0.17648,0.35998 0.1875,0.144 0.44119,0.144 0.25366,0 0.43015,-0.144 0.18751,-0.15299 0.18751,-0.35998 z m -1.23533,-2.01592 v 0.88197 h 1.23533 v -0.88197 q 0,-0.207 -0.18751,-0.35098 -0.17649,-0.153 -0.43015,-0.153 -0.25369,0 -0.44119,0.153 -0.17648,0.14398 -0.17648,0.35098 z m 4.29055,-0.97195 v 0.46797 h -0.40808 q -0.28679,0 -0.47428,0.162 -0.18752,0.15298 -0.18752,0.38698 v 3.41986 h -0.57354 v -4.39182 h 0.39707 l 0.0993,0.34199 q 0.29779,-0.38698 1.1471,-0.38698 z m 1.15812,0.0449 v 4.39181 h -0.57354 v -4.39181 z m 0.2537,-0.84598 -1.08093,0.39599 v -0.46798 l 1.08093,-0.39598 z m 1.09195,3.81586 v 0.49497 q 0,0.20699 0.17647,0.35998 0.18751,0.144 0.44119,0.144 0.25369,0 0.43016,-0.144 0.18751,-0.15299 0.18751,-0.35998 v -1.27795 q -0.0441,0.036 -0.13242,0.09 l -0.055,0.0269 -0.84929,0.39598 -0.0993,0.0719 q -0.0993,0.081 -0.0993,0.19799 z m 1.80887,-2.09692 v 2.88888 q 0,0.162 0.19854,0.162 v 0.46797 q -0.35296,0 -0.58458,-0.20699 -0.31986,0.25199 -0.80517,0.25199 -0.49633,0 -0.84928,-0.279 -0.34193,-0.28799 -0.34193,-0.69296 v -0.49497 q 0,-0.27 0.24265,-0.50399 0.15439,-0.12596 0.24265,-0.17099 l 0.84931,-0.39599 q 0.15438,-0.09 0.23162,-0.15299 0.24265,-0.19799 0.24265,-0.43199 v -0.44097 q 0,-0.189 -0.16546,-0.31498 -0.15439,-0.13501 -0.38602,-0.13501 -0.23165,0 -0.39707,0.13501 -0.15439,0.12597 -0.15439,0.31498 v 0.52197 l -0.57355,0.0541 v -0.57598 q 0,-0.37799 0.33088,-0.64798 0.33091,-0.26999 0.79415,-0.26999 0.46324,0 0.79414,0.26999 0.3309,0.26999 0.3309,0.64798 z m 6.1105,-1.61994 -1.19122,5.13879 h -0.65075 l -1.18018,-5.09379 h -0.0222 v 5.09379 h -0.57355 v -6.07476 h 0.86031 l 1.22431,5.35479 h 0.0222 l 1.23533,-5.35479 h 0.87136 v 6.07476 h -0.57354 v -5.13879 z m 3.36405,3.68984 0.57356,-0.0541 v 0.57598 q 0,0.40497 -0.35295,0.69295 -0.34191,0.279 -0.83827,0.279 -0.49632,0 -0.84927,-0.279 -0.34193,-0.28798 -0.34193,-0.69295 v -2.5379 q 0,-0.40498 0.34193,-0.68398 0.35295,-0.28797 0.84927,-0.28797 0.49636,0 0.83827,0.28797 0.35295,0.279 0.35295,0.68398 v 1.34994 h -1.80889 v 1.18796 q 0,0.20698 0.17649,0.35997 0.18751,0.14401 0.44118,0.14401 0.2537,0 0.43017,-0.14401 0.18749,-0.15299 0.18749,-0.35997 z m -1.23533,-2.0159 v 0.88196 h 1.23533 v -0.88196 q 0,-0.207 -0.18749,-0.35098 -0.17647,-0.15301 -0.43017,-0.15301 -0.25367,0 -0.44118,0.15301 -0.17649,0.14398 -0.17649,0.35098 z m 4.38985,2.0159 h 0.57355 v 0.52199 q 0,0.40497 -0.35295,0.69296 -0.34192,0.279 -0.83826,0.279 -0.49634,0 -0.8493,-0.279 -0.34191,-0.28799 -0.34191,-0.69296 v -2.53789 q 0,-0.40498 0.34191,-0.68398 0.35296,-0.28798 0.8493,-0.28798 0.49634,0 0.83826,0.28798 0.35295,0.279 0.35295,0.68398 v 0.51297 l -0.57355,0.0541 v -0.56697 q 0,-0.20701 -0.18751,-0.35098 -0.17648,-0.153 -0.43015,-0.153 -0.2537,0 -0.44119,0.153 -0.17648,0.14397 -0.17648,0.35098 v 2.53788 q 0,0.207 0.17648,0.35999 0.18749,0.14401 0.44119,0.14401 0.25367,0 0.43015,-0.14401 0.18751,-0.15299 0.18751,-0.35999 z m 1.77581,0.027 v 0.49497 q 0,0.20699 0.17649,0.35998 0.18749,0.14401 0.44117,0.14401 0.25368,0 0.43017,-0.14401 0.1875,-0.15299 0.1875,-0.35998 v -1.27795 q -0.044,0.036 -0.13242,0.09 l -0.0553,0.0269 -0.84928,0.39598 -0.0993,0.0719 q -0.0993,0.081 -0.0993,0.198 z m 1.80887,-2.09692 v 2.88888 q 0,0.162 0.19855,0.162 v 0.46797 q -0.35297,0 -0.58457,-0.20698 -0.31988,0.25198 -0.80519,0.25198 -0.49633,0 -0.84929,-0.27899 -0.34192,-0.28797 -0.34192,-0.69297 v -0.49497 q 0,-0.27 0.24265,-0.50398 0.15439,-0.12597 0.24265,-0.171 l 0.84931,-0.39599 q 0.15439,-0.09 0.23161,-0.15298 0.24266,-0.198 0.24266,-0.43199 v -0.44098 q 0,-0.189 -0.16544,-0.31498 -0.1544,-0.13501 -0.38604,-0.13501 -0.23163,0 -0.39708,0.13501 -0.15439,0.12597 -0.15439,0.31498 v 0.52197 l -0.57355,0.0541 v -0.57598 q 0,-0.37798 0.33089,-0.64798 0.33089,-0.26999 0.79414,-0.26999 0.46325,0 0.79414,0.26999 0.3309,0.27 0.3309,0.64798 z m -0.58457,-1.71894 -1.08091,0.396 v -0.46799 l 1.08091,-0.39598 z m 2.11772,5.23779 h -0.57355 v -4.39181 h 0.39706 l 0.0994,0.34198 q 0.2978,-0.38698 0.83826,-0.38698 0.43016,0 0.73898,0.28799 0.30884,0.27899 0.30884,0.68397 v 3.46485 h -0.57354 v -3.46485 q 0,-0.207 -0.18751,-0.35098 -0.17649,-0.15301 -0.43016,-0.15301 -0.25368,0 -0.44119,0.15301 -0.17647,0.14398 -0.17647,0.35098 z m 3.31995,-4.39181 v 4.39181 h -0.57355 v -4.39181 z m -0.57355,-0.50399 v -0.62997 h 0.57355 v 0.62997 z m 3.26483,3.44687 h 0.57354 v 0.52197 q 0,0.405 -0.35295,0.69297 -0.34192,0.27899 -0.83825,0.27899 -0.49635,0 -0.84931,-0.27899 -0.34191,-0.28797 -0.34191,-0.69297 v -2.53789 q 0,-0.40498 0.34191,-0.68397 0.35296,-0.28799 0.84931,-0.28799 0.49633,0 0.83825,0.28799 0.35295,0.27899 0.35295,0.68397 v 0.51299 l -0.57354,0.054 v -0.56697 q 0,-0.20701 -0.18752,-0.35098 -0.17648,-0.153 -0.43014,-0.153 -0.2537,0 -0.44121,0.153 -0.17646,0.14397 -0.17646,0.35098 v 2.5379 q 0,0.20698 0.17646,0.35997 0.18751,0.14401 0.44121,0.14401 0.25366,0 0.43014,-0.14401 0.18752,-0.15299 0.18752,-0.35997 z m 1.77579,0.0269 v 0.49496 q 0,0.207 0.17648,0.35999 0.1875,0.14401 0.44118,0.14401 0.25369,0 0.43016,-0.14401 0.18751,-0.15299 0.18751,-0.35999 v -1.27795 q -0.044,0.036 -0.13242,0.09 l -0.0553,0.0269 -0.84928,0.39599 -0.0993,0.0719 q -0.0993,0.081 -0.0993,0.19799 z m 1.80887,-2.09692 v 2.88887 q 0,0.162 0.19854,0.162 v 0.46798 q -0.35296,0 -0.58458,-0.207 -0.31986,0.252 -0.80517,0.252 -0.49633,0 -0.8493,-0.279 -0.34191,-0.28798 -0.34191,-0.69297 v -0.49496 q 0,-0.27 0.24266,-0.50398 0.15439,-0.12597 0.24264,-0.17101 l 0.84931,-0.39598 q 0.15439,-0.09 0.23161,-0.15299 0.24266,-0.19799 0.24266,-0.43198 v -0.44098 q 0,-0.18901 -0.16545,-0.31499 -0.15439,-0.13499 -0.38603,-0.13499 -0.23164,0 -0.39707,0.13499 -0.15439,0.12597 -0.15439,0.31499 v 0.52197 l -0.57355,0.0541 v -0.57598 q 0,-0.37798 0.33089,-0.64798 0.3309,-0.26998 0.79414,-0.26998 0.46325,0 0.79416,0.26998 0.33088,0.27 0.33088,0.64798 z"
         id="text149"
         style="fill:#ffffff;stroke-width:0.41513"
         inkscape:label="Texto"
         aria-label="Servicios y Proyectos de Ingeniería Mecánica" /></g></g></svg>
