<?xml version="1.0" encoding="UTF-8" standalone="no"?>
<!-- Created with Inkscape (http://www.inkscape.org/) -->

<svg
   width="320.54587mm"
   height="320.548mm"
   viewBox="0 0 320.54587 320.548"
   version="1.1"
   id="svg1"
   xml:space="preserve"
   sodipodi:docname="chulo.svg"
   inkscape:version="1.3.2 (091e20e, 2023-11-25, custom)"
   xmlns:inkscape="http://www.inkscape.org/namespaces/inkscape"
   xmlns:sodipodi="http://sodipodi.sourceforge.net/DTD/sodipodi-0.dtd"
   xmlns="http://www.w3.org/2000/svg"
   xmlns:svg="http://www.w3.org/2000/svg"><sodipodi:namedview
     id="namedview1"
     pagecolor="#ffffff"
     bordercolor="#000000"
     borderopacity="0.25"
     inkscape:showpageshadow="2"
     inkscape:pageopacity="0.0"
     inkscape:pagecheckerboard="0"
     inkscape:deskcolor="#d1d1d1"
     inkscape:document-units="mm"
     inkscape:zoom="0.2320019"
     inkscape:cx="1109.9047"
     inkscape:cy="1217.6625"
     inkscape:window-width="1920"
     inkscape:window-height="991"
     inkscape:window-x="-9"
     inkscape:window-y="-9"
     inkscape:window-maximized="1"
     inkscape:current-layer="group-R5"><inkscape:page
       x="-9.1026074e-08"
       y="2.0134728e-07"
       width="320.54587"
       height="320.548"
       id="page3"
       margin="0"
       bleed="0" /></sodipodi:namedview><defs
     id="defs1" /><g
     id="g1"
     inkscape:groupmode="layer"
     inkscape:label="1"
     transform="matrix(0.26458332,0,0,0.26458334,-66.07748,-53.285771)"><g
       id="group-R5"
       transform="translate(83.867007,19.968334)"><path
         id="path5"
         d="m 2574.73,12883.6 c 417.15,-417.1 902.98,-744.7 1444.01,-973.5 560.29,-237 1155.29,-357.2 1768.5,-357.2 613.2,0 1208.21,120.2 1768.5,357.2 541.03,228.8 1026.86,556.4 1444.01,973.5 417.15,417.2 744.69,903 973.52,1444 237.03,560.3 357.13,1155.3 357.13,1768.5 0,490.1 -77.6,972.4 -230.8,1433.3 -49.4,148.7 -209.94,229.1 -358.53,179.8 -148.64,-49.4 -229.1,-210 -179.72,-358.6 133.96,-403.2 201.88,-825.3 201.88,-1254.5 0,-1062 -413.58,-2060.5 -1164.54,-2811.4 -750.96,-751 -1749.43,-1164.6 -2811.45,-1164.6 -1062.03,0 -2060.49,413.6 -2811.45,1164.6 -750.96,750.9 -1164.54,1749.4 -1164.54,2811.4 0,1062.1 413.58,2060.5 1164.54,2811.5 750.96,750.9 1749.42,1164.5 2811.45,1164.5 694.86,0 1378.62,-181.8 1977.36,-525.7 135.8,-78 309.16,-31.2 387.16,104.6 78.02,135.9 31.16,309.2 -104.65,387.2 -684.57,393.2 -1466.03,601.1 -2259.87,601.1 -613.21,0 -1208.21,-120.2 -1768.5,-357.1 -541.03,-228.9 -1026.86,-556.4 -1444.01,-973.6 -417.15,-417.1 -744.69,-902.9 -973.53,-1444 -236.98,-560.3 -357.14,-1155.3 -357.14,-1768.5 0,-613.2 120.16,-1208.2 357.14,-1768.5 228.84,-541 556.38,-1026.8 973.53,-1444"
         style="fill:#47b859;fill-opacity:1;fill-rule:nonzero;stroke:none"
         transform="matrix(0.13333333,0,0,-0.13333333,0,2933.3333)" /><path
         id="path6"
         d="m 5046.64,15471.1 c 0,0 -539.51,342.8 -1191.11,868.8 -139.79,112.9 -345.35,87.4 -453.24,-56.2 v 0 c -78.38,-104.4 -84.8,-246 -16.41,-357.1 329.68,-535.9 899.28,-1380.8 1339.77,-1935.9 207.86,-262 576.86,-286.3 819.41,-56 1394.97,1324 2689.78,2994.3 4240.09,5307.1 89.91,134.1 44.72,316.5 -97.57,392.9 -108.66,58.3 -242.98,36.5 -327.65,-53.2 -1719.92,-1821 -2601.95,-2686.6 -4313.29,-4110.4"
         style="fill:#47b859;fill-opacity:1;fill-rule:nonzero;stroke:none"
         transform="matrix(0.13333333,0,0,-0.13333333,0,2933.3333)" /></g></g></svg>
