<?xml version="1.0" encoding="UTF-8" standalone="no"?>
<!-- Created with Inkscape (http://www.inkscape.org/) -->

<svg
   width="320.54587mm"
   height="320.548mm"
   viewBox="0 0 320.54587 320.548"
   version="1.1"
   id="svg1"
   xml:space="preserve"
   sodipodi:docname="equis.svg"
   inkscape:version="1.3.2 (091e20e, 2023-11-25, custom)"
   xmlns:inkscape="http://www.inkscape.org/namespaces/inkscape"
   xmlns:sodipodi="http://sodipodi.sourceforge.net/DTD/sodipodi-0.dtd"
   xmlns="http://www.w3.org/2000/svg"
   xmlns:svg="http://www.w3.org/2000/svg"><sodipodi:namedview
     id="namedview1"
     pagecolor="#ffffff"
     bordercolor="#000000"
     borderopacity="0.25"
     inkscape:showpageshadow="2"
     inkscape:pageopacity="0.0"
     inkscape:pagecheckerboard="0"
     inkscape:deskcolor="#d1d1d1"
     inkscape:document-units="mm"
     inkscape:zoom="0.16405011"
     inkscape:cx="1118.5606"
     inkscape:cy="88.387625"
     inkscape:window-width="1920"
     inkscape:window-height="991"
     inkscape:window-x="-9"
     inkscape:window-y="-9"
     inkscape:window-maximized="1"
     inkscape:current-layer="group-R5"><inkscape:page
       x="-9.1026074e-08"
       y="1.5599851e-06"
       width="320.54587"
       height="320.548"
       id="page3"
       margin="0"
       bleed="0" /></sodipodi:namedview><defs
     id="defs1" /><g
     id="g1"
     inkscape:groupmode="layer"
     inkscape:label="1"
     transform="matrix(0.26458332,0,0,0.26458334,-66.07748,-412.84394)"><g
       id="group-R5"
       transform="translate(83.867007,19.968334)"><path
         id="path7"
         d="M 8598.69,3092.4 C 7847.73,2341.5 6849.26,1927.9 5787.24,1927.9 c -1062.03,0 -2060.49,413.6 -2811.45,1164.5 -750.96,751 -1164.54,1749.4 -1164.54,2811.5 0,1062 413.58,2060.5 1164.54,2811.4 750.96,751 1749.42,1164.6 2811.45,1164.6 1062.02,0 2060.49,-413.6 2811.45,-1164.6 750.96,-750.9 1164.54,-1749.4 1164.54,-2811.4 0,-1062.1 -413.58,-2060.5 -1164.54,-2811.5 z m 401.06,6024 c -417.15,417.1 -902.98,744.7 -1444.01,973.5 -560.29,237 -1155.3,357.2 -1768.5,357.2 -613.21,0 -1208.21,-120.2 -1768.5,-357.2 -541.03,-228.8 -1026.86,-556.4 -1444.01,-973.5 -417.15,-417.2 -744.69,-903 -973.53,-1444 -236.98,-560.3 -357.14,-1155.3 -357.14,-1768.5 0,-613.2 120.16,-1208.2 357.14,-1768.5 228.84,-541.1 556.38,-1026.9 973.53,-1444 417.15,-417.2 902.98,-744.7 1444.01,-973.6 560.29,-236.9 1155.29,-357.1 1768.5,-357.1 613.2,0 1208.21,120.2 1768.5,357.1 541.03,228.9 1026.86,556.4 1444.01,973.6 417.15,417.1 744.69,902.9 973.52,1444 237.03,560.3 357.13,1155.3 357.13,1768.5 0,613.2 -120.1,1208.2 -357.13,1768.5 -228.83,541 -556.37,1026.8 -973.52,1444"
         style="fill:#c82834;fill-opacity:1;fill-rule:nonzero;stroke:none"
         transform="matrix(0.13333333,0,0,-0.13333333,0,2933.3333)" /><path
         id="path8"
         d="m 7635.56,7752.2 c -134.68,134.7 -353.07,134.7 -487.76,0 L 5787.24,6391.6 4426.67,7752.2 c -134.68,134.7 -353.07,134.7 -487.76,0 -134.68,-134.7 -134.68,-353.1 0,-487.8 L 5299.48,5903.9 3938.91,4543.3 c -134.68,-134.7 -134.68,-353 0,-487.7 67.36,-67.4 155.6,-101.1 243.88,-101.1 88.26,0 176.54,33.7 243.88,101.1 L 5787.24,5416.1 7147.8,4055.6 c 67.34,-67.4 155.61,-101.1 243.88,-101.1 88.27,0 176.54,33.7 243.88,101.1 134.69,134.7 134.69,353 0,487.7 L 6275,5903.9 7635.56,7264.4 c 134.69,134.7 134.69,353.1 0,487.8"
         style="fill:#c82834;fill-opacity:1;fill-rule:nonzero;stroke:none"
         transform="matrix(0.13333333,0,0,-0.13333333,0,2933.3333)" /></g></g></svg>
