<?xml version="1.0" encoding="UTF-8" standalone="no"?>
<!-- Created with Inkscape (http://www.inkscape.org/) -->

<svg
   version="1.1"
   id="svg1"
   width="227.964"
   height="229.33414"
   viewBox="0 0 227.964 229.33414"
   xmlns="http://www.w3.org/2000/svg"
   xmlns:svg="http://www.w3.org/2000/svg">
  <defs
     id="defs1" />
  <g
     id="layer1"
     transform="translate(-49.21767,-284.89401)">
    <path
       id="path21"
       d="m 277.18167,398.87801 c 0,62.95333 -51.028,113.98413 -113.98134,113.98413 -62.95466,0 -113.982659,-51.0308 -113.982659,-113.98413 0,-62.95067 51.027999,-113.984 113.982659,-113.984 62.95334,0 113.98134,51.03333 113.98134,113.984"
       style="fill:#ca1825;fill-opacity:1;fill-rule:nonzero;stroke:none;stroke-width:0.133333" />
    <path
       id="path166"
       d="m 163.21767,512.86054 v -34.15827 h 81.348 c -20.68,21.07707 -49.48667,34.15467 -81.348,34.15827 m 81.912,-34.73853 -6.116,-22.78387 c -3.66134,-12.88693 -18.004,-15.0844 -18.004,-15.0844 v 0 l -31.34134,-8.99427 -0.196,0.3412 -10.71733,-9.95333 -0.0507,0.0267 v -7.82 c 5.848,-3.448 11.29867,-8.53334 13.008,-15.22267 1.012,-3.96933 1.88134,-7.324 2.62134,-10.30133 l 0.032,-0.0213 0.0533,-0.324 c 0.116,-0.468 0.228,-0.924 0.33733,-1.37466 6.228,-0.80133 7.28134,-16.26533 7.28134,-16.26533 -0.74,-1.83067 -2.00934,-2.40267 -3.304,-2.40267 -0.20667,0 -0.41334,0.0133 -0.61867,0.04 3.77867,-10.96667 1.236,-32.53733 1.236,-32.53733 -3.028,-17.09467 -25.784,-18.91734 -35.34533,-18.91734 -0.27334,0 -0.536,0.001 -0.788,0.004 v -31.63733 c 0.012,0 0.0293,0 0.0413,0 0.0107,0 0.0307,0 0.0427,0 0.0147,0 0.028,0 0.044,0 0.0147,0 0.0333,0 0.0493,0 0.0107,0 0.0253,0 0.0373,0 0.016,0 0.04,0 0.056,0 0.012,0 0.0213,0 0.032,0 0.024,0 0.0387,0 0.0613,0 0.008,0 0.0187,0 0.0267,0 0.0227,0 0.0427,0.001 0.0653,0.001 0.008,0 0.016,0 0.024,0 0.0227,0 0.0467,0 0.0693,0 0.008,0 0.0107,0 0.0187,0 0.0267,0 0.048,0 0.0747,0 0.008,0 0.007,0 0.0147,0 0.0267,0 0.0533,10e-4 0.08,10e-4 h 0.004 c 0.0307,0 0.0573,0 0.088,0 h 0.001 c 12.08934,0.088 23.72934,2.05866 34.644,5.632 0.004,0.001 0.001,0 0.005,0.001 0.028,0.009 0.0493,0.016 0.0773,0.0253 0.004,0.001 0.007,0.003 0.0107,0.003 0.024,0.008 0.048,0.016 0.072,0.024 0.007,0.003 0.008,0.003 0.0147,0.005 0.024,0.008 0.044,0.0147 0.068,0.0227 0.007,10e-4 0.012,0.004 0.02,0.005 0.02,0.008 0.04,0.0147 0.0613,0.0213 0.0107,0.003 0.0187,0.005 0.0293,0.009 0.0173,0.005 0.036,0.012 0.0533,0.0173 0.009,0.004 0.0213,0.008 0.032,0.0107 0.0133,0.005 0.036,0.012 0.0493,0.0173 0.0107,0.003 0.0267,0.008 0.036,0.012 0.0147,0.004 0.0333,0.0107 0.0467,0.0147 0.0147,0.005 0.0267,0.009 0.04,0.0133 0.0147,0.005 0.028,0.009 0.0427,0.0147 0.0133,0.004 0.032,0.0107 0.0453,0.0147 0.0107,0.004 0.0253,0.009 0.036,0.012 0.0147,0.005 0.036,0.012 0.0493,0.0173 0.0107,0.003 0.0227,0.008 0.0333,0.0107 0.0213,0.007 0.0373,0.012 0.0573,0.02 0.007,0.001 0.0173,0.005 0.024,0.008 0.02,0.007 0.0427,0.0133 0.0627,0.0213 0.007,10e-4 0.012,0.004 0.02,0.005 0.024,0.009 0.044,0.016 0.068,0.024 0.004,10e-4 0.009,0.003 0.0133,0.004 0.028,0.009 0.048,0.016 0.076,0.0253 0.003,0.001 0.003,0.001 0.005,0.003 14.15066,4.8 27.04666,12.30134 38.08533,21.89334 8.17333,7.104 15.328,15.35333 21.20933,24.49866 11.35334,17.65467 17.968,38.65467 18.044,61.18667 0,0.13066 10e-4,0.25733 10e-4,0.388 v 0 c 0,0.13466 -10e-4,0.264 -10e-4,0.39733 0,0.112 -0.001,0.22933 -0.001,0.34 0,0.004 0,0.008 0,0.0107 -10e-4,0.23866 -0.004,0.48 -0.007,0.71733 0,0.0147 -10e-4,0.028 -10e-4,0.044 0,0.0373 -0.001,0.0733 -0.001,0.112 -0.003,0.22667 -0.007,0.448 -0.0107,0.67333 v 0.005 c -0.592,29.88253 -12.68133,56.9456 -32.02933,76.944"
       style="fill:#8a1825;fill-opacity:1;fill-rule:nonzero;stroke:none;stroke-width:0.133333" />
    <g
       id="g10216"
       style="display:inline;fill:#ffffff;fill-opacity:0.143777;stroke:none"
       transform="matrix(7.7233071,0,0,7.7233071,-592.99841,-377.67535)">
      <path
         style="fill:#ffffff;fill-opacity:0.143777;stroke:none;stroke-width:0.2"
         d="m 89.975574,89.366254 0.558541,3.35124 15.689875,-1.26941 z"
         id="path482" />
      <path
         style="fill:#ffffff;fill-opacity:0.143777;stroke:none;stroke-width:0.2"
         d="m 108.20426,98.556764 3.09735,1.21863 -9.79982,12.947946 z"
         id="path484" />
      <path
         style="fill:#ffffff;fill-opacity:0.143777;stroke:none;stroke-width:0.2"
         d="m 91.701967,112.97723 2.538815,-2.13261 -8.73352,-12.643286 z"
         id="path486" />
    </g>
    <g
       id="g10224"
       style="display:inline;fill:#ffffff;fill-opacity:0.255365;stroke:none"
       transform="matrix(7.677699,0,0,7.677699,-588.61887,-372.27938)">
      <g
         id="g22654"
         style="fill:#ffffff;fill-opacity:0.255365">
        <path
           style="fill:#ffffff;fill-opacity:0.255365;stroke:none;stroke-width:0.2"
           d="m 110.18454,92.920594 -6.75325,-0.25388 -5.026853,1.62484 6.651693,2.9958 z"
           id="path5850" />
        <path
           style="fill:#ffffff;fill-opacity:0.255365;stroke:none;stroke-width:0.2"
           d="m 110.18454,93.02034 -7.61645,15.8422 2.48804,-11.47544 z"
           id="path478" />
      </g>
      <g
         id="g22658"
         style="fill:#ffffff;fill-opacity:0.255365">
        <path
           style="fill:#ffffff;fill-opacity:0.255365;stroke:none;stroke-width:0.2"
           d="m 84.69484,93.88334 3.249684,6.19471 3.858995,3.45279 -0.812419,-7.31179 z"
           id="path5846" />
        <path
           style="fill:#ffffff;fill-opacity:0.255365;stroke:none;stroke-width:0.2"
           d="m 84.69484,93.783794 17.46704,-1.21863 -11.17078,3.55434 z"
           id="path480" />
      </g>
      <g
         id="g17103"
         style="fill:#ffffff;fill-opacity:0.255365">
        <path
           style="fill:#ffffff;fill-opacity:0.255365;stroke:none;stroke-width:0.1;stroke-dasharray:none;stroke-opacity:1"
           d="m 98.352378,115.46526 3.655892,-5.78849 1.01552,-5.12841 -5.940819,4.41754 z"
           id="path5855" />
        <path
           style="fill:#ffffff;fill-opacity:0.255365;stroke:none;stroke-width:0.2;stroke-dasharray:none;stroke-opacity:1"
           d="m 98.252108,115.46526 -10.002927,-14.57279 8.73352,8.07343 z"
           id="path488" />
      </g>
    </g>
    <path
       id="path78"
       d="m 147.58167,429.31107 h 31.1224 v -16.37186 h -31.1224 z"
       style="fill:#ecae93;fill-opacity:1;fill-rule:nonzero;stroke:none;stroke-width:0.133333" />
    <path
       id="path79"
       d="m 155.88167,425.50227 -8.3,-4.33493 v -7.30533 c 5.76933,3.492 11.596,5.14 15.04533,5.36666 0.0107,-0.001 0.0213,-0.001 0.032,-0.003 0.009,0.001 0.02,0.001 0.0293,0.003 0.136,-0.008 0.27867,-0.0213 0.42267,-0.0347 0.036,0.003 0.072,0.007 0.10667,0.009 v 5.24267 c -2.21734,0.60413 -4.56,0.97333 -6.932,1.04533 -0.13467,0.004 -0.26934,0.008 -0.404,0.0109"
       style="fill:#c38f79;fill-opacity:1;fill-rule:nonzero;stroke:none;stroke-width:0.133333" />
    <path
       id="path80"
       d="m 163.15367,321.03001 h -0.0227 c -19.888,0.56267 -35.064,8.732 -34.99066,36.90667 0.0427,16.70533 1.56666,21.63333 6.43333,40.69466 3.368,13.188 21.284,20.14533 28.11466,20.59733 0.14534,-0.009 0.29867,-0.024 0.45467,-0.0373 0.15467,0.0133 0.308,0.028 0.45333,0.0373 6.83067,-0.452 24.748,-7.40933 28.116,-20.59733 4.86667,-19.06133 6.38934,-23.98933 6.43334,-40.69466 0.072,-28.17467 -15.104,-36.344 -34.992,-36.90667"
       style="fill:#ecae93;fill-opacity:1;fill-rule:nonzero;stroke:none;stroke-width:0.133333" />
    <path
       id="path81"
       d="m 146.94967,413.47267 c 5.97333,3.76 12.10266,5.52134 15.67733,5.756 0.14533,-0.009 0.29867,-0.024 0.45333,-0.0373 0.156,0.0133 0.30934,0.028 0.45467,0.0373 3.57333,-0.23466 10.18267,-2.256 16.15733,-6.016 0,0 -13.69866,6.53867 -32.74266,0.26"
       style="fill:#21110b;fill-opacity:1;fill-rule:nonzero;stroke:none;stroke-width:0.133333" />
    <path
       id="path82"
       d="m 194.339,369.52734 -2.17333,16.636 c 8.53733,3.75867 9.872,-15.81866 9.872,-15.81866 -1.97334,-4.88 -7.69867,-0.81734 -7.69867,-0.81734"
       style="fill:#ecae93;fill-opacity:1;fill-rule:nonzero;stroke:none;stroke-width:0.133333" />
    <path
       id="path83"
       d="m 123.203,370.34468 c 0,0 1.336,19.57733 9.872,15.81866 l -2.172,-16.636 c 0,0 -5.72666,-4.06266 -7.7,0.81734"
       style="fill:#ecae93;fill-opacity:1;fill-rule:nonzero;stroke:none;stroke-width:0.133333" />
    <path
       id="path84"
       d="m 178.975,429.31107 42.03467,10.94267 c 0,0 14.34266,2.19747 18.004,15.0844 l 6.272,23.36413 H 163.559 162.84033 81.11367 l 6.272,-23.36413 c 3.661333,-12.88693 18.004,-15.0844 18.004,-15.0844 l 41.912,-10.94267 H 178.975"
       style="fill:#ecae93;fill-opacity:1;fill-rule:nonzero;stroke:none;stroke-width:0.133333" />
    <path
       id="path85"
       d="m 81.11367,478.70227 6.272,-23.36413 c 3.661333,-12.88693 18.004,-15.0844 18.004,-15.0844 l 41.912,-10.94267 H 178.975 l 42.03467,10.94267 c 0,0 14.34266,2.19747 18.004,15.0844 l 6.272,23.36413 h -164.172"
       style="fill:#ffffff;fill-opacity:1;fill-rule:nonzero;stroke:none;stroke-width:0.133333" />
    <path
       id="path86"
       d="m 165.903,429.31107 h -5.40667 l -7.69866,12.13494 6.884,7.74946 h 3.472 0.092 3.472 l 6.88533,-7.74946 -7.7,-12.13494"
       style="fill:#80212f;fill-opacity:1;fill-rule:nonzero;stroke:none;stroke-width:0.133333" />
    <path
       id="path87"
       d="m 163.21767,449.19547 h -3.536 l -5.564,-6.26306 7.376,-11.2104 c -0.21734,3.43853 0.37866,6.95986 1.724,10.12653 v 7.34693"
       style="fill:#611821;fill-opacity:1;fill-rule:nonzero;stroke:none;stroke-width:0.133333" />
    <path
       id="path88"
       d="m 163.21767,430.04081 -0.13734,-0.2084 0.13734,0.1776 v 0.0308"
       style="fill:#611821;fill-opacity:1;fill-rule:nonzero;stroke:none;stroke-width:0.133333" />
    <path
       id="path89"
       d="m 178.755,421.64734 -15.67467,8.18507 10.51867,13.49226 17.53867,-10.15573 -12.38267,-11.5216"
       style="fill:#ffffff;fill-opacity:1;fill-rule:nonzero;stroke:none;stroke-width:0.133333" />
    <path
       id="path90"
       d="m 135.31634,432.44081 12.184,-11.31614 -12.15334,11.30774 -0.0307,0.008"
       style="fill:#4b6b0f;fill-opacity:1;fill-rule:nonzero;stroke:none;stroke-width:0.133333" />
    <path
       id="path91"
       d="m 152.84433,444.86734 -15.69333,-9.44267 -1.54133,-2.49333 17.04666,9.87093 0.62934,-0.8068 0.832,0.93694 -1.27334,1.93493 m -17.55733,-12.3984 0.0293,-0.0281 0.0307,-0.008 -0.0293,0.0281 -0.0307,0.008"
       style="fill:#bdbcbd;fill-opacity:1;fill-rule:nonzero;stroke:none;stroke-width:0.133333" />
    <path
       id="path92"
       d="m 161.49367,431.72201 c 0.007,-0.0932 0.0133,-0.1864 0.02,-0.28027 l 1.056,-1.35467 -1.076,1.63494"
       style="fill:#611821;fill-opacity:1;fill-rule:nonzero;stroke:none;stroke-width:0.133333" />
    <path
       id="path93"
       d="m 154.11767,442.93241 -0.832,-0.93694 8.228,-10.55373 c -0.007,0.0939 -0.0133,0.18707 -0.02,0.28027 l -7.376,11.2104"
       style="fill:#4b1117;fill-opacity:1;fill-rule:nonzero;stroke:none;stroke-width:0.133333" />
    <path
       id="path94"
       d="m 147.50034,421.12467 15.67466,8.1864 -10.51867,13.4912 -17.53866,-10.15626 12.38267,-11.52134"
       style="fill:#ffffff;fill-opacity:1;fill-rule:nonzero;stroke:none;stroke-width:0.133333" />
    <path
       id="path95"
       d="m 135.319,432.46054 -29.92933,7.7932 c 0,0 -14.342667,2.19747 -18.004,15.0844 l -6.272,23.36413 h 164.172 l -6.272,-23.36413 c -3.66134,-12.88693 -18.004,-15.0844 -18.004,-15.0844 l -31.34134,-8.99427 -26.588,46.28134 -27.76133,-45.08027"
       style="fill:#16161a;fill-opacity:1;fill-rule:nonzero;stroke:none;stroke-width:0.133333" />
    <path
       id="path96"
       d="m 159.563,449.19547 -3.74667,16.54894 7.264,11.7964 6.78134,-11.80267 -3.264,-16.54267 H 159.563"
       style="fill:#80212f;fill-opacity:1;fill-rule:nonzero;stroke:none;stroke-width:0.133333" />
    <path
       id="path97"
       d="m 135.319,432.46054 -14.17866,3.69067 7.996,3.10146 -4.936,5.61467 28.59733,33.83493 h 11.112 L 135.319,432.46054"
       style="fill:#0b0a0b;fill-opacity:1;fill-rule:nonzero;stroke:none;stroke-width:0.133333" />
    <path
       id="path98"
       d="m 189.66833,431.25947 15.59867,4.47867 -7.996,3.51453 4.936,5.61467 -28.59733,33.83493 h -11.112 l 27.17066,-47.4428"
       style="fill:#0b0a0b;fill-opacity:1;fill-rule:nonzero;stroke:none;stroke-width:0.133333" />
    <path
       id="path99"
       d="m 126.63767,347.52734 c 0,0 0.35733,8.82534 1.964,22.08 l 3.10667,18.70133 2.58266,1.67734 -2.58266,-26.25333 4.43466,-10.476 0.87334,-8.49867 0.32533,-1.16667 v -14.396 c -10.34267,1.35734 -10.704,18.332 -10.704,18.332"
       style="fill:#21110b;fill-opacity:1;fill-rule:nonzero;stroke:none;stroke-width:0.133333" />
    <path
       id="path100"
       d="m 134.44434,331.57268 c 0.252,2.38266 1.65733,4.20666 1.528,6.788 -0.104,2.09333 -0.768,5.692 -2.516,6.98933 0.0173,5.48933 0.28666,14.236 -3.47067,18.75067 -0.63467,-1.69067 -0.79867,-4.01067 -1.812,-5.48134 0.58267,0.33867 1.19867,0.66934 1.832,0.76667 -0.32,-2.41067 -1.89467,-5.608 -1.476,-8.07333 0.86,0.78133 1.62533,1.556 2.49467,2.26933 0.16266,-1.58667 -1.24,-2.88667 -1.63867,-4.38 -0.41067,-1.544 -1.25467,-5.11867 -1.02533,-6.76133 1.14,0.61333 2.02,1.86933 2.99466,2.69333 -0.24666,-1.62267 -0.18,-3.51333 -0.11866,-5.22133 0.69466,0.12933 1.264,0.61466 1.99466,0.808 0.22534,-1.21467 -0.724,-2.24534 -0.99333,-3.38667 -0.21333,-0.90667 -0.192,-1.87333 -0.14267,-2.816 0.752,0.40133 1.46934,0.972 2.14934,1.44933 -0.45467,-0.96666 -1.236,-3.37866 -0.308,-4.22533"
       style="fill:#301c14;fill-opacity:1;fill-rule:nonzero;stroke:none;stroke-width:0.133333" />
    <path
       id="path101"
       d="m 199.351,335.44468 c -3.848,-21.72534 -39.55467,-18.784 -39.55467,-18.784 -35.70933,5.204 -22.45466,26.93066 -22.45466,26.93066 1.012,-3.54133 4.196,-5.808 8.05867,-7.26 1.156,1.87067 6.93599,9.86667 22.16133,11.504 0,0 -4.396,-5.18133 -3.652,-7.29466 0,0 13.66,14.704 24.68133,17.604 v -5.896 c 0,0 3.192,8.30266 5.71333,12.104 l -2.52266,25.63333 2.584,-1.67734 3.10533,-18.70133 c 4.696,-10.28133 1.88,-34.16266 1.88,-34.16266"
       style="fill:#21110b;fill-opacity:1;fill-rule:nonzero;stroke:none;stroke-width:0.133333" />
    <path
       id="path102"
       d="m 139.027,330.89401 c 0.64667,0.968 1.98934,2.164 2.376,2.91333 0.14,-1.33866 -0.592,-2.47066 -0.49066,-3.75066 1.94933,0.984 4.41866,1.248 6.40133,2.00266 -0.0493,-1.088 -0.27867,-2.46933 -0.63467,-3.51733 3.276,-0.27733 5.408,2.60533 8.45467,2.66933 0.10266,-1.69733 -0.704,-3.02666 -0.812,-4.536 1.56133,-0.06 3.04266,0.59867 4.51466,1.25867 1.57734,0.708 3.14267,1.41467 4.784,1.236 -0.10666,-1.05067 -0.50133,-2.552 -0.77066,-3.68133 2.96666,-0.17467 7.66666,3.60266 9.928,5.35066 0.084,-1.436 -0.068,-2.91866 0.21733,-4.34 4.188,1.59067 7.552,4.81867 11.32533,7.112 0.12534,-1.29066 -0.344,-2.472 -0.30133,-3.73066 4.408,2.144 6.85867,7.584 9.97333,11.152 0.0267,-1.03334 -0.816,-1.81867 -0.78666,-2.83734 0.79866,1.064 1.548,2.24534 2.36666,3.33334 -1.78533,-2.392 -3.11866,-5.73867 -4.288,-8.556 0.45867,1.00266 0.892,1.98933 1.40267,2.95866 -1.788,-2.604 -4.85733,-5.116 -5.66533,-8.26 -0.25734,0.708 0.21066,1.552 0.744,2.14667 -1.45067,-1.904 -4.57067,-4.78933 -6.8,-5.61867 0.12933,1.09867 1.29733,1.82534 1.49733,2.90667 -1.684,-0.95333 -3.50133,-3.17333 -5.38933,-3.49733 0.10666,0.28533 0.009,0.84533 0.12933,1.14666 -2.13467,0.37734 -4.804,-1.672 -6.57467,-2.67333 -0.0387,0.70667 0.32267,1.33333 0.456,1.99867 -1.61466,-0.40534 -3.23866,-1.77867 -4.91466,-1.99867 -0.19867,0.52667 -0.18934,1.12133 0.008,1.66133 -1.11734,0.048 -2.22667,-0.13866 -3.32934,-0.328 -1.20666,-0.20533 -2.404,-0.41066 -3.596,-0.30533 0.0893,0.26267 0.0133,0.9 0.096,1.11333 -1.17466,-0.59466 -4.01066,-1.47066 -5.31066,-0.968 -1.15467,0.44534 -0.90534,0.464 -0.76667,1.84134 -1.08667,0.0627 -2.184,0.0493 -3.28133,0.0347 -0.87467,-0.012 -1.748,-0.0227 -2.61467,0.005 -0.0413,0.56533 -0.24933,1.088 -0.21466,1.66266 -0.71067,0.064 -1.41867,0.001 -2.12667,-0.06 -0.68933,-0.06 -1.37867,-0.12 -2.072,-0.064 0.001,0.336 -0.24533,0.61867 -0.22533,0.96667 -0.256,0.0133 -0.544,0.007 -0.844,-10e-4 -1.32667,-0.0333 -2.85334,-0.0653 -2.552,1.70266 -0.18267,-0.044 -0.42,-0.064 -0.62667,-0.13066 -0.16667,0.71466 0.0213,1.31866 0.65333,1.51066 l -0.34,0.17067"
       style="fill:#301c14;fill-opacity:1;fill-rule:nonzero;stroke:none;stroke-width:0.133333" />
    <path
       id="path168"
       d="m 163.21767,424.44601 v -5.24267 c 0.10933,0.009 0.21466,0.0187 0.31733,0.0253 0.009,-10e-4 0.02,-10e-4 0.0293,-0.003 0.0107,10e-4 0.0213,10e-4 0.032,0.003 3.29467,-0.21866 9.172,-1.95066 14.74934,-5.16666 -0.26934,0.39466 -0.544,0.76666 -0.80134,1.10666 -1.892,2.51067 -4.41066,4.66267 -7.53333,6.47067 -2.024,1.17333 -4.33067,2.13573 -6.79333,2.80667"
       style="fill:#825d4e;fill-opacity:1;fill-rule:nonzero;stroke:none;stroke-width:0.133333" />
    <path
       id="path169"
       d="m 163.59633,419.22867 c -0.0107,-0.001 -0.0213,-0.001 -0.032,-0.003 3.58134,-0.24267 10.17067,-2.26267 16.128,-6.01334 0,0 -6.25333,2.98534 -16.18133,2.98534 -0.0973,0 -0.19467,-0.001 -0.29333,-0.001 v -69.04266 c 1.35466,0.284 2.8,0.51467 4.344,0.68133 v 0 0 c 0,0 -4.396,-5.18133 -3.652,-7.29466 0,0 13.66,14.704 24.68133,17.604 v -5.896 c 0,0 3.192,8.30266 5.71333,12.104 l -2.52266,25.63333 2.552,-1.656 c -0.74,2.97733 -1.60934,6.332 -2.62134,10.30133 -1.70933,6.68933 -7.16,11.77467 -13.008,15.22267 -0.12,0.0693 -0.23866,0.14 -0.35866,0.208 -5.57734,3.216 -11.45467,4.948 -14.74934,5.16666 m 30.82267,-31.244 0.22667,-1.36133 c 0.0373,-0.004 0.0747,-0.008 0.11066,-0.0133 -0.10933,0.45066 -0.22133,0.90666 -0.33733,1.37466"
       style="fill:#9a705e;fill-opacity:1;fill-rule:nonzero;stroke:none;stroke-width:0.133333" />
    <path
       id="path170"
       d="m 163.535,419.22867 c -0.10267,-0.007 -0.208,-0.016 -0.31733,-0.0253 v -3.00667 c 0.0987,0 0.196,10e-4 0.29333,10e-4 9.928,0 16.18133,-2.98534 16.18133,-2.98534 -5.95733,3.75067 -12.54666,5.77067 -16.128,6.01334 -0.009,10e-4 -0.02,10e-4 -0.0293,0.003"
       style="fill:#1a0d08;fill-opacity:1;fill-rule:nonzero;stroke:none;stroke-width:0.133333" />
    <path
       id="path171"
       d="m 194.64567,386.62334 2.82533,-17.016 c 0.23333,-0.51066 0.44667,-1.05333 0.644,-1.62533 0.20533,-0.0267 0.412,-0.04 0.61867,-0.04 1.29466,0 2.564,0.572 3.304,2.40267 0,0 -1.05334,15.464 -7.28134,16.26533 -0.036,0.005 -0.0733,0.009 -0.11066,0.0133"
       style="fill:#9a705e;fill-opacity:1;fill-rule:nonzero;stroke:none;stroke-width:0.133333" />
    <path
       id="path172"
       d="m 169.86167,465.73814 -3.264,-16.54267 h -3.38 3.5 l 5.27733,-5.94013 1.416,2.13333 12.44267,-7.488 -15.992,27.83747"
       style="fill:#a7a5a6;fill-opacity:1;fill-rule:nonzero;stroke:none;stroke-width:0.133333" />
    <path
       id="path173"
       d="m 166.71767,449.19547 0.844,-0.95106 c -0.184,-0.17294 -0.364,-0.34894 -0.53467,-0.5276 -1.60933,-1.6932 -2.88533,-3.69747 -3.80933,-5.86827 v -11.80773 l 8.77733,13.21453 -5.27733,5.94013 m -3.5,-19.43493 v -0.44947 h 0.028 0.832 l -0.86,0.44947"
       style="fill:#57151c;fill-opacity:1;fill-rule:nonzero;stroke:none;stroke-width:0.133333" />
    <path
       id="path174"
       d="m 166.71767,449.19547 h -3.5 v -7.34693 c 0.924,2.1708 2.2,4.17507 3.80933,5.86827 0.17067,0.17866 0.35067,0.35466 0.53467,0.5276 l -0.844,0.95106"
       style="fill:#440f14;fill-opacity:1;fill-rule:nonzero;stroke:none;stroke-width:0.133333" />
    <path
       id="path175"
       d="m 189.46567,431.61267 -10.71067,-9.96533 -0.0507,0.0267 0.0507,-0.0267 10.71733,9.95333 -0.007,0.012"
       style="fill:#334909;fill-opacity:1;fill-rule:nonzero;stroke:none;stroke-width:0.133333" />
    <path
       id="path176"
       d="m 173.411,445.38867 -1.416,-2.13333 0.82533,-0.9292 0.77867,0.99853 13.69467,-7.9292 -1.44,2.5052 -12.44267,7.488"
       style="fill:#7f7d7e;fill-opacity:1;fill-rule:nonzero;stroke:none;stroke-width:0.133333" />
    <path
       id="path177"
       d="m 171.995,443.25534 -8.77733,-13.21453 v -0.0308 l 9.60266,12.31613 -0.82533,0.9292"
       style="fill:#440f14;fill-opacity:1;fill-rule:nonzero;stroke:none;stroke-width:0.133333" />
    <path
       id="path178"
       d="m 173.599,443.32467 -0.77867,-0.99853 -9.60266,-12.31613 v -0.24947 l 15.48666,-8.08653 0.0507,-0.0267 10.71067,9.96533 -2.172,3.7828 -13.69467,7.9292"
       style="fill:#a7a5a6;fill-opacity:1;fill-rule:nonzero;stroke:none;stroke-width:0.133333" />
    <path
       id="path179"
       d="m 244.56567,478.70227 h -70.956 l 28.59733,-33.83493 -4.936,-5.61467 7.996,-3.51453 -15.59867,-4.47867 -26.45066,46.18494 v -0.14374 l 6.644,-11.56253 15.992,-27.83747 1.44,-2.5052 2.172,-3.7828 0.007,-0.012 0.196,-0.3412 31.34134,8.99427 c 0,0 14.34266,2.19747 18.004,15.0844 l 6.116,22.78387 c -0.188,0.1948 -0.37467,0.3864 -0.564,0.58026"
       style="fill:#121214;fill-opacity:1;fill-rule:nonzero;stroke:none;stroke-width:0.133333" />
    <path
       id="path180"
       d="m 163.21767,477.30067 v -28.1052 h 3.38 l 3.264,16.54267 -6.644,11.56253"
       style="fill:#57151c;fill-opacity:1;fill-rule:nonzero;stroke:none;stroke-width:0.133333" />
    <path
       id="path181"
       d="m 173.60967,478.70227 h -10.392 v -1.25786 l 26.45066,-46.18494 15.59867,4.47867 -7.996,3.51453 4.936,5.61467 -28.59733,33.83493"
       style="fill:#0b0a0b;fill-opacity:1;fill-rule:nonzero;stroke:none;stroke-width:0.133333" />
    <path
       id="path182"
       d="m 191.78167,389.98601 2.52266,-25.63333 c -2.52133,-3.80134 -5.71333,-12.104 -5.71333,-12.104 v 5.896 c -11.02133,-2.9 -24.68133,-17.604 -24.68133,-17.604 -0.744,2.11333 3.652,7.29466 3.652,7.29466 -1.544,-0.16666 -2.98934,-0.39733 -4.344,-0.68133 v -17.95733 c 0.13466,-0.004 0.268,-0.012 0.40266,-0.0267 -0.0627,-0.61733 -0.224,-1.38933 -0.40266,-2.15067 v -1.532 c 2.97466,0.12934 7.39066,3.67467 9.56,5.352 0.084,-1.436 -0.068,-2.91866 0.21733,-4.34 4.188,1.59067 7.552,4.81867 11.32533,7.112 0.12534,-1.29066 -0.344,-2.472 -0.30133,-3.73066 4.408,2.144 6.85867,7.584 9.97333,11.152 0.0267,-1.03334 -0.816,-1.81867 -0.78666,-2.83734 0.79866,1.064 1.548,2.24534 2.36666,3.33334 v 0 0 c -1.296,-1.73734 -2.35333,-3.976 -3.284,-6.15067 0.13867,0.184 0.272,0.368 0.39867,0.55333 -0.51067,-0.96933 -0.944,-1.956 -1.40267,-2.95866 0.32,0.772 0.65334,1.584 1.004,2.40533 -1.81333,-2.41067 -4.516,-4.78533 -5.26666,-7.70667 -0.204,0.55867 0.0453,1.20267 0.42133,1.74134 -1.55333,-1.88667 -4.40133,-4.44 -6.47733,-5.21334 0.12933,1.09867 1.29733,1.82534 1.49733,2.90667 -1.684,-0.95333 -3.50133,-3.17333 -5.38933,-3.49733 0.10666,0.28533 0.009,0.84533 0.12933,1.14666 -0.176,0.032 -0.356,0.0467 -0.53867,0.0467 -2.02933,0 -4.41066,-1.80133 -6.036,-2.72 -0.0387,0.70667 0.32267,1.33333 0.456,1.99867 -1.61466,-0.40534 -3.23866,-1.77867 -4.91466,-1.99867 -0.19867,0.52667 -0.18934,1.12133 0.008,1.66133 -0.12267,0.005 -0.24534,0.008 -0.36667,0.008 -0.86933,0 -1.73333,-0.128 -2.59333,-0.272 v -6.948 c 0.252,-0.003 0.51466,-0.004 0.788,-0.004 9.56133,0 32.31733,1.82267 35.34533,18.91734 0,0 2.54267,21.57066 -1.236,32.53733 -0.19733,0.572 -0.41067,1.11467 -0.644,1.62533 l -2.82533,17.016 -0.22667,1.36133 -0.0533,0.324 -0.032,0.0213 -2.552,1.656"
       style="fill:#1a0d08;fill-opacity:1;fill-rule:nonzero;stroke:none;stroke-width:0.133333" />
    <path
       id="path183"
       d="m 195.57233,341.52868 c -0.81866,-1.088 -1.568,-2.26934 -2.36666,-3.33334 -0.0293,1.01867 0.81333,1.804 0.78666,2.83734 -3.11466,-3.568 -5.56533,-9.008 -9.97333,-11.152 -0.0427,1.25866 0.42667,2.44 0.30133,3.73066 -3.77333,-2.29333 -7.13733,-5.52133 -11.32533,-7.112 -0.28533,1.42134 -0.13333,2.904 -0.21733,4.34 -2.16934,-1.67733 -6.58534,-5.22266 -9.56,-5.352 v -2.008 c 0.86,0.144 1.724,0.272 2.59333,0.272 0.12133,0 0.244,-0.003 0.36667,-0.008 -0.19734,-0.54 -0.20667,-1.13466 -0.008,-1.66133 1.676,0.22 3.3,1.59333 4.91466,1.99867 -0.13333,-0.66534 -0.49466,-1.292 -0.456,-1.99867 1.62534,0.91867 4.00667,2.72 6.036,2.72 0.18267,0 0.36267,-0.0147 0.53867,-0.0467 -0.12,-0.30133 -0.0227,-0.86133 -0.12933,-1.14666 1.888,0.324 3.70533,2.544 5.38933,3.49733 -0.2,-1.08133 -1.368,-1.808 -1.49733,-2.90667 2.076,0.77334 4.924,3.32667 6.47733,5.21334 -0.376,-0.53867 -0.62533,-1.18267 -0.42133,-1.74134 0.75066,2.92134 3.45333,5.296 5.26666,7.70667 0.93067,2.17467 1.988,4.41333 3.284,6.15067 m -7.80666,-11.71067 v 0 0 m 4.92133,6.11333 c -0.12667,-0.18533 -0.26,-0.36933 -0.39867,-0.55333 -0.35066,-0.82133 -0.684,-1.63333 -1.004,-2.40533 0.45867,1.00266 0.892,1.98933 1.40267,2.95866 m -29.46933,-6.73466 v -2.17734 c 0.17866,0.76134 0.34,1.53334 0.40266,2.15067 -0.13466,0.0147 -0.268,0.0227 -0.40266,0.0267"
       style="fill:#24140d;fill-opacity:1;fill-rule:nonzero;stroke:none;stroke-width:0.133333" />
    <path
       id="path167"
       d="m 164.07767,429.31107 h -0.86 v -4.86506 c 2.46266,-0.67094 4.76933,-1.63334 6.79333,-2.80667 3.12267,-1.808 5.64133,-3.96 7.53333,-6.47067 0.25734,-0.34 0.532,-0.712 0.80134,-1.10666 0.12,-0.068 0.23866,-0.13867 0.35866,-0.208 v 7.82 l -14.62666,7.63706"
       style="fill:#9a705e;fill-opacity:1;fill-rule:nonzero;stroke:none;stroke-width:0.133333" />
  </g>
</svg>
