<?xml version="1.0" encoding="UTF-8" standalone="no"?>
<!-- Created with Inkscape (http://www.inkscape.org/) -->

<svg
   sodipodi:docname="LogoPositivoColor.svg"
   xml:space="preserve"
   id="svg5"
   version="1.1"
   viewBox="0 0 84.553856 20.782341"
   height="20.782341mm"
   width="84.553856mm"
   inkscape:version="1.3.2 (091e20e, 2023-11-25, custom)"
   xmlns:inkscape="http://www.inkscape.org/namespaces/inkscape"
   xmlns:sodipodi="http://sodipodi.sourceforge.net/DTD/sodipodi-0.dtd"
   xmlns="http://www.w3.org/2000/svg"
   xmlns:svg="http://www.w3.org/2000/svg"><sodipodi:namedview
     id="namedview7"
     pagecolor="#000000"
     bordercolor="#000000"
     borderopacity="0.54509804"
     inkscape:showpageshadow="2"
     inkscape:pageopacity="0.0"
     inkscape:pagecheckerboard="true"
     inkscape:deskcolor="#d1d1d1"
     inkscape:document-units="mm"
     showgrid="false"
     inkscape:zoom="2.0000001"
     inkscape:cx="150.25"
     inkscape:cy="46.749999"
     inkscape:window-width="1920"
     inkscape:window-height="991"
     inkscape:window-x="-9"
     inkscape:window-y="-9"
     inkscape:window-maximized="1"
     inkscape:current-layer="svg5"
     shape-rendering="auto"><inkscape:grid
       type="xygrid"
       id="grid65304"
       units="cm"
       dotted="false"
       originx="-370.48372"
       originy="-146.83068"
       spacingy="1"
       spacingx="1"
       visible="false" /><inkscape:page
       x="-2.2495292e-06"
       y="-4.1547696e-06"
       width="84.553848"
       height="20.782339"
       id="page1"
       margin="0"
       bleed="0" /></sodipodi:namedview><defs
     id="defs2" /><g
     inkscape:groupmode="layer"
     id="layer2"
     inkscape:label="NombreEmpresa"
     style="display:inline"
     transform="translate(-370.48375,-146.83068)" /><g
     inkscape:groupmode="layer"
     id="layer3"
     inkscape:label="Cuadricula"
     style="display:none"
     sodipodi:insensitive="true"
     transform="translate(-370.48375,-146.83068)"><path
       style="fill:#ca1825;fill-opacity:1;stroke:#888888;stroke-width:0.08;stroke-dasharray:0.319997, 0.319997;stroke-dashoffset:0;stroke-opacity:1"
       d="m 368.28038,148.16519 h 91.24498"
       id="path65910"
       class="UnoptimicedTransforms"
       inkscape:export-filename="path65910.png"
       inkscape:export-xdpi="400"
       inkscape:export-ydpi="400" /><path
       style="fill:#ca1825;fill-opacity:1;stroke:#888888;stroke-width:0.08;stroke-dasharray:0.319997, 0.319997;stroke-dashoffset:0;stroke-opacity:1"
       d="m 368.28037,146.84 h 91.24498"
       id="path65996" /><path
       style="fill:#ca1825;fill-opacity:1;stroke:#888888;stroke-width:0.08;stroke-dasharray:0.319997, 0.319997;stroke-dashoffset:0;stroke-opacity:1"
       d="m 368.28038,159.9 h 91.24498"
       id="path65998" /><path
       style="fill:#ca1825;fill-opacity:1;stroke:#888888;stroke-width:0.08;stroke-dasharray:0.319997, 0.319997;stroke-dashoffset:0;stroke-opacity:1"
       d="m 368.28038,166.64 h 91.24498"
       id="path66000" /><path
       style="fill:#ca1825;fill-opacity:1;stroke:#888888;stroke-width:0.08;stroke-dasharray:0.319997, 0.319997;stroke-dashoffset:0;stroke-opacity:1"
       d="m 368.28038,162.25291 h 91.24498"
       id="path66002" /><path
       style="fill:#ca1825;fill-opacity:1;stroke:#888888;stroke-width:0.08;stroke-dasharray:0.319997, 0.319997;stroke-dashoffset:0;stroke-opacity:1"
       d="m 368.28038,148.16519 h 91.24498"
       id="path70268"
       class="UnoptimicedTransforms"
       transform="translate(0,0.26481)" /><path
       style="fill:#ca1825;fill-opacity:1;stroke:#888888;stroke-width:0.08;stroke-dasharray:0.319997, 0.319997;stroke-dashoffset:0;stroke-opacity:1"
       d="m 368.28038,159.65 h 91.24498"
       id="path70270" /><path
       style="fill:#ca1825;fill-opacity:1;stroke:#888888;stroke-width:0.08;stroke-dasharray:0.319997, 0.319997;stroke-dashoffset:0;stroke-opacity:1"
       d="m 368.28038,163.511 h 91.24498"
       id="path70272" /><path
       style="fill:#ca1825;fill-opacity:1;stroke:#888888;stroke-width:0.08;stroke-dasharray:0.319997, 0.319997;stroke-dashoffset:0;stroke-opacity:1"
       d="m 368.28038,167.54 h 91.24498"
       id="path70274" /></g><g
     inkscape:groupmode="layer"
     id="layer7"
     inkscape:label="AreaProteccion"
     style="display:none"
     sodipodi:insensitive="true"
     transform="translate(-370.48375,-146.83068)"><rect
       style="fill:none;fill-opacity:1;stroke:#666666;stroke-width:0.0778997;stroke-dasharray:none;stroke-dashoffset:0;stroke-opacity:1"
       id="rect124921"
       width="84.648827"
       height="20.716547"
       x="370.43558"
       y="146.83443" /><rect
       style="fill:none;fill-opacity:1;stroke:#666666;stroke-width:0.0900463;stroke-dasharray:none;stroke-dashoffset:0;stroke-opacity:1"
       id="rect126281"
       width="89.994492"
       height="26.036427"
       x="367.72964"
       y="144.17448" /><path
       style="fill:none;fill-opacity:1;stroke:#666666;stroke-width:0.0799999;stroke-dasharray:none;stroke-dashoffset:0;stroke-opacity:1"
       d="m 455.08148,170.2273 -0.0116,-2.71279 2.6543,-0.0117"
       id="path126343" /></g><g
     transform="matrix(0.26458333,0,0,0.26458333,-101.64767,-63.634248)"
     id="g27"
     inkscape:label="Isologo"
     inkscape:export-filename="g41.png"
     inkscape:export-xdpi="54.072048"
     inkscape:export-ydpi="54.072048"
     class="UnoptimicedTransforms"><g
       inkscape:groupmode="layer"
       id="layer5"
       inkscape:label="IsotipoTono2"
       transform="matrix(3.73571,0,0,3.73571,125.86456,-245.38216)"
       inkscape:highlight-color="#921e1e"><path
         d="m 588,289 c 5.529,-11.424 22.788,-24.059 43,-21.717 -20.411,1.118 -33.051,13.334 -37.456,21.717 z"
         fill="#ffffff"
         fill-rule="evenodd"
         id="path13"
         style="fill:#333333"
         transform="matrix(0.26458333,0,0,0.26458333,-31.901609,66.582433)"
         inkscape:label="OblicuaInferior" /><rect
         x="609"
         y="255"
         width="5"
         height="11"
         fill="#ffffff"
         id="rect19"
         style="fill:#333333"
         transform="matrix(0.26458333,0,0,0.26458333,-31.901609,66.582433)"
         inkscape:label="Barras3" /><rect
         x="602"
         y="258"
         width="5"
         height="10"
         fill="#ffffff"
         id="rect17"
         style="fill:#333333"
         transform="matrix(0.26458333,0,0,0.26458333,-31.901609,66.582433)"
         inkscape:label="Barras2" /><rect
         x="595"
         y="261"
         width="5"
         height="10"
         fill="#ffffff"
         id="rect15"
         style="fill:#333333"
         transform="matrix(0.26458333,0,0,0.26458333,-31.901609,66.582433)"
         inkscape:label="Barras1" /><path
         d="m 631,267 -3.44,1.108 -0.093,0.529 c -0.155,0.665 -0.348,1.319 -0.575,1.958 l -0.361,0.864 3.336,3.504 -0.675,1.225 c -0.431,0.694 -0.899,1.368 -1.401,2.019 l -0.211,0.246 -5.138,-0.776 -1.34,1.29 -1.474,1.172 0.887,4.496 -0.282,0.184 c -0.744,0.44 -1.514,0.849 -2.307,1.226 l -1.4,0.591 -4.005,-2.919 -0.987,0.316 c -0.731,0.199 -1.478,0.367 -2.238,0.503 l -0.605,0.081 -1.801,4.281 -2.3,0.102 -2.3,-0.102 -1.801,-4.281 -0.605,-0.081 c -0.76,-0.136 -1.507,-0.304 -2.238,-0.503 l -0.646,-0.207 1.287,-1.517 0.227,-0.239 0.824,0.352 c 1.588,0.572 3.357,0.901 5.308,0.949 8.454,0.21 13.503,-5.534 15.099,-13.32 l 0.188,-1.121 0.739,-0.231 c 2.228,-0.611 4.581,-1.088 7.058,-1.402 z"
         fill="#ffffff"
         fill-rule="evenodd"
         id="path23"
         style="fill:#333333"
         transform="matrix(0.26458333,0,0,0.26458333,-31.901609,66.582433)"
         inkscape:label="RuedaInferior" /></g><g
       inkscape:groupmode="layer"
       id="layer6"
       inkscape:label="IsotipoTono1"
       style="fill:#ca1825"
       transform="matrix(3.73571,0,0,3.73571,125.86456,-245.38216)"
       inkscape:highlight-color="#666666"><path
         d="m 577,289 c 7.668,-16.246 26.967,-27.754 55,-24.424 -28.309,1.59 -41.202,12.502 -47.31,24.424 z"
         fill="#921e1e"
         fill-rule="evenodd"
         id="path25"
         transform="matrix(0.26458333,0,0,0.26458333,-31.901609,66.582433)"
         inkscape:label="OblicuaSuperior"
         style="fill:#ca1825;fill-opacity:1" /><path
         d="m 605.002,240 2.303,0.103 1.802,4.347 0.606,0.082 c 0.76,0.138 1.508,0.309 2.239,0.511 l 0.988,0.321 4.008,-2.964 1.402,0.6 c 0.794,0.382 1.564,0.798 2.309,1.245 l 0.282,0.187 -0.888,4.564 1.475,1.19 1.341,1.309 5.143,-0.788 0.211,0.251 c 0.503,0.661 0.971,1.345 1.402,2.049 l 0.676,1.244 -3.339,3.558 0.361,0.876 c 0.228,0.65 0.42,1.313 0.576,1.988 l 0.092,0.538 4.898,1.599 0.111,1.958 -5.13,-0.454 c -1.712,-0.097 -3.388,-0.137 -5.028,-0.123 l -2.13,0.09 -0.042,-1.536 c -0.538,-9.694 -5.169,-17.066 -15.611,-17.311 -11.138,-0.262 -15.666,8.632 -15.666,19.28 0,2.661 0.329,5.181 0.984,7.467 l 0.476,1.439 -0.07,0.046 c -2.032,1.443 -3.896,3.022 -5.588,4.718 l -0.133,0.146 -3.069,0.47 -0.211,-0.25 c -0.503,-0.661 -0.971,-1.345 -1.402,-2.05 l -0.676,-1.244 3.339,-3.558 -0.361,-0.876 c -0.228,-0.649 -0.42,-1.313 -0.576,-1.988 l -0.092,-0.537 -4.898,-1.6 -0.116,-2.043 0.116,-2.044 4.898,-1.599 0.092,-0.538 c 0.156,-0.675 0.348,-1.338 0.576,-1.988 l 0.361,-0.876 -3.339,-3.558 0.676,-1.244 c 0.431,-0.704 0.899,-1.388 1.402,-2.049 l 0.211,-0.251 5.143,0.788 1.341,-1.309 1.475,-1.19 -0.888,-4.564 0.282,-0.187 c 0.745,-0.447 1.515,-0.863 2.309,-1.245 l 1.402,-0.6 4.008,2.964 0.988,-0.321 c 0.731,-0.202 1.479,-0.373 2.239,-0.511 l 0.606,-0.082 1.802,-4.347 z"
         fill="#921e1e"
         fill-rule="evenodd"
         id="path21"
         transform="matrix(0.26458333,0,0,0.26458333,-31.901609,66.582433)"
         inkscape:label="RuedaSuperior"
         style="fill:#ca1825;fill-opacity:1" /></g><g
       inkscape:groupmode="layer"
       id="layer4"
       inkscape:label="IsologoTexto"
       transform="matrix(3.7795276,0,0,3.7795276,120.57302,-251.65014)"><path
         d="m 139.16446,143.04701 h -1.58749 v -11.21169 h 1.58749 z m 3.89433,-11.20343 1.5875,-0.008 4.06796,8.77257 4.00181,-8.77257 h 1.5875 v 11.21169 h -1.5875 v -9.43403 l -4.32427,9.43403 h -0.27285 l -4.33255,-9.43403 v 9.43403 h -0.7276 z"
         id="text11"
         style="fill:#333333;stroke-width:0.264583"
         inkscape:label="IM"
         aria-label="IM" /><path
         d="m 29.34375,-30.5625 h -1.875 q -1.21875,-6.71875 -4.5,-8.625 -3.25,-1.9375 -6.53125,-1.75 -2.875,0.09375 -5.09375,1.84375 -2.375,1.90625 -2.375,4.75 0,1.90625 1.34375,3.53125 1.96875,2.34375 9.21875,6.25 5.03125,2.6875 6.4375,3.65625 3.59375,2.4375 5.03125,5.25 1.15625,2.3125 1.15625,4.84375 0,5.28125 -4.09375,8.65625 -3.84375,3.125 -9.25,3.125 -1.8125,0 -3.34375,-0.21875 -2,-0.21875 -4.3125,-1.28125 Q 8.875,-1.625 6.625,-4.84375 q -2.25,-3.25 -2.25,-8.875 H 6.25 q 0.03125,4.25 1.15625,6.34375 1.46875,2.78125 4.5625,4.40625 2.8125,1.5 6.1875,1.5 3.375,0 5.78125,-1.75 2.65625,-1.90625 2.65625,-5.1875 0,-3.4375 -3.53125,-6.125 Q 20.90625,-16.1875 15.90625,-18.875 10.9375,-21.59375 8.6875,-23.375 4,-27.0625 4,-32.1875 q 0,-4.9375 3.78125,-8.125 3.59375,-3.03125 8.625,-3.03125 5.75,0.34375 8.09375,2.25 2.34375,1.875 3.34375,4.1875 1.3125,3.0625 1.5,6.34375 z M 69.5625,0 H 42.90625 l 0.03125,-42.375 h 26.625 v 2.3125 H 48.96875 v 16.75 h 17.1875 v 2.28125 H 48.96875 V -7.0625 q 0,2.1875 0.03125,2.40625 0.1875,1.46875 1.09375,1.96875 0.625,0.375 2.375,0.375 H 69.5625 Z M 106.625,0 92.28125,-19.8125 q -1.59375,0.0625 -2.59375,0.0625 -0.84375,0 -1.84375,-0.0625 V 0 H 81.875 v -42.0625 l 9.34375,-0.3125 q 6.09375,-0.21875 9.96875,0.96875 3.375,1.0625 5.5,3.75 2.15625,2.6875 2.15625,6.1875 0,8.53125 -10.4375,10.84375 L 113.34375,0 Z M 87.84375,-21.78125 q 0.28125,0 0.875,0 0.59375,0.03125 0.875,0.03125 5.09375,0 8.34375,-2.0625 3.875,-2.4375 3.875,-7.25 0,-4.03125 -2.5,-6.46875 Q 96.8125,-40 92.75,-40 q -1.8125,0 -4.90625,0.59375 z m 36.65625,-20.25 9.46875,-0.34375 q 5.15625,-0.1875 8.96875,1.15625 3.5,1.25 5.625,4.09375 2.15625,2.84375 2.15625,6.46875 0,5.65625 -3.78125,8.78125 -3.53125,2.90625 -9.3125,2.90625 -3.0625,0 -7.125,-0.875 V 0 h -5.96875 z m 6,20.40625 q 3.3125,0.625 5.125,0.625 3.59375,0 5.84375,-2.78125 2.125,-2.59375 2.125,-6.25 0,-6.1875 -4.3125,-8.65625 -2.0625,-1.15625 -4.6875,-1.15625 -1.59375,0 -4.09375,0.59375 z M 184.90625,0 170.5625,-19.8125 q -1.59375,0.0625 -2.59375,0.0625 -0.84375,0 -1.84375,-0.0625 V 0 h -5.96875 V -42.0625 L 169.5,-42.375 q 6.09375,-0.21875 9.96875,0.96875 3.375,1.0625 5.5,3.75 2.15625,2.6875 2.15625,6.1875 0,8.53125 -10.4375,10.84375 L 191.625,0 Z M 166.125,-21.78125 q 0.28125,0 0.875,0 0.59375,0.03125 0.875,0.03125 5.09375,0 8.34375,-2.0625 3.875,-2.4375 3.875,-7.25 0,-4.03125 -2.5,-6.46875 -2.5,-2.46875 -6.5625,-2.46875 -1.8125,0 -4.90625,0.59375 z"
         id="text9"
         style="fill:#333333"
         inkscape:label="SERPR"
         transform="matrix(0.26458333,0,0,0.26458333,68.691384,143.04701)"
         aria-label="SERPR" /></g></g><path
     d="M 1.8976388,20.220125 0.7798974,18.891489 Q 0.71662902,18.821191 0.6744501,18.722773 0.56900281,18.525938 0.56900281,18.300984 v -0.316342 q 0,-0.37961 0.26713315,-0.646743 0.26713314,-0.267133 0.64674344,-0.267133 0.3796103,0 0.6467434,0.267133 0.2671332,0.267133 0.2671332,0.646743 v 0.590505 l -0.3655506,0.04218 v -0.632684 q 0,-0.224954 -0.1616859,-0.38664 -0.1616859,-0.161686 -0.3866401,-0.161686 -0.2249542,0 -0.3866401,0.161686 -0.16168586,0.161686 -0.16168586,0.38664 v 0.316342 q 0,0.140597 0.0632684,0.253074 l 0.0632684,0.09842 1.1177414,1.328636 0.1054473,0.175746 q 0.1124771,0.210894 0.1124771,0.428819 v 0.456938 q 0,0.37961 -0.2671332,0.646743 -0.2671331,0.267134 -0.6467434,0.267134 -0.3796103,0 -0.64674344,-0.267134 -0.26713315,-0.267133 -0.26713315,-0.646743 v -0.695952 l 0.36555063,-0.04218 v 0.738131 q 0,0.224954 0.16168586,0.38664 0.1616859,0.161686 0.3866401,0.161686 0.2249542,0 0.3866401,-0.161686 0.1616859,-0.161686 0.1616859,-0.38664 v -0.456938 q 0,-0.133567 -0.070298,-0.260104 z m 2.1511186,0.534266 0.3655507,-0.04218 v 0.449909 q 0,0.316342 -0.2249543,0.541296 -0.2179244,0.217924 -0.5342663,0.217924 -0.3163419,0 -0.5412961,-0.217924 Q 2.895867,21.478463 2.895867,21.162121 v -1.982409 q 0,-0.316342 0.2179244,-0.534267 0.2249542,-0.224954 0.5412961,-0.224954 0.3163419,0 0.5342663,0.224954 0.2249543,0.217925 0.2249543,0.534267 v 1.054473 H 3.2614176 v 0.927936 q 0,0.161686 0.1124771,0.281193 0.119507,0.112477 0.2811928,0.112477 0.1616859,0 0.274163,-0.112477 0.1195069,-0.119507 0.1195069,-0.281193 z M 3.2614176,19.179712 v 0.688922 h 0.7873398 v -0.688922 q 0,-0.161686 -0.1195069,-0.274163 -0.1124771,-0.119507 -0.274163,-0.119507 -0.1616858,0 -0.2811928,0.119507 -0.1124771,0.112477 -0.1124771,0.274163 z m 2.7345952,-0.759221 v 0.365551 H 5.7359095 q -0.1827753,0 -0.3022823,0.126536 -0.1195069,0.119507 -0.1195069,0.302283 v 2.671331 H 4.9485697 V 18.45564 h 0.2530735 l 0.063268,0.267133 q 0.1898051,-0.302282 0.7311012,-0.302282 z m 1.7715121,0.03515 -0.5764452,3.430552 H 6.7552308 L 6.1787856,18.45564 h 0.3655506 l 0.4217892,2.692421 h 0.01406 L 7.4019743,18.45564 Z m 0.7803057,0 v 3.430552 H 8.18228 V 18.45564 Z M 8.18228,18.06197 v -0.492087 h 0.3655506 v 0.492087 z m 2.08083,2.692421 h 0.365551 v 0.40773 q 0,0.316342 -0.224955,0.541296 -0.217924,0.217924 -0.5342659,0.217924 -0.3163419,0 -0.5412961,-0.217924 -0.2179244,-0.224954 -0.2179244,-0.541296 v -1.982409 q 0,-0.316342 0.2179244,-0.534267 0.2249542,-0.224954 0.5412961,-0.224954 0.3163419,0 0.5342659,0.224954 0.224955,0.217925 0.224955,0.534267 v 0.400699 l -0.365551,0.04218 v -0.442878 q 0,-0.161686 -0.119507,-0.274163 -0.112477,-0.119507 -0.2741629,-0.119507 -0.1616858,0 -0.2811928,0.119507 -0.1124771,0.112477 -0.1124771,0.274163 v 1.982409 q 0,0.161686 0.1124771,0.281193 0.119507,0.112477 0.2811928,0.112477 0.1616859,0 0.2741629,-0.112477 0.119507,-0.119507 0.119507,-0.281193 z m 1.244285,-2.298751 v 3.430552 H 11.141844 V 18.45564 Z m -0.365551,-0.39367 v -0.492087 h 0.365551 v 0.492087 z m 0.92794,3.100151 v -1.982409 q 0,-0.316342 0.217924,-0.534267 0.224954,-0.224954 0.541296,-0.224954 0.316342,0 0.534267,0.224954 0.224954,0.217925 0.224954,0.534267 v 1.982409 q 0,0.316342 -0.224954,0.541296 -0.217925,0.217924 -0.534267,0.217924 -0.316342,0 -0.541296,-0.217924 -0.217924,-0.224954 -0.217924,-0.541296 z m 0.36555,-1.982409 v 1.982409 q 0,0.161686 0.112478,0.281193 0.119506,0.112477 0.281192,0.112477 0.161686,0 0.274163,-0.112477 0.119507,-0.119507 0.119507,-0.281193 v -1.982409 q 0,-0.161686 -0.119507,-0.274163 -0.112477,-0.119507 -0.274163,-0.119507 -0.161686,0 -0.281192,0.119507 -0.112478,0.112477 -0.112478,0.274163 z m 2.762726,1.982409 v -0.295253 q 0,-0.105447 -0.06327,-0.217924 -0.007,-0.007 -0.02812,-0.03515 -0.01406,-0.02812 -0.02812,-0.04218 l -0.75922,-0.632684 q -0.07733,-0.06327 -0.126537,-0.147626 -0.119507,-0.196835 -0.119507,-0.428819 v -0.210895 q 0,-0.302282 0.210895,-0.513177 0.217924,-0.217924 0.520206,-0.217924 0.302283,0 0.513177,0.217924 0.217925,0.210895 0.217925,0.513177 v 0.316342 l -0.365551,0.04218 v -0.358521 q 0,-0.154656 -0.105447,-0.260103 -0.105448,-0.105447 -0.260104,-0.105447 -0.154656,0 -0.260103,0.105447 -0.105447,0.105447 -0.105447,0.260103 v 0.210895 q 0,0.126537 0.05624,0.224954 l 0.06327,0.0703 0.75922,0.632684 q 0.0703,0.0703 0.119507,0.147626 0.126537,0.210895 0.126537,0.428819 v 0.295253 q 0,0.316342 -0.224954,0.541296 -0.217925,0.217924 -0.534267,0.217924 -0.316342,0 -0.541296,-0.217924 Q 14.04517,21.478463 14.04517,21.162121 V 20.82469 l 0.36555,-0.04218 v 0.37961 q 0,0.161686 0.112477,0.281193 0.119507,0.112477 0.281193,0.112477 0.161686,0 0.274163,-0.112477 0.119507,-0.119507 0.119507,-0.281193 z m 3.114222,-2.706481 -0.681893,3.824222 q -0.05624,0.217925 -0.147626,0.372581 -0.217924,0.37258 -0.611594,0.37258 v -0.36555 q 0.217924,0 0.316342,-0.189806 0.04218,-0.05624 0.07733,-0.189805 l 0.0703,-0.39367 -0.611595,-3.430552 h 0.365551 l 0.421789,2.692421 h 0.01406 l 0.421789,-2.692421 z m 1.666073,0.998235 h 0.442878 q 0.260104,0 0.435849,-0.175746 0.182775,-0.182775 0.182775,-0.442879 v -0.710011 q 0,-0.260104 -0.182775,-0.435849 -0.175745,-0.182776 -0.435849,-0.182776 h -0.442878 z m 0.442878,0.36555 h -0.442878 v 2.066767 h -0.365551 v -4.745128 h 0.808429 q 0.40773,0 0.695952,0.288222 0.288223,0.288223 0.288223,0.695953 v 0.710011 q 0,0.40773 -0.288223,0.695953 -0.288222,0.288222 -0.695952,0.288222 z m 2.50262,-1.398934 v 0.365551 H 22.66375 q -0.182776,0 -0.302283,0.126536 -0.119506,0.119507 -0.119506,0.302283 v 2.671331 H 21.87641 V 18.45564 h 0.253073 l 0.06327,0.267133 q 0.189805,-0.302282 0.731101,-0.302282 z m 0.302281,2.74163 v -1.982409 q 0,-0.316342 0.217924,-0.534267 0.224955,-0.224954 0.541296,-0.224954 0.316342,0 0.534267,0.224954 0.224954,0.217925 0.224954,0.534267 v 1.982409 q 0,0.316342 -0.224954,0.541296 -0.217925,0.217924 -0.534267,0.217924 -0.316341,0 -0.541296,-0.217924 -0.217924,-0.224954 -0.217924,-0.541296 z m 0.365551,-1.982409 v 1.982409 q 0,0.161686 0.112477,0.281193 0.119507,0.112477 0.281192,0.112477 0.161686,0 0.274163,-0.112477 0.119507,-0.119507 0.119507,-0.281193 v -1.982409 q 0,-0.161686 -0.119507,-0.274163 -0.112477,-0.119507 -0.274163,-0.119507 -0.161685,0 -0.281192,0.119507 -0.112477,0.112477 -0.112477,0.274163 z m 3.0861,-0.724072 -0.681892,3.824222 q -0.05624,0.217925 -0.147627,0.372581 -0.217924,0.37258 -0.611594,0.37258 v -0.36555 q 0.217924,0 0.316342,-0.189806 0.04218,-0.05624 0.07733,-0.189805 l 0.0703,-0.39367 -0.611594,-3.430552 h 0.36555 l 0.42179,2.692421 h 0.01406 l 0.421789,-2.692421 z m 1.518441,2.298751 0.365551,-0.04218 v 0.449909 q 0,0.316342 -0.224955,0.541296 -0.217924,0.217924 -0.534266,0.217924 -0.316342,0 -0.541296,-0.217924 -0.217924,-0.224954 -0.217924,-0.541296 v -1.982409 q 0,-0.316342 0.217924,-0.534267 0.224954,-0.224954 0.541296,-0.224954 0.316342,0 0.534266,0.224954 0.224955,0.217925 0.224955,0.534267 v 1.054473 h -1.152891 v 0.927936 q 0,0.161686 0.112477,0.281193 0.119507,0.112477 0.281193,0.112477 0.161686,0 0.274163,-0.112477 0.119507,-0.119507 0.119507,-0.281193 z m -0.78734,-1.574679 v 0.688922 h 0.78734 v -0.688922 q 0,-0.161686 -0.119507,-0.274163 -0.112477,-0.119507 -0.274163,-0.119507 -0.161686,0 -0.281193,0.119507 -0.112477,0.112477 -0.112477,0.274163 z m 2.797863,1.574679 h 0.36555 v 0.40773 q 0,0.316342 -0.224954,0.541296 -0.217924,0.217924 -0.534266,0.217924 -0.316342,0 -0.541296,-0.217924 -0.217925,-0.224954 -0.217925,-0.541296 v -1.982409 q 0,-0.316342 0.217925,-0.534267 0.224954,-0.224954 0.541296,-0.224954 0.316342,0 0.534266,0.224954 0.224954,0.217925 0.224954,0.534267 v 0.400699 l -0.36555,0.04218 v -0.442878 q 0,-0.161686 -0.119507,-0.274163 -0.112477,-0.119507 -0.274163,-0.119507 -0.161686,0 -0.281193,0.119507 -0.112477,0.112477 -0.112477,0.274163 v 1.982409 q 0,0.161686 0.112477,0.281193 0.119507,0.112477 0.281193,0.112477 0.161686,0 0.274163,-0.112477 0.119507,-0.119507 0.119507,-0.281193 z m 0.660811,-1.9332 V 18.45564 h 0.442878 v -0.660803 l 0.365551,-0.04218 v 0.702982 h 0.442878 v 0.365551 h -0.442878 v 2.594003 q 0,0.05624 0.04218,0.09842 0.04218,0.04218 0.09842,0.04218 v 0.36555 q -0.210894,0 -0.358521,-0.147626 -0.147626,-0.147626 -0.147626,-0.358521 v -2.594003 z m 1.581699,2.34093 v -1.982409 q 0,-0.316342 0.217925,-0.534267 0.224954,-0.224954 0.541296,-0.224954 0.316342,0 0.534266,0.224954 0.224954,0.217925 0.224954,0.534267 v 1.982409 q 0,0.316342 -0.224954,0.541296 -0.217924,0.217924 -0.534266,0.217924 -0.316342,0 -0.541296,-0.217924 -0.217925,-0.224954 -0.217925,-0.541296 z m 0.365551,-1.982409 v 1.982409 q 0,0.161686 0.112477,0.281193 0.119507,0.112477 0.281193,0.112477 0.161686,0 0.274163,-0.112477 0.119507,-0.119507 0.119507,-0.281193 v -1.982409 q 0,-0.161686 -0.119507,-0.274163 -0.112477,-0.119507 -0.274163,-0.119507 -0.161686,0 -0.281193,0.119507 -0.112477,0.112477 -0.112477,0.274163 z m 2.762728,1.982409 v -0.295253 q 0,-0.105447 -0.06327,-0.217924 -0.007,-0.007 -0.02812,-0.03515 -0.01406,-0.02812 -0.02812,-0.04218 L 34.69881,19.938932 q -0.07733,-0.06327 -0.126537,-0.147626 -0.119507,-0.196835 -0.119507,-0.428819 v -0.210895 q 0,-0.302282 0.210895,-0.513177 0.217925,-0.217924 0.520207,-0.217924 0.302282,0 0.513177,0.217924 0.217924,0.210895 0.217924,0.513177 v 0.316342 l -0.365551,0.04218 v -0.358521 q 0,-0.154656 -0.105447,-0.260103 -0.105447,-0.105447 -0.260103,-0.105447 -0.154656,0 -0.260104,0.105447 -0.105447,0.105447 -0.105447,0.260103 v 0.210895 q 0,0.126537 0.05624,0.224954 l 0.06327,0.0703 0.759221,0.632684 q 0.0703,0.0703 0.119507,0.147626 0.126536,0.210895 0.126536,0.428819 v 0.295253 q 0,0.316342 -0.224954,0.541296 -0.217924,0.217924 -0.534266,0.217924 -0.316342,0 -0.541296,-0.217924 -0.217925,-0.224954 -0.217925,-0.541296 V 20.82469 l 0.365551,-0.04218 v 0.37961 q 0,0.161686 0.112477,0.281193 0.119507,0.112477 0.281193,0.112477 0.161686,0 0.274163,-0.112477 0.119507,-0.119507 0.119507,-0.281193 z m 3.289959,-4.021057 v 4.745128 h -0.253074 l -0.06327,-0.267133 q -0.189805,0.302282 -0.534267,0.302282 -0.274163,0 -0.470998,-0.217924 -0.196835,-0.224954 -0.196835,-0.541296 v -1.982409 q 0,-0.316342 0.196835,-0.534267 0.196835,-0.224954 0.470998,-0.224954 0.288223,0 0.485058,0.239014 v -1.476262 z m -0.365551,4.021057 v -1.982409 q 0,-0.161686 -0.119507,-0.274163 -0.112477,-0.119507 -0.274163,-0.119507 -0.161686,0 -0.281193,0.119507 -0.112477,0.112477 -0.112477,0.274163 v 1.982409 q 0,0.161686 0.112477,0.281193 0.119507,0.112477 0.281193,0.112477 0.161686,0 0.274163,-0.112477 0.119507,-0.119507 0.119507,-0.281193 z m 2.080831,-0.40773 0.365551,-0.04218 v 0.449909 q 0,0.316342 -0.224955,0.541296 -0.217924,0.217924 -0.534266,0.217924 -0.316342,0 -0.541296,-0.217924 -0.217925,-0.224954 -0.217925,-0.541296 v -1.982409 q 0,-0.316342 0.217925,-0.534267 0.224954,-0.224954 0.541296,-0.224954 0.316342,0 0.534266,0.224954 0.224955,0.217925 0.224955,0.534267 v 1.054473 h -1.152891 v 0.927936 q 0,0.161686 0.112477,0.281193 0.119507,0.112477 0.281193,0.112477 0.161686,0 0.274163,-0.112477 0.119507,-0.119507 0.119507,-0.281193 z m -0.78734,-1.574679 v 0.688922 h 0.78734 v -0.688922 q 0,-0.161686 -0.119507,-0.274163 -0.112477,-0.119507 -0.274163,-0.119507 -0.161686,0 -0.281193,0.119507 -0.112477,0.112477 -0.112477,0.274163 z m 3.029845,2.70648 h -0.36555 v -4.745128 h 0.36555 z m 1.019326,0 h -0.36555 V 18.45564 h 0.253073 l 0.06327,0.267133 q 0.189805,-0.302282 0.534266,-0.302282 0.274163,0 0.470998,0.224954 0.196835,0.217925 0.196835,0.534267 v 2.70648 h -0.365551 v -2.70648 q 0,-0.161686 -0.119507,-0.274163 -0.112477,-0.119507 -0.274163,-0.119507 -0.161686,0 -0.281193,0.119507 -0.112477,0.112477 -0.112477,0.274163 z m 1.673104,0.379611 v -0.323372 q 0,-0.39367 0.309312,-0.611594 -0.105448,-0.133567 -0.105448,-0.337432 0,-0.189805 0.105448,-0.330401 -0.309312,-0.231984 -0.309312,-0.618625 v -0.864667 q 0,-0.316342 0.196835,-0.534267 0.196835,-0.224954 0.470998,-0.224954 0.344461,0 0.534266,0.302282 l 0.06327,-0.267133 h 0.253074 v 1.588739 q 0,0.316342 -0.224954,0.541297 -0.217925,0.217924 -0.534267,0.217924 -0.07733,0 -0.133566,0.05624 -0.05624,0.05624 -0.05624,0.133566 0,0.07733 0.05624,0.133567 0.05624,0.05624 0.133566,0.05624 0.316342,0 0.534267,0.224955 0.224954,0.217924 0.224954,0.534266 v 0.323372 q 0,0.316341 -0.224954,0.534266 -0.217925,0.224954 -0.534267,0.224954 -0.316342,0 -0.541296,-0.224954 -0.217924,-0.217925 -0.217924,-0.534266 z m 1.15289,-2.221424 v -0.864667 q 0,-0.161686 -0.119507,-0.274163 -0.112477,-0.119507 -0.274163,-0.119507 -0.161686,0 -0.281193,0.119507 -0.112477,0.112477 -0.112477,0.274163 v 0.864667 q 0,0.161686 0.112477,0.281193 0.119507,0.112477 0.281193,0.112477 0.161686,0 0.274163,-0.112477 0.119507,-0.119507 0.119507,-0.281193 z m -0.78734,1.898052 v 0.323372 q 0,0.161685 0.112477,0.274163 0.119507,0.119507 0.281193,0.119507 0.161686,0 0.274163,-0.119507 0.119507,-0.112478 0.119507,-0.274163 v -0.323372 q 0,-0.161686 -0.119507,-0.274163 -0.112477,-0.119507 -0.274163,-0.119507 -0.161686,0 -0.281193,0.119507 -0.112477,0.112477 -0.112477,0.274163 z m 2.804896,-1.18804 0.365551,-0.04218 v 0.449909 q 0,0.316342 -0.224955,0.541296 -0.217924,0.217924 -0.534266,0.217924 -0.316342,0 -0.541296,-0.217924 -0.217925,-0.224954 -0.217925,-0.541296 v -1.982409 q 0,-0.316342 0.217925,-0.534267 0.224954,-0.224954 0.541296,-0.224954 0.316342,0 0.534266,0.224954 0.224955,0.217925 0.224955,0.534267 v 1.054473 h -1.152891 v 0.927936 q 0,0.161686 0.112477,0.281193 0.119507,0.112477 0.281193,0.112477 0.161686,0 0.274163,-0.112477 0.119507,-0.119507 0.119507,-0.281193 z m -0.78734,-1.574679 v 0.688922 h 0.78734 v -0.688922 q 0,-0.161686 -0.119507,-0.274163 -0.112477,-0.119507 -0.274163,-0.119507 -0.161686,0 -0.281193,0.119507 -0.112477,0.112477 -0.112477,0.274163 z m 2.0527,2.70648 H 49.587967 V 18.45564 h 0.253074 l 0.06327,0.267133 q 0.189805,-0.302282 0.534267,-0.302282 0.274162,0 0.470997,0.224954 0.196835,0.217925 0.196835,0.534267 v 2.70648 h -0.36555 v -2.70648 q 0,-0.161686 -0.119507,-0.274163 -0.112477,-0.119507 -0.274163,-0.119507 -0.161686,0 -0.281193,0.119507 -0.112477,0.112477 -0.112477,0.274163 z M 52.0695,18.45564 v 3.430552 H 51.703949 V 18.45564 Z M 51.703949,18.06197 V 17.569883 H 52.0695 v 0.492087 z m 2.080831,2.692421 0.365551,-0.04218 v 0.449909 q 0,0.316342 -0.224954,0.541296 -0.217925,0.217924 -0.534267,0.217924 -0.316341,0 -0.541296,-0.217924 -0.217924,-0.224954 -0.217924,-0.541296 v -1.982409 q 0,-0.316342 0.217924,-0.534267 0.224955,-0.224954 0.541296,-0.224954 0.316342,0 0.534267,0.224954 0.224954,0.217925 0.224954,0.534267 v 1.054473 h -1.15289 v 0.927936 q 0,0.161686 0.112477,0.281193 0.119507,0.112477 0.281192,0.112477 0.161686,0 0.274163,-0.112477 0.119507,-0.119507 0.119507,-0.281193 z m -0.787339,-1.574679 v 0.688922 h 0.787339 v -0.688922 q 0,-0.161686 -0.119507,-0.274163 -0.112477,-0.119507 -0.274163,-0.119507 -0.161685,0 -0.281192,0.119507 -0.112477,0.112477 -0.112477,0.274163 z m 2.734592,-0.759221 v 0.365551 H 55.47193 q -0.182776,0 -0.302283,0.126536 -0.119507,0.119507 -0.119507,0.302283 v 2.671331 H 54.68459 V 18.45564 h 0.253073 l 0.06327,0.267133 q 0.189805,-0.302282 0.731101,-0.302282 z m 0.738128,0.03515 v 3.430552 h -0.36555 V 18.45564 Z m 0.161686,-0.660803 -0.688922,0.309312 v -0.36555 l 0.688922,-0.309313 z m 0.695957,2.980644 v 0.38664 q 0,0.161686 0.112477,0.281193 0.119507,0.112477 0.281193,0.112477 0.161686,0 0.274163,-0.112477 0.119507,-0.119507 0.119507,-0.281193 v -0.998235 q -0.02812,0.02812 -0.08436,0.0703 l -0.03515,0.02109 -0.541296,0.309312 -0.06327,0.05624 q -0.06327,0.06327 -0.06327,0.154656 z m 1.15289,-1.637948 v 2.256572 q 0,0.126537 0.126537,0.126537 v 0.36555 q -0.224954,0 -0.37258,-0.161686 -0.203865,0.196835 -0.513177,0.196835 -0.316342,0 -0.541296,-0.217924 -0.217925,-0.224954 -0.217925,-0.541296 v -0.38664 q 0,-0.210895 0.154656,-0.39367 0.09842,-0.09842 0.154656,-0.133567 l 0.541296,-0.309312 q 0.09842,-0.0703 0.147627,-0.119507 0.154656,-0.154656 0.154656,-0.337431 v -0.344461 q 0,-0.147627 -0.105448,-0.246044 -0.09842,-0.105447 -0.246043,-0.105447 -0.147627,0 -0.253074,0.105447 -0.09842,0.09842 -0.09842,0.246044 v 0.407729 l -0.365551,0.04218 v -0.449908 q 0,-0.295253 0.210895,-0.506147 0.210894,-0.210895 0.506147,-0.210895 0.295252,0 0.506147,0.210895 0.210894,0.210894 0.210894,0.506147 z m 3.894525,-1.265368 -0.75922,4.014027 h -0.41476 l -0.75219,-3.978878 h -0.01406 v 3.978878 h -0.365551 v -4.745128 h 0.548326 l 0.78031,4.182743 h 0.01406 l 0.78734,-4.182743 h 0.555356 v 4.745128 h -0.365551 v -4.014027 z m 2.144097,2.882226 0.36555,-0.04218 v 0.449909 q 0,0.316342 -0.224954,0.541296 -0.217924,0.217924 -0.534266,0.217924 -0.316342,0 -0.541296,-0.217924 -0.217925,-0.224954 -0.217925,-0.541296 v -1.982409 q 0,-0.316342 0.217925,-0.534267 0.224954,-0.224954 0.541296,-0.224954 0.316342,0 0.534266,0.224954 0.224954,0.217925 0.224954,0.534267 v 1.054473 h -1.15289 v 0.927936 q 0,0.161686 0.112477,0.281193 0.119507,0.112477 0.281193,0.112477 0.161686,0 0.274163,-0.112477 0.119507,-0.119507 0.119507,-0.281193 z m -0.78734,-1.574679 v 0.688922 h 0.78734 v -0.688922 q 0,-0.161686 -0.119507,-0.274163 -0.112477,-0.119507 -0.274163,-0.119507 -0.161686,0 -0.281193,0.119507 -0.112477,0.112477 -0.112477,0.274163 z m 2.797864,1.574679 h 0.365551 v 0.40773 q 0,0.316342 -0.224954,0.541296 -0.217925,0.217924 -0.534267,0.217924 -0.316341,0 -0.541296,-0.217924 -0.217924,-0.224954 -0.217924,-0.541296 v -1.982409 q 0,-0.316342 0.217924,-0.534267 0.224955,-0.224954 0.541296,-0.224954 0.316342,0 0.534267,0.224954 0.224954,0.217925 0.224954,0.534267 v 0.400699 l -0.365551,0.04218 v -0.442878 q 0,-0.161686 -0.119507,-0.274163 -0.112477,-0.119507 -0.274163,-0.119507 -0.161685,0 -0.281192,0.119507 -0.112477,0.112477 -0.112477,0.274163 v 1.982409 q 0,0.161686 0.112477,0.281193 0.119507,0.112477 0.281192,0.112477 0.161686,0 0.274163,-0.112477 0.119507,-0.119507 0.119507,-0.281193 z m 1.131811,0.02109 v 0.38664 q 0,0.161686 0.112477,0.281193 0.119507,0.112477 0.281193,0.112477 0.161686,0 0.274163,-0.112477 0.119507,-0.119507 0.119507,-0.281193 v -0.998235 q -0.02812,0.02812 -0.08436,0.0703 l -0.03515,0.02109 -0.541296,0.309312 -0.06327,0.05624 q -0.06327,0.06327 -0.06327,0.154656 z m 1.15289,-1.637948 v 2.256572 q 0,0.126537 0.126537,0.126537 v 0.36555 q -0.224954,0 -0.37258,-0.161686 -0.203865,0.196835 -0.513177,0.196835 -0.316342,0 -0.541296,-0.217924 Q 67.2961,21.478463 67.2961,21.162121 v -0.38664 q 0,-0.210895 0.154656,-0.39367 0.09842,-0.09842 0.154656,-0.133567 l 0.541296,-0.309312 q 0.09842,-0.0703 0.147627,-0.119507 0.154656,-0.154656 0.154656,-0.337431 v -0.344461 q 0,-0.147627 -0.105448,-0.246044 -0.09842,-0.105447 -0.246043,-0.105447 -0.147627,0 -0.253074,0.105447 -0.09842,0.09842 -0.09842,0.246044 v 0.407729 l -0.365551,0.04218 v -0.449908 q 0,-0.295253 0.210895,-0.506147 0.210894,-0.210895 0.506147,-0.210895 0.295252,0 0.506147,0.210895 0.210894,0.210894 0.210894,0.506147 z m -0.37258,-1.342696 -0.688922,0.309312 v -0.36555 l 0.688922,-0.309313 z m 1.34973,4.091355 H 69.42614 V 18.45564 h 0.253074 l 0.06327,0.267133 q 0.189805,-0.302282 0.534266,-0.302282 0.274163,0 0.470998,0.224954 0.196835,0.217925 0.196835,0.534267 v 2.70648 h -0.36555 v -2.70648 q 0,-0.161686 -0.119507,-0.274163 -0.112477,-0.119507 -0.274163,-0.119507 -0.161686,0 -0.281193,0.119507 -0.112477,0.112477 -0.112477,0.274163 z m 2.115974,-3.430552 v 3.430552 h -0.36555 V 18.45564 Z m -0.36555,-0.39367 v -0.492087 h 0.36555 v 0.492087 z m 2.080834,2.692421 H 73.9885 v 0.40773 q 0,0.316342 -0.224954,0.541296 -0.217925,0.217924 -0.534266,0.217924 -0.316342,0 -0.541297,-0.217924 -0.217924,-0.224954 -0.217924,-0.541296 v -1.982409 q 0,-0.316342 0.217924,-0.534267 0.224955,-0.224954 0.541297,-0.224954 0.316341,0 0.534266,0.224954 0.224954,0.217925 0.224954,0.534267 v 0.400699 l -0.365551,0.04218 v -0.442878 q 0,-0.161686 -0.119506,-0.274163 -0.112478,-0.119507 -0.274163,-0.119507 -0.161686,0 -0.281193,0.119507 -0.112477,0.112477 -0.112477,0.274163 v 1.982409 q 0,0.161686 0.112477,0.281193 0.119507,0.112477 0.281193,0.112477 0.161685,0 0.274163,-0.112477 0.119506,-0.119507 0.119506,-0.281193 z m 1.131803,0.02109 v 0.38664 q 0,0.161686 0.112477,0.281193 0.119507,0.112477 0.281193,0.112477 0.161686,0 0.274163,-0.112477 0.119507,-0.119507 0.119507,-0.281193 v -0.998235 q -0.02812,0.02812 -0.08436,0.0703 l -0.03515,0.02109 -0.541296,0.309312 -0.06327,0.05624 q -0.06327,0.06327 -0.06327,0.154656 z m 1.152891,-1.637948 v 2.256572 q 0,0.126537 0.126537,0.126537 v 0.36555 q -0.224955,0 -0.372581,-0.161686 -0.203865,0.196835 -0.513177,0.196835 -0.316342,0 -0.541296,-0.217924 -0.217924,-0.224954 -0.217924,-0.541296 v -0.38664 q 0,-0.210895 0.154656,-0.39367 0.09842,-0.09842 0.154656,-0.133567 l 0.541296,-0.309312 q 0.09842,-0.0703 0.147626,-0.119507 0.154656,-0.154656 0.154656,-0.337431 v -0.344461 q 0,-0.147627 -0.105447,-0.246044 -0.09842,-0.105447 -0.246044,-0.105447 -0.147626,0 -0.253073,0.105447 -0.09842,0.09842 -0.09842,0.246044 v 0.407729 l -0.36555,0.04218 v -0.449908 q 0,-0.295253 0.210894,-0.506147 0.210895,-0.210895 0.506147,-0.210895 0.295253,0 0.506147,0.210895 0.210895,0.210894 0.210895,0.506147 z"
     id="text149"
     style="fill:#666666;stroke-width:0.292909"
     inkscape:label="Texto"
     transform="scale(1.1070583,0.9032948)"
     aria-label="Servicios y Proyectos de Ingeniería Mecánica" /></svg>
