<?xml version="1.0" encoding="UTF-8" standalone="no"?>
<!-- Created with Inkscape (http://www.inkscape.org/) -->

<svg
   sodipodi:docname="LogoPositivoColor.svg"
   xml:space="preserve"
   id="svg5"
   version="1.1"
   viewBox="0 0 85.979 20.205065"
   height="47"
   width="200"
   inkscape:version="1.3.2 (091e20e, 2023-11-25, custom)"
   xmlns:inkscape="http://www.inkscape.org/namespaces/inkscape"
   xmlns:sodipodi="http://sodipodi.sourceforge.net/DTD/sodipodi-0.dtd"
   xmlns="http://www.w3.org/2000/svg"
   xmlns:svg="http://www.w3.org/2000/svg"><sodipodi:namedview
     id="namedview7"
     pagecolor="#000000"
     bordercolor="#000000"
     borderopacity="0.54509804"
     inkscape:showpageshadow="2"
     inkscape:pageopacity="0.0"
     inkscape:pagecheckerboard="true"
     inkscape:deskcolor="#d1d1d1"
     inkscape:document-units="mm"
     showgrid="false"
     inkscape:zoom="4.0000004"
     inkscape:cx="89.999991"
     inkscape:cy="9.3749991"
     inkscape:window-width="1920"
     inkscape:window-height="991"
     inkscape:window-x="-9"
     inkscape:window-y="-9"
     inkscape:window-maximized="1"
     inkscape:current-layer="svg5"
     shape-rendering="auto"
     inkscape:clip-to-page="false"><inkscape:grid
       type="xygrid"
       id="grid65304"
       units="cm"
       dotted="false"
       originx="-370.48373"
       originy="-146.83067"
       spacingy="1"
       spacingx="1"
       visible="false" /><inkscape:page
       x="-2.7991283"
       y="-2.7012188"
       width="91.840736"
       height="26.126472"
       id="page1"
       margin="0"
       bleed="0" /></sodipodi:namedview><defs
     id="defs2" /><g
     inkscape:groupmode="layer"
     id="layer2"
     inkscape:label="NombreEmpresa"
     style="display:inline"
     transform="translate(-370.48375,-146.83068)" /><g
     inkscape:groupmode="layer"
     id="layer3"
     inkscape:label="Cuadricula"
     style="display:none"
     sodipodi:insensitive="true"
     transform="translate(-370.48375,-146.83068)"><path
       style="fill:#ca1825;fill-opacity:1;stroke:#888888;stroke-width:0.08;stroke-dasharray:0.319997, 0.319997;stroke-dashoffset:0;stroke-opacity:1"
       d="m 368.28038,148.16519 h 91.24498"
       id="path65910"
       class="UnoptimicedTransforms"
       inkscape:export-filename="path65910.png"
       inkscape:export-xdpi="400"
       inkscape:export-ydpi="400" /><path
       style="fill:#ca1825;fill-opacity:1;stroke:#888888;stroke-width:0.08;stroke-dasharray:0.319997, 0.319997;stroke-dashoffset:0;stroke-opacity:1"
       d="m 368.28037,146.84 h 91.24498"
       id="path65996" /><path
       style="fill:#ca1825;fill-opacity:1;stroke:#888888;stroke-width:0.08;stroke-dasharray:0.319997, 0.319997;stroke-dashoffset:0;stroke-opacity:1"
       d="m 368.28038,159.9 h 91.24498"
       id="path65998" /><path
       style="fill:#ca1825;fill-opacity:1;stroke:#888888;stroke-width:0.08;stroke-dasharray:0.319997, 0.319997;stroke-dashoffset:0;stroke-opacity:1"
       d="m 368.28038,166.64 h 91.24498"
       id="path66000" /><path
       style="fill:#ca1825;fill-opacity:1;stroke:#888888;stroke-width:0.08;stroke-dasharray:0.319997, 0.319997;stroke-dashoffset:0;stroke-opacity:1"
       d="m 368.28038,162.25291 h 91.24498"
       id="path66002" /><path
       style="fill:#ca1825;fill-opacity:1;stroke:#888888;stroke-width:0.08;stroke-dasharray:0.319997, 0.319997;stroke-dashoffset:0;stroke-opacity:1"
       d="m 368.28038,148.16519 h 91.24498"
       id="path70268"
       class="UnoptimicedTransforms"
       transform="translate(0,0.26481)" /><path
       style="fill:#ca1825;fill-opacity:1;stroke:#888888;stroke-width:0.08;stroke-dasharray:0.319997, 0.319997;stroke-dashoffset:0;stroke-opacity:1"
       d="m 368.28038,159.65 h 91.24498"
       id="path70270" /><path
       style="fill:#ca1825;fill-opacity:1;stroke:#888888;stroke-width:0.08;stroke-dasharray:0.319997, 0.319997;stroke-dashoffset:0;stroke-opacity:1"
       d="m 368.28038,163.511 h 91.24498"
       id="path70272" /><path
       style="fill:#ca1825;fill-opacity:1;stroke:#888888;stroke-width:0.08;stroke-dasharray:0.319997, 0.319997;stroke-dashoffset:0;stroke-opacity:1"
       d="m 368.28038,167.54 h 91.24498"
       id="path70274" /></g><g
     inkscape:groupmode="layer"
     id="layer7"
     inkscape:label="AreaProteccion"
     style="display:none"
     sodipodi:insensitive="true"
     transform="translate(-370.48375,-146.83068)"><rect
       style="fill:none;fill-opacity:1;stroke:#666666;stroke-width:0.0778997;stroke-dasharray:none;stroke-dashoffset:0;stroke-opacity:1"
       id="rect124921"
       width="84.648827"
       height="20.716547"
       x="370.43558"
       y="146.83443" /><rect
       style="fill:none;fill-opacity:1;stroke:#666666;stroke-width:0.0900463;stroke-dasharray:none;stroke-dashoffset:0;stroke-opacity:1"
       id="rect126281"
       width="89.994492"
       height="26.036427"
       x="367.72964"
       y="144.17448" /><path
       style="fill:none;fill-opacity:1;stroke:#666666;stroke-width:0.0799999;stroke-dasharray:none;stroke-dashoffset:0;stroke-opacity:1"
       d="m 455.08148,170.2273 -0.0116,-2.71279 2.6543,-0.0117"
       id="path126343" /></g><g
     transform="matrix(0.2256708,0,0,0.2256708,-81.765764,-49.902048)"
     id="g27"
     inkscape:label="Isologo"
     inkscape:export-filename="g41.png"
     inkscape:export-xdpi="54.072048"
     inkscape:export-ydpi="54.072048"
     class="UnoptimicedTransforms"><g
       inkscape:groupmode="layer"
       id="layer5"
       inkscape:label="IsotipoTono2"
       transform="matrix(3.73571,0,0,3.73571,125.86456,-245.38216)"
       inkscape:highlight-color="#921e1e"><path
         d="m 588,289 c 5.529,-11.424 22.788,-24.059 43,-21.717 -20.411,1.118 -33.051,13.334 -37.456,21.717 z"
         fill="#ffffff"
         fill-rule="evenodd"
         id="path13"
         style="fill:#333333"
         transform="matrix(0.26458333,0,0,0.26458333,-31.901609,66.582433)"
         inkscape:label="OblicuaInferior" /><rect
         x="609"
         y="255"
         width="5"
         height="11"
         fill="#ffffff"
         id="rect19"
         style="fill:#333333"
         transform="matrix(0.26458333,0,0,0.26458333,-31.901609,66.582433)"
         inkscape:label="Barras3" /><rect
         x="602"
         y="258"
         width="5"
         height="10"
         fill="#ffffff"
         id="rect17"
         style="fill:#333333"
         transform="matrix(0.26458333,0,0,0.26458333,-31.901609,66.582433)"
         inkscape:label="Barras2" /><rect
         x="595"
         y="261"
         width="5"
         height="10"
         fill="#ffffff"
         id="rect15"
         style="fill:#333333"
         transform="matrix(0.26458333,0,0,0.26458333,-31.901609,66.582433)"
         inkscape:label="Barras1" /><path
         d="m 631,267 -3.44,1.108 -0.093,0.529 c -0.155,0.665 -0.348,1.319 -0.575,1.958 l -0.361,0.864 3.336,3.504 -0.675,1.225 c -0.431,0.694 -0.899,1.368 -1.401,2.019 l -0.211,0.246 -5.138,-0.776 -1.34,1.29 -1.474,1.172 0.887,4.496 -0.282,0.184 c -0.744,0.44 -1.514,0.849 -2.307,1.226 l -1.4,0.591 -4.005,-2.919 -0.987,0.316 c -0.731,0.199 -1.478,0.367 -2.238,0.503 l -0.605,0.081 -1.801,4.281 -2.3,0.102 -2.3,-0.102 -1.801,-4.281 -0.605,-0.081 c -0.76,-0.136 -1.507,-0.304 -2.238,-0.503 l -0.646,-0.207 1.287,-1.517 0.227,-0.239 0.824,0.352 c 1.588,0.572 3.357,0.901 5.308,0.949 8.454,0.21 13.503,-5.534 15.099,-13.32 l 0.188,-1.121 0.739,-0.231 c 2.228,-0.611 4.581,-1.088 7.058,-1.402 z"
         fill="#ffffff"
         fill-rule="evenodd"
         id="path23"
         style="fill:#333333"
         transform="matrix(0.26458333,0,0,0.26458333,-31.901609,66.582433)"
         inkscape:label="RuedaInferior" /></g><g
       inkscape:groupmode="layer"
       id="layer6"
       inkscape:label="IsotipoTono1"
       style="fill:#ca1825"
       transform="matrix(3.73571,0,0,3.73571,125.86456,-245.38216)"
       inkscape:highlight-color="#666666"><path
         d="m 577,289 c 7.668,-16.246 26.967,-27.754 55,-24.424 -28.309,1.59 -41.202,12.502 -47.31,24.424 z"
         fill="#921e1e"
         fill-rule="evenodd"
         id="path25"
         transform="matrix(0.26458333,0,0,0.26458333,-31.901609,66.582433)"
         inkscape:label="OblicuaSuperior"
         style="fill:#ca1825;fill-opacity:1" /><path
         d="m 605.002,240 2.303,0.103 1.802,4.347 0.606,0.082 c 0.76,0.138 1.508,0.309 2.239,0.511 l 0.988,0.321 4.008,-2.964 1.402,0.6 c 0.794,0.382 1.564,0.798 2.309,1.245 l 0.282,0.187 -0.888,4.564 1.475,1.19 1.341,1.309 5.143,-0.788 0.211,0.251 c 0.503,0.661 0.971,1.345 1.402,2.049 l 0.676,1.244 -3.339,3.558 0.361,0.876 c 0.228,0.65 0.42,1.313 0.576,1.988 l 0.092,0.538 4.898,1.599 0.111,1.958 -5.13,-0.454 c -1.712,-0.097 -3.388,-0.137 -5.028,-0.123 l -2.13,0.09 -0.042,-1.536 c -0.538,-9.694 -5.169,-17.066 -15.611,-17.311 -11.138,-0.262 -15.666,8.632 -15.666,19.28 0,2.661 0.329,5.181 0.984,7.467 l 0.476,1.439 -0.07,0.046 c -2.032,1.443 -3.896,3.022 -5.588,4.718 l -0.133,0.146 -3.069,0.47 -0.211,-0.25 c -0.503,-0.661 -0.971,-1.345 -1.402,-2.05 l -0.676,-1.244 3.339,-3.558 -0.361,-0.876 c -0.228,-0.649 -0.42,-1.313 -0.576,-1.988 l -0.092,-0.537 -4.898,-1.6 -0.116,-2.043 0.116,-2.044 4.898,-1.599 0.092,-0.538 c 0.156,-0.675 0.348,-1.338 0.576,-1.988 l 0.361,-0.876 -3.339,-3.558 0.676,-1.244 c 0.431,-0.704 0.899,-1.388 1.402,-2.049 l 0.211,-0.251 5.143,0.788 1.341,-1.309 1.475,-1.19 -0.888,-4.564 0.282,-0.187 c 0.745,-0.447 1.515,-0.863 2.309,-1.245 l 1.402,-0.6 4.008,2.964 0.988,-0.321 c 0.731,-0.202 1.479,-0.373 2.239,-0.511 l 0.606,-0.082 1.802,-4.347 z"
         fill="#921e1e"
         fill-rule="evenodd"
         id="path21"
         transform="matrix(0.26458333,0,0,0.26458333,-31.901609,66.582433)"
         inkscape:label="RuedaSuperior"
         style="fill:#ca1825;fill-opacity:1" /></g><g
       inkscape:groupmode="layer"
       id="layer4"
       inkscape:label="IsologoTexto"
       transform="matrix(3.7795276,0,0,3.7795276,120.57302,-251.65014)"><path
         d="m 139.16446,143.04701 h -1.58749 v -11.21169 h 1.58749 z m 3.89433,-11.20343 1.5875,-0.008 4.06796,8.77257 4.00181,-8.77257 h 1.5875 v 11.21169 h -1.5875 v -9.43403 l -4.32427,9.43403 h -0.27285 l -4.33255,-9.43403 v 9.43403 h -0.7276 z"
         id="text11"
         style="fill:#333333;stroke-width:0.264583"
         inkscape:label="IM"
         aria-label="IM" /><path
         d="m 29.34375,-30.5625 h -1.875 q -1.21875,-6.71875 -4.5,-8.625 -3.25,-1.9375 -6.53125,-1.75 -2.875,0.09375 -5.09375,1.84375 -2.375,1.90625 -2.375,4.75 0,1.90625 1.34375,3.53125 1.96875,2.34375 9.21875,6.25 5.03125,2.6875 6.4375,3.65625 3.59375,2.4375 5.03125,5.25 1.15625,2.3125 1.15625,4.84375 0,5.28125 -4.09375,8.65625 -3.84375,3.125 -9.25,3.125 -1.8125,0 -3.34375,-0.21875 -2,-0.21875 -4.3125,-1.28125 Q 8.875,-1.625 6.625,-4.84375 q -2.25,-3.25 -2.25,-8.875 H 6.25 q 0.03125,4.25 1.15625,6.34375 1.46875,2.78125 4.5625,4.40625 2.8125,1.5 6.1875,1.5 3.375,0 5.78125,-1.75 2.65625,-1.90625 2.65625,-5.1875 0,-3.4375 -3.53125,-6.125 Q 20.90625,-16.1875 15.90625,-18.875 10.9375,-21.59375 8.6875,-23.375 4,-27.0625 4,-32.1875 q 0,-4.9375 3.78125,-8.125 3.59375,-3.03125 8.625,-3.03125 5.75,0.34375 8.09375,2.25 2.34375,1.875 3.34375,4.1875 1.3125,3.0625 1.5,6.34375 z M 69.5625,0 H 42.90625 l 0.03125,-42.375 h 26.625 v 2.3125 H 48.96875 v 16.75 h 17.1875 v 2.28125 H 48.96875 V -7.0625 q 0,2.1875 0.03125,2.40625 0.1875,1.46875 1.09375,1.96875 0.625,0.375 2.375,0.375 H 69.5625 Z M 106.625,0 92.28125,-19.8125 q -1.59375,0.0625 -2.59375,0.0625 -0.84375,0 -1.84375,-0.0625 V 0 H 81.875 v -42.0625 l 9.34375,-0.3125 q 6.09375,-0.21875 9.96875,0.96875 3.375,1.0625 5.5,3.75 2.15625,2.6875 2.15625,6.1875 0,8.53125 -10.4375,10.84375 L 113.34375,0 Z M 87.84375,-21.78125 q 0.28125,0 0.875,0 0.59375,0.03125 0.875,0.03125 5.09375,0 8.34375,-2.0625 3.875,-2.4375 3.875,-7.25 0,-4.03125 -2.5,-6.46875 Q 96.8125,-40 92.75,-40 q -1.8125,0 -4.90625,0.59375 z m 36.65625,-20.25 9.46875,-0.34375 q 5.15625,-0.1875 8.96875,1.15625 3.5,1.25 5.625,4.09375 2.15625,2.84375 2.15625,6.46875 0,5.65625 -3.78125,8.78125 -3.53125,2.90625 -9.3125,2.90625 -3.0625,0 -7.125,-0.875 V 0 h -5.96875 z m 6,20.40625 q 3.3125,0.625 5.125,0.625 3.59375,0 5.84375,-2.78125 2.125,-2.59375 2.125,-6.25 0,-6.1875 -4.3125,-8.65625 -2.0625,-1.15625 -4.6875,-1.15625 -1.59375,0 -4.09375,0.59375 z M 184.90625,0 170.5625,-19.8125 q -1.59375,0.0625 -2.59375,0.0625 -0.84375,0 -1.84375,-0.0625 V 0 h -5.96875 V -42.0625 L 169.5,-42.375 q 6.09375,-0.21875 9.96875,0.96875 3.375,1.0625 5.5,3.75 2.15625,2.6875 2.15625,6.1875 0,8.53125 -10.4375,10.84375 L 191.625,0 Z M 166.125,-21.78125 q 0.28125,0 0.875,0 0.59375,0.03125 0.875,0.03125 5.09375,0 8.34375,-2.0625 3.875,-2.4375 3.875,-7.25 0,-4.03125 -2.5,-6.46875 -2.5,-2.46875 -6.5625,-2.46875 -1.8125,0 -4.90625,0.59375 z"
         id="text9"
         style="fill:#333333"
         inkscape:label="SERPR"
         transform="matrix(0.26458333,0,0,0.26458333,68.691384,143.04701)"
         aria-label="SERPR" /></g></g></svg>
