<?xml version="1.0" encoding="UTF-8" standalone="no"?>
<!-- Created with Inkscape (http://www.inkscape.org/) -->

<svg
   xml:space="preserve"
   id="svg5"
   version="1.1"
   viewBox="0 0 84.553856 20.782341"
   height="20.782341mm"
   width="84.553856mm"
   sodipodi:docname="LogoEscalaGrises.svg"
   inkscape:version="1.3.2 (091e20e, 2023-11-25, custom)"
   xmlns:inkscape="http://www.inkscape.org/namespaces/inkscape"
   xmlns:sodipodi="http://sodipodi.sourceforge.net/DTD/sodipodi-0.dtd"
   xmlns="http://www.w3.org/2000/svg"
   xmlns:svg="http://www.w3.org/2000/svg"><sodipodi:namedview
     id="namedview1"
     pagecolor="#ffffff"
     bordercolor="#000000"
     borderopacity="0.25"
     inkscape:showpageshadow="2"
     inkscape:pageopacity="0.0"
     inkscape:pagecheckerboard="0"
     inkscape:deskcolor="#d1d1d1"
     inkscape:document-units="mm"
     inkscape:zoom="2.3697555"
     inkscape:cx="107.60604"
     inkscape:cy="-11.604573"
     inkscape:window-width="1920"
     inkscape:window-height="991"
     inkscape:window-x="-9"
     inkscape:window-y="-9"
     inkscape:window-maximized="1"
     inkscape:current-layer="svg5" /><defs
     id="defs2" /><g
     transform="matrix(0.26458333,0,0,0.26458333,-101.65133,-63.650311)"
     id="g27"
     class="UnoptimicedTransforms"
     style="fill:#1a1a1a;fill-opacity:0.23247863"><g
       id="layer5"
       transform="matrix(3.73571,0,0,3.73571,125.86456,-245.38216)"
       style="fill:#333333;fill-opacity:1"><path
         d="m 588,289 c 5.529,-11.424 22.73463,-24.32583 42.94663,-21.98383 C 610.53563,268.34763 597.949,280.617 593.544,289 Z"
         fill="#ffffff"
         fill-rule="evenodd"
         id="path13"
         transform="matrix(0.26458333,0,0,0.26458333,-31.901609,66.582433)"
         style="fill:#333333;fill-opacity:1;stroke:none;stroke-opacity:1"
         sodipodi:nodetypes="cccc" /><path
         d="m 129.22978,134.05121 v 2.7464 c 0.42768,-0.0898 0.86914,-0.16285 1.32275,-0.21959 v -2.52681 z"
         style="stroke:none;stroke-opacity:1;fill:#333333;fill-opacity:1"
         id="path14" /><path
         d="m 127.37741,137.31259 c 0.42497,-0.14987 0.86581,-0.28312 1.32327,-0.3963 v -2.07143 h -1.32327 z"
         style="stroke:none;stroke-opacity:1;fill:#333333;fill-opacity:1"
         id="path17" /><path
         d="m 125.52556,135.63851 v 2.48812 c 0.41951,-0.2262 0.86098,-0.4319 1.32275,-0.61693 v -1.87119 z"
         id="path1"
         style="stroke:none;stroke-opacity:1;fill:#333333;fill-opacity:1" /><path
         d="m 631,267 -3.44,1.108 -0.093,0.529 c -0.155,0.665 -0.348,1.319 -0.575,1.958 l -0.361,0.864 3.336,3.504 -0.675,1.225 c -0.431,0.694 -0.899,1.368 -1.401,2.019 l -0.211,0.246 -5.138,-0.776 -1.34,1.29 -1.474,1.172 0.887,4.496 -0.282,0.184 c -0.744,0.44 -1.514,0.849 -2.307,1.226 l -1.4,0.591 -4.005,-2.919 -0.987,0.316 c -0.731,0.199 -1.478,0.367 -2.238,0.503 l -0.605,0.081 -1.801,4.281 -2.3,0.102 -2.3,-0.102 -1.801,-4.281 -0.605,-0.081 c -0.76,-0.136 -1.507,-0.304 -2.238,-0.503 l -0.646,-0.207 1.287,-1.517 0.227,-0.239 0.824,0.352 c 1.588,0.572 3.357,0.901 5.308,0.949 8.454,0.21 13.503,-5.534 15.099,-13.32 l 0.188,-1.121 0.739,-0.231 c 2.228,-0.611 4.581,-1.088 7.058,-1.402 z"
         fill="#ffffff"
         fill-rule="evenodd"
         id="path23"
         transform="matrix(0.26458333,0,0,0.26458333,-31.901609,66.582433)"
         style="fill:#333333;fill-opacity:1;stroke:none;stroke-opacity:1" /></g><g
       id="layer6"
       transform="matrix(3.73571,0,0,3.73571,125.86456,-245.38216)"
       style="fill:#1a1a1a;fill-opacity:0.08888889;stroke:none;stroke-opacity:1"><path
         id="path18"
         style="fill-rule:evenodd;stroke:none;stroke-opacity:1;fill:#666666;fill-opacity:1"
         d="M 132.32648 136.44314 C 131.71435 136.45874 131.12465 136.50644 130.55253 136.57802 C 130.09892 136.63472 129.65746 136.70778 129.22978 136.79761 C 129.05163 136.83501 128.87425 136.87331 128.70068 136.91629 C 128.24324 137.02947 127.80238 137.16272 127.37741 137.31259 C 127.19835 137.37579 127.02097 137.44034 126.84779 137.5097 C 126.38602 137.69473 125.94455 137.90043 125.52504 138.12663 C 125.12308 138.34339 124.74122 138.5787 124.37901 138.82983 C 124.37889 138.82992 124.3786 138.82975 124.37849 138.82983 L 124.37849 138.83036 C 123.73461 139.27689 123.15474 139.77529 122.64061 140.31623 L 122.64009 140.31623 C 121.8583 141.1388 121.2287 142.05945 120.76262 143.04695 L 122.79694 143.04695 C 124.40023 139.91753 127.77283 137.05277 135.13981 136.59685 L 134.22225 136.51529 C 133.76928 136.48959 133.32609 136.47917 132.89218 136.48287 L 132.32857 136.50692 L 132.32648 136.44314 z M 124.39312 139.00184 C 124.26976 139.08977 124.14894 139.17943 124.03028 139.2711 C 124.14893 139.17943 124.26977 139.08976 124.39312 139.00184 z M 123.99525 139.29829 C 123.87858 139.38915 123.76382 139.48205 123.65176 139.57643 C 123.76384 139.48203 123.87856 139.38917 123.99525 139.29829 z M 123.6183 139.60466 C 123.50139 139.70388 123.38713 139.80446 123.27532 139.90738 C 123.16419 140.00969 123.05567 140.11421 122.9496 140.22003 C 123.05573 140.11414 123.16412 140.00975 123.27532 139.90738 C 123.38704 139.80454 123.50149 139.70381 123.6183 139.60466 z " /><path
         d="m 135.14033,136.59685 c 0.0587,-0.004 0.11539,-0.009 0.17462,-0.012 -0.82594,-0.0981 -1.62292,-0.14736 -2.39036,-0.15162 -0.20217,-0.001 -0.39956,0.005 -0.59759,0.01 l 0.002,0.0638 0.56361,-0.0241 c 0.43391,-0.004 0.8771,0.007 1.33007,0.0324 z"
         style="fill-rule:evenodd;stroke:none;stroke-opacity:1;fill:#333333;fill-opacity:1"
         id="path10" /><path
         d="m 128.17159,130.08244 -0.60857,0.0272 -0.47682,1.15021 -0.16051,0.0214 c -0.20108,0.0365 -0.39895,0.082 -0.59236,0.13541 l -0.26141,0.0852 -1.06029,-0.78424 -0.37121,0.15842 c -0.21008,0.10107 -0.41355,0.21111 -0.61066,0.32938 l -0.0748,0.0497 0.23475,1.20772 -0.39003,0.31475 -0.355,0.34611 -1.36092,-0.20861 -0.0554,0.0664 c -0.13308,0.17489 -0.25717,0.3559 -0.3712,0.54217 l -0.17881,0.32938 0.88358,0.94108 -0.0957,0.23214 c -0.0603,0.17198 -0.11087,0.34737 -0.15214,0.52596 l -0.0246,0.14221 -1.29608,0.42297 -0.0303,0.54112 0.0303,0.5406 1.29608,0.42297 0.0246,0.14221 c 0.0413,0.17859 0.0918,0.35424 0.15214,0.52596 l 0.0957,0.23161 -0.88358,0.94161 0.17881,0.32938 c 0.11403,0.18653 0.23812,0.36728 0.3712,0.54217 l 0.0554,0.0659 0.55681,-0.0847 c 0.51429,-0.54111 1.09428,-1.03976 1.7384,-1.4864 l -0.0769,-0.23265 c -0.1733,-0.60484 -0.26036,-1.27171 -0.26036,-1.97576 0,-2.81728 1.19803,-5.17053 4.14496,-5.10121 2.76277,0.0648 3.98797,2.01508 4.13032,4.57995 l 0.01,0.34298 c 0.19803,-0.005 0.39542,-0.0111 0.59759,-0.01 0.76744,0.004 1.56442,0.0535 2.39036,0.15162 -0.0592,0.003 -0.1159,0.008 -0.17462,0.012 l 0.43917,0.0387 -0.0293,-0.51812 -1.29608,-0.42297 -0.0241,-0.14221 c -0.0413,-0.17859 -0.0923,-0.35398 -0.15267,-0.52596 l -0.0951,-0.23214 0.88305,-0.94108 -0.1788,-0.32938 c -0.11404,-0.18627 -0.2376,-0.36728 -0.37069,-0.54217 l -0.0559,-0.0664 -1.36092,0.20861 -0.35447,-0.34611 -0.39055,-0.31475 0.23527,-1.20772 -0.0748,-0.0497 c -0.19712,-0.11827 -0.40111,-0.22831 -0.61119,-0.32938 l -0.37068,-0.15842 -1.06029,0.78424 -0.26141,-0.0852 c -0.19341,-0.0534 -0.39128,-0.0989 -0.59237,-0.13541 l -0.1605,-0.0214 -0.47682,-1.15021 z"
         style="fill-rule:evenodd;stroke:none;stroke-opacity:1;fill:#666666;fill-opacity:1"
         id="path8" /></g><g
       id="layer4"
       transform="matrix(3.7795276,0,0,3.7795276,120.57302,-251.65014)"
       style="fill:#333333;fill-opacity:1;stroke:none;stroke-opacity:1"><path
         d="m 139.16446,143.04701 h -1.58749 v -11.21169 h 1.58749 z m 3.89433,-11.20343 1.5875,-0.008 4.06796,8.77257 4.00181,-8.77257 h 1.5875 v 11.21169 h -1.5875 v -9.43403 l -4.32427,9.43403 h -0.27285 l -4.33255,-9.43403 v 9.43403 h -0.7276 z"
         id="text11"
         style="stroke-width:0.264583;fill:#333333;fill-opacity:1;stroke:none;stroke-opacity:1"
         aria-label="IM" /><path
         d="m 29.34375,-30.5625 h -1.875 q -1.21875,-6.71875 -4.5,-8.625 -3.25,-1.9375 -6.53125,-1.75 -2.875,0.09375 -5.09375,1.84375 -2.375,1.90625 -2.375,4.75 0,1.90625 1.34375,3.53125 1.96875,2.34375 9.21875,6.25 5.03125,2.6875 6.4375,3.65625 3.59375,2.4375 5.03125,5.25 1.15625,2.3125 1.15625,4.84375 0,5.28125 -4.09375,8.65625 -3.84375,3.125 -9.25,3.125 -1.8125,0 -3.34375,-0.21875 -2,-0.21875 -4.3125,-1.28125 Q 8.875,-1.625 6.625,-4.84375 q -2.25,-3.25 -2.25,-8.875 H 6.25 q 0.03125,4.25 1.15625,6.34375 1.46875,2.78125 4.5625,4.40625 2.8125,1.5 6.1875,1.5 3.375,0 5.78125,-1.75 2.65625,-1.90625 2.65625,-5.1875 0,-3.4375 -3.53125,-6.125 Q 20.90625,-16.1875 15.90625,-18.875 10.9375,-21.59375 8.6875,-23.375 4,-27.0625 4,-32.1875 q 0,-4.9375 3.78125,-8.125 3.59375,-3.03125 8.625,-3.03125 5.75,0.34375 8.09375,2.25 2.34375,1.875 3.34375,4.1875 1.3125,3.0625 1.5,6.34375 z M 69.5625,0 H 42.90625 l 0.03125,-42.375 h 26.625 v 2.3125 H 48.96875 v 16.75 h 17.1875 v 2.28125 H 48.96875 V -7.0625 q 0,2.1875 0.03125,2.40625 0.1875,1.46875 1.09375,1.96875 0.625,0.375 2.375,0.375 H 69.5625 Z M 106.625,0 92.28125,-19.8125 q -1.59375,0.0625 -2.59375,0.0625 -0.84375,0 -1.84375,-0.0625 V 0 H 81.875 v -42.0625 l 9.34375,-0.3125 q 6.09375,-0.21875 9.96875,0.96875 3.375,1.0625 5.5,3.75 2.15625,2.6875 2.15625,6.1875 0,8.53125 -10.4375,10.84375 L 113.34375,0 Z M 87.84375,-21.78125 q 0.28125,0 0.875,0 0.59375,0.03125 0.875,0.03125 5.09375,0 8.34375,-2.0625 3.875,-2.4375 3.875,-7.25 0,-4.03125 -2.5,-6.46875 Q 96.8125,-40 92.75,-40 q -1.8125,0 -4.90625,0.59375 z m 36.65625,-20.25 9.46875,-0.34375 q 5.15625,-0.1875 8.96875,1.15625 3.5,1.25 5.625,4.09375 2.15625,2.84375 2.15625,6.46875 0,5.65625 -3.78125,8.78125 -3.53125,2.90625 -9.3125,2.90625 -3.0625,0 -7.125,-0.875 V 0 h -5.96875 z m 6,20.40625 q 3.3125,0.625 5.125,0.625 3.59375,0 5.84375,-2.78125 2.125,-2.59375 2.125,-6.25 0,-6.1875 -4.3125,-8.65625 -2.0625,-1.15625 -4.6875,-1.15625 -1.59375,0 -4.09375,0.59375 z M 184.90625,0 170.5625,-19.8125 q -1.59375,0.0625 -2.59375,0.0625 -0.84375,0 -1.84375,-0.0625 V 0 h -5.96875 V -42.0625 L 169.5,-42.375 q 6.09375,-0.21875 9.96875,0.96875 3.375,1.0625 5.5,3.75 2.15625,2.6875 2.15625,6.1875 0,8.53125 -10.4375,10.84375 L 191.625,0 Z M 166.125,-21.78125 q 0.28125,0 0.875,0 0.59375,0.03125 0.875,0.03125 5.09375,0 8.34375,-2.0625 3.875,-2.4375 3.875,-7.25 0,-4.03125 -2.5,-6.46875 -2.5,-2.46875 -6.5625,-2.46875 -1.8125,0 -4.90625,0.59375 z"
         id="text9"
         transform="matrix(0.26458333,0,0,0.26458333,68.691384,143.04701)"
         aria-label="SERPR"
         style="fill:#333333;fill-opacity:1;stroke:none;stroke-opacity:1" /></g></g><g
     id="layer2"
     transform="translate(-370.48375,-146.83068)"
     style="fill:#666666;fill-opacity:1;stroke:none;stroke-opacity:1"><path
       d="m 336.55038,182.75247 -1.11774,-1.32864 q -0.0633,-0.0703 -0.10545,-0.16872 -0.10545,-0.19683 -0.10545,-0.42178 v -0.31635 q 0,-0.37961 0.26713,-0.64674 0.26714,-0.26713 0.64675,-0.26713 0.37961,0 0.64674,0.26713 0.26713,0.26713 0.26713,0.64674 v 0.59051 l -0.36555,0.0422 v -0.63269 q 0,-0.22495 -0.16168,-0.38664 -0.16169,-0.16168 -0.38664,-0.16168 -0.22496,0 -0.38664,0.16168 -0.16169,0.16169 -0.16169,0.38664 v 0.31635 q 0,0.14059 0.0633,0.25307 l 0.0633,0.0984 1.11774,1.32863 0.10545,0.17575 q 0.11247,0.21089 0.11247,0.42882 v 0.45693 q 0,0.37962 -0.26713,0.64675 -0.26713,0.26713 -0.64674,0.26713 -0.37961,0 -0.64675,-0.26713 -0.26713,-0.26713 -0.26713,-0.64675 V 182.879 l 0.36555,-0.0422 v 0.73813 q 0,0.22496 0.16169,0.38665 0.16168,0.16168 0.38664,0.16168 0.22495,0 0.38664,-0.16168 0.16168,-0.16169 0.16168,-0.38665 v -0.45693 q 0,-0.13357 -0.0703,-0.26011 z m 2.15112,0.53426 0.36555,-0.0422 v 0.44991 q 0,0.31634 -0.22496,0.5413 -0.21792,0.21792 -0.53426,0.21792 -0.31635,0 -0.5413,-0.21792 -0.21792,-0.22496 -0.21792,-0.5413 v -1.98241 q 0,-0.31634 0.21792,-0.53426 0.22495,-0.22496 0.5413,-0.22496 0.31634,0 0.53426,0.22496 0.22496,0.21792 0.22496,0.53426 v 1.05448 h -1.15289 v 0.92793 q 0,0.16169 0.11247,0.28119 0.11951,0.11248 0.2812,0.11248 0.16168,0 0.27416,-0.11248 0.11951,-0.1195 0.11951,-0.28119 z m -0.78734,-1.57468 v 0.68892 h 0.78734 v -0.68892 q 0,-0.16168 -0.11951,-0.27416 -0.11248,-0.11951 -0.27416,-0.11951 -0.16169,0 -0.2812,0.11951 -0.11247,0.11248 -0.11247,0.27416 z m 2.73459,-0.75922 v 0.36555 h -0.2601 q -0.18278,0 -0.30228,0.12654 -0.11951,0.11951 -0.11951,0.30228 v 2.67133 h -0.36555 v -3.43055 h 0.25307 l 0.0633,0.26713 q 0.1898,-0.30228 0.7311,-0.30228 z m 1.77151,0.0351 -0.57644,3.43055 h -0.43585 l -0.57645,-3.43055 h 0.36555 l 0.42179,2.69242 h 0.0141 l 0.42179,-2.69242 z m 0.78031,0 v 3.43055 h -0.36555 v -3.43055 z m -0.36555,-0.39367 v -0.49209 h 0.36555 v 0.49209 z m 2.08083,2.69242 h 0.36555 v 0.40773 q 0,0.31634 -0.22496,0.5413 -0.21792,0.21792 -0.53426,0.21792 -0.31634,0 -0.5413,-0.21792 -0.21792,-0.22496 -0.21792,-0.5413 v -1.98241 q 0,-0.31634 0.21792,-0.53426 0.22496,-0.22496 0.5413,-0.22496 0.31634,0 0.53426,0.22496 0.22496,0.21792 0.22496,0.53426 v 0.4007 l -0.36555,0.0422 v -0.44288 q 0,-0.16168 -0.11951,-0.27416 -0.11248,-0.11951 -0.27416,-0.11951 -0.16169,0 -0.28119,0.11951 -0.11248,0.11248 -0.11248,0.27416 v 1.98241 q 0,0.16169 0.11248,0.28119 0.1195,0.11248 0.28119,0.11248 0.16168,0 0.27416,-0.11248 0.11951,-0.1195 0.11951,-0.28119 z m 1.24428,-2.29875 v 3.43055 h -0.36555 v -3.43055 z m -0.36555,-0.39367 v -0.49209 h 0.36555 v 0.49209 z m 0.92794,3.10015 v -1.98241 q 0,-0.31634 0.21793,-0.53426 0.22495,-0.22496 0.54129,-0.22496 0.31634,0 0.53427,0.22496 0.22495,0.21792 0.22495,0.53426 v 1.98241 q 0,0.31634 -0.22495,0.5413 -0.21793,0.21792 -0.53427,0.21792 -0.31634,0 -0.54129,-0.21792 -0.21793,-0.22496 -0.21793,-0.5413 z m 0.36555,-1.98241 v 1.98241 q 0,0.16169 0.11248,0.28119 0.11951,0.11248 0.28119,0.11248 0.16169,0 0.27417,-0.11248 0.1195,-0.1195 0.1195,-0.28119 v -1.98241 q 0,-0.16168 -0.1195,-0.27416 -0.11248,-0.11951 -0.27417,-0.11951 -0.16168,0 -0.28119,0.11951 -0.11248,0.11248 -0.11248,0.27416 z m 2.76273,1.98241 v -0.29525 q 0,-0.10545 -0.0633,-0.21792 -0.007,-0.007 -0.0281,-0.0351 -0.0141,-0.0281 -0.0281,-0.0422 l -0.75922,-0.63269 q -0.0773,-0.0633 -0.12654,-0.14762 -0.1195,-0.19684 -0.1195,-0.42882 v -0.2109 q 0,-0.30228 0.21089,-0.51317 0.21793,-0.21793 0.52021,-0.21793 0.30228,0 0.51318,0.21793 0.21792,0.21089 0.21792,0.51317 v 0.31635 l -0.36555,0.0422 v -0.35852 q 0,-0.15465 -0.10545,-0.2601 -0.10545,-0.10545 -0.2601,-0.10545 -0.15466,0 -0.2601,0.10545 -0.10545,0.10545 -0.10545,0.2601 v 0.2109 q 0,0.12653 0.0562,0.22495 l 0.0633,0.0703 0.75923,0.63268 q 0.0703,0.0703 0.1195,0.14763 0.12654,0.2109 0.12654,0.42882 v 0.29525 q 0,0.31634 -0.22496,0.5413 -0.21792,0.21792 -0.53426,0.21792 -0.31634,0 -0.5413,-0.21792 -0.21792,-0.22496 -0.21792,-0.5413 v -0.33743 l 0.36555,-0.0422 v 0.37961 q 0,0.16169 0.11248,0.28119 0.1195,0.11248 0.28119,0.11248 0.16168,0 0.27416,-0.11248 0.11951,-0.1195 0.11951,-0.28119 z m 3.11422,-2.70648 -0.68189,3.82422 q -0.0562,0.21793 -0.14763,0.37258 -0.21792,0.37258 -0.61159,0.37258 v -0.36555 q 0.21792,0 0.31634,-0.1898 0.0422,-0.0562 0.0773,-0.18981 l 0.0703,-0.39367 -0.61159,-3.43055 h 0.36555 l 0.42179,2.69242 h 0.0141 l 0.42179,-2.69242 z m 1.66607,0.99824 h 0.44288 q 0.2601,0 0.43585,-0.17575 0.18278,-0.18278 0.18278,-0.44288 v -0.71001 q 0,-0.2601 -0.18278,-0.43585 -0.17575,-0.18277 -0.43585,-0.18277 h -0.44288 z m 0.44288,0.36555 h -0.44288 v 2.06676 h -0.36555 v -4.74513 h 0.80843 q 0.40773,0 0.69595,0.28823 0.28823,0.28822 0.28823,0.69595 v 0.71001 q 0,0.40773 -0.28823,0.69595 -0.28822,0.28823 -0.69595,0.28823 z m 2.50262,-1.39894 v 0.36555 h -0.2601 q -0.18278,0 -0.30228,0.12654 -0.11951,0.11951 -0.11951,0.30228 v 2.67133 h -0.36555 v -3.43055 h 0.25307 l 0.0633,0.26713 q 0.18981,-0.30228 0.7311,-0.30228 z m 0.30228,2.74163 v -1.98241 q 0,-0.31634 0.21793,-0.53426 0.22495,-0.22496 0.54129,-0.22496 0.31634,0 0.53427,0.22496 0.22495,0.21792 0.22495,0.53426 v 1.98241 q 0,0.31634 -0.22495,0.5413 -0.21793,0.21792 -0.53427,0.21792 -0.31634,0 -0.54129,-0.21792 -0.21793,-0.22496 -0.21793,-0.5413 z m 0.36555,-1.98241 v 1.98241 q 0,0.16169 0.11248,0.28119 0.11951,0.11248 0.28119,0.11248 0.16169,0 0.27417,-0.11248 0.1195,-0.1195 0.1195,-0.28119 v -1.98241 q 0,-0.16168 -0.1195,-0.27416 -0.11248,-0.11951 -0.27417,-0.11951 -0.16168,0 -0.28119,0.11951 -0.11248,0.11248 -0.11248,0.27416 z m 3.0861,-0.72407 -0.68189,3.82422 q -0.0562,0.21793 -0.14763,0.37258 -0.21792,0.37258 -0.61159,0.37258 v -0.36555 q 0.21792,0 0.31634,-0.1898 0.0422,-0.0562 0.0773,-0.18981 l 0.0703,-0.39367 -0.6116,-3.43055 h 0.36555 l 0.42179,2.69242 h 0.0141 l 0.42179,-2.69242 z m 1.51844,2.29875 0.36555,-0.0422 v 0.44991 q 0,0.31634 -0.22495,0.5413 -0.21792,0.21792 -0.53427,0.21792 -0.31634,0 -0.54129,-0.21792 -0.21793,-0.22496 -0.21793,-0.5413 v -1.98241 q 0,-0.31634 0.21793,-0.53426 0.22495,-0.22496 0.54129,-0.22496 0.31635,0 0.53427,0.22496 0.22495,0.21792 0.22495,0.53426 v 1.05448 h -1.15289 v 0.92793 q 0,0.16169 0.11248,0.28119 0.11951,0.11248 0.28119,0.11248 0.16169,0 0.27417,-0.11248 0.1195,-0.1195 0.1195,-0.28119 z m -0.78734,-1.57468 v 0.68892 h 0.78734 v -0.68892 q 0,-0.16168 -0.1195,-0.27416 -0.11248,-0.11951 -0.27417,-0.11951 -0.16168,0 -0.28119,0.11951 -0.11248,0.11248 -0.11248,0.27416 z m 2.79787,1.57468 h 0.36555 v 0.40773 q 0,0.31634 -0.22496,0.5413 -0.21792,0.21792 -0.53426,0.21792 -0.31634,0 -0.5413,-0.21792 -0.21792,-0.22496 -0.21792,-0.5413 v -1.98241 q 0,-0.31634 0.21792,-0.53426 0.22496,-0.22496 0.5413,-0.22496 0.31634,0 0.53426,0.22496 0.22496,0.21792 0.22496,0.53426 v 0.4007 l -0.36555,0.0422 v -0.44288 q 0,-0.16168 -0.11951,-0.27416 -0.11248,-0.11951 -0.27416,-0.11951 -0.16169,0 -0.2812,0.11951 -0.11247,0.11248 -0.11247,0.27416 v 1.98241 q 0,0.16169 0.11247,0.28119 0.11951,0.11248 0.2812,0.11248 0.16168,0 0.27416,-0.11248 0.11951,-0.1195 0.11951,-0.28119 z m 0.66081,-1.9332 v -0.36555 h 0.44288 v -0.6608 l 0.36555,-0.0422 v 0.70298 h 0.44288 v 0.36555 h -0.44288 v 2.59401 q 0,0.0562 0.0422,0.0984 0.0422,0.0422 0.0984,0.0422 v 0.36555 q -0.21089,0 -0.35852,-0.14762 -0.14762,-0.14763 -0.14762,-0.35852 v -2.59401 z m 1.5817,2.34093 v -1.98241 q 0,-0.31634 0.21792,-0.53426 0.22496,-0.22496 0.5413,-0.22496 0.31634,0 0.53426,0.22496 0.22496,0.21792 0.22496,0.53426 v 1.98241 q 0,0.31634 -0.22496,0.5413 -0.21792,0.21792 -0.53426,0.21792 -0.31634,0 -0.5413,-0.21792 -0.21792,-0.22496 -0.21792,-0.5413 z m 0.36555,-1.98241 v 1.98241 q 0,0.16169 0.11248,0.28119 0.1195,0.11248 0.28119,0.11248 0.16168,0 0.27416,-0.11248 0.11951,-0.1195 0.11951,-0.28119 v -1.98241 q 0,-0.16168 -0.11951,-0.27416 -0.11248,-0.11951 -0.27416,-0.11951 -0.16169,0 -0.28119,0.11951 -0.11248,0.11248 -0.11248,0.27416 z m 2.76273,1.98241 v -0.29525 q 0,-0.10545 -0.0633,-0.21792 -0.007,-0.007 -0.0281,-0.0351 -0.0141,-0.0281 -0.0281,-0.0422 l -0.75922,-0.63269 q -0.0773,-0.0633 -0.12654,-0.14762 -0.11951,-0.19684 -0.11951,-0.42882 v -0.2109 q 0,-0.30228 0.2109,-0.51317 0.21792,-0.21793 0.52021,-0.21793 0.30228,0 0.51317,0.21793 0.21793,0.21089 0.21793,0.51317 v 0.31635 l -0.36555,0.0422 v -0.35852 q 0,-0.15465 -0.10545,-0.2601 -0.10545,-0.10545 -0.2601,-0.10545 -0.15466,0 -0.26011,0.10545 -0.10544,0.10545 -0.10544,0.2601 v 0.2109 q 0,0.12653 0.0562,0.22495 l 0.0633,0.0703 0.75922,0.63268 q 0.0703,0.0703 0.11951,0.14763 0.12654,0.2109 0.12654,0.42882 v 0.29525 q 0,0.31634 -0.22496,0.5413 -0.21792,0.21792 -0.53426,0.21792 -0.31635,0 -0.5413,-0.21792 -0.21792,-0.22496 -0.21792,-0.5413 v -0.33743 l 0.36555,-0.0422 v 0.37961 q 0,0.16169 0.11247,0.28119 0.11951,0.11248 0.2812,0.11248 0.16168,0 0.27416,-0.11248 0.11951,-0.1195 0.11951,-0.28119 z m 3.28995,-4.02106 v 4.74513 h -0.25307 l -0.0633,-0.26713 q -0.1898,0.30228 -0.53426,0.30228 -0.27417,0 -0.471,-0.21792 -0.19684,-0.22496 -0.19684,-0.5413 v -1.98241 q 0,-0.31634 0.19684,-0.53426 0.19683,-0.22496 0.471,-0.22496 0.28822,0 0.48505,0.23902 v -1.47627 z m -0.36555,4.02106 v -1.98241 q 0,-0.16168 -0.1195,-0.27416 -0.11248,-0.11951 -0.27417,-0.11951 -0.16168,0 -0.28119,0.11951 -0.11248,0.11248 -0.11248,0.27416 v 1.98241 q 0,0.16169 0.11248,0.28119 0.11951,0.11248 0.28119,0.11248 0.16169,0 0.27417,-0.11248 0.1195,-0.1195 0.1195,-0.28119 z m 2.08084,-0.40773 0.36555,-0.0422 v 0.44991 q 0,0.31634 -0.22496,0.5413 -0.21792,0.21792 -0.53426,0.21792 -0.31635,0 -0.5413,-0.21792 -0.21793,-0.22496 -0.21793,-0.5413 v -1.98241 q 0,-0.31634 0.21793,-0.53426 0.22495,-0.22496 0.5413,-0.22496 0.31634,0 0.53426,0.22496 0.22496,0.21792 0.22496,0.53426 v 1.05448 h -1.15289 v 0.92793 q 0,0.16169 0.11247,0.28119 0.11951,0.11248 0.2812,0.11248 0.16168,0 0.27416,-0.11248 0.11951,-0.1195 0.11951,-0.28119 z m -0.78734,-1.57468 v 0.68892 h 0.78734 v -0.68892 q 0,-0.16168 -0.11951,-0.27416 -0.11248,-0.11951 -0.27416,-0.11951 -0.16169,0 -0.2812,0.11951 -0.11247,0.11248 -0.11247,0.27416 z m 3.02984,2.70648 h -0.36555 v -4.74513 h 0.36555 z m 1.01933,0 h -0.36555 v -3.43055 h 0.25307 l 0.0633,0.26713 q 0.1898,-0.30228 0.53426,-0.30228 0.27417,0 0.471,0.22496 0.19684,0.21792 0.19684,0.53426 v 2.70648 h -0.36555 v -2.70648 q 0,-0.16168 -0.11951,-0.27416 -0.11248,-0.11951 -0.27416,-0.11951 -0.16169,0 -0.2812,0.11951 -0.11247,0.11248 -0.11247,0.27416 z m 1.6731,0.37961 v -0.32337 q 0,-0.39367 0.30931,-0.61159 -0.10545,-0.13357 -0.10545,-0.33743 0,-0.18981 0.10545,-0.33041 -0.30931,-0.23198 -0.30931,-0.61862 v -0.86467 q 0,-0.31634 0.19683,-0.53426 0.19684,-0.22496 0.471,-0.22496 0.34446,0 0.53427,0.30228 l 0.0633,-0.26713 h 0.25307 v 1.58874 q 0,0.31634 -0.22495,0.5413 -0.21793,0.21792 -0.53427,0.21792 -0.0773,0 -0.13357,0.0562 -0.0562,0.0562 -0.0562,0.13357 0,0.0773 0.0562,0.13356 0.0562,0.0562 0.13357,0.0562 0.31634,0 0.53427,0.22496 0.22495,0.21792 0.22495,0.53426 v 0.32337 q 0,0.31635 -0.22495,0.53427 -0.21793,0.22495 -0.53427,0.22495 -0.31634,0 -0.5413,-0.22495 -0.21792,-0.21792 -0.21792,-0.53427 z m 1.15289,-2.22142 v -0.86467 q 0,-0.16168 -0.11951,-0.27416 -0.11247,-0.11951 -0.27416,-0.11951 -0.16169,0 -0.28119,0.11951 -0.11248,0.11248 -0.11248,0.27416 v 0.86467 q 0,0.16169 0.11248,0.28119 0.1195,0.11248 0.28119,0.11248 0.16169,0 0.27416,-0.11248 0.11951,-0.1195 0.11951,-0.28119 z m -0.78734,1.89805 v 0.32337 q 0,0.16169 0.11248,0.27417 0.1195,0.1195 0.28119,0.1195 0.16169,0 0.27416,-0.1195 0.11951,-0.11248 0.11951,-0.27417 v -0.32337 q 0,-0.16168 -0.11951,-0.27416 -0.11247,-0.11951 -0.27416,-0.11951 -0.16169,0 -0.28119,0.11951 -0.11248,0.11248 -0.11248,0.27416 z m 2.8049,-1.18804 0.36555,-0.0422 v 0.44991 q 0,0.31634 -0.22496,0.5413 -0.21792,0.21792 -0.53426,0.21792 -0.31635,0 -0.5413,-0.21792 -0.21792,-0.22496 -0.21792,-0.5413 v -1.98241 q 0,-0.31634 0.21792,-0.53426 0.22495,-0.22496 0.5413,-0.22496 0.31634,0 0.53426,0.22496 0.22496,0.21792 0.22496,0.53426 v 1.05448 h -1.15289 v 0.92793 q 0,0.16169 0.11247,0.28119 0.11951,0.11248 0.2812,0.11248 0.16168,0 0.27416,-0.11248 0.11951,-0.1195 0.11951,-0.28119 z m -0.78734,-1.57468 v 0.68892 h 0.78734 v -0.68892 q 0,-0.16168 -0.11951,-0.27416 -0.11248,-0.11951 -0.27416,-0.11951 -0.16169,0 -0.2812,0.11951 -0.11247,0.11248 -0.11247,0.27416 z m 2.0527,2.70648 h -0.36555 v -3.43055 h 0.25307 l 0.0633,0.26713 q 0.1898,-0.30228 0.53426,-0.30228 0.27417,0 0.471,0.22496 0.19684,0.21792 0.19684,0.53426 v 2.70648 h -0.36555 v -2.70648 q 0,-0.16168 -0.11951,-0.27416 -0.11248,-0.11951 -0.27416,-0.11951 -0.16169,0 -0.2812,0.11951 -0.11247,0.11248 -0.11247,0.27416 z m 2.11598,-3.43055 v 3.43055 h -0.36555 v -3.43055 z m -0.36555,-0.39367 v -0.49209 h 0.36555 v 0.49209 z m 2.08083,2.69242 0.36555,-0.0422 v 0.44991 q 0,0.31634 -0.22496,0.5413 -0.21792,0.21792 -0.53426,0.21792 -0.31634,0 -0.5413,-0.21792 -0.21792,-0.22496 -0.21792,-0.5413 v -1.98241 q 0,-0.31634 0.21792,-0.53426 0.22496,-0.22496 0.5413,-0.22496 0.31634,0 0.53426,0.22496 0.22496,0.21792 0.22496,0.53426 v 1.05448 h -1.15289 v 0.92793 q 0,0.16169 0.11248,0.28119 0.1195,0.11248 0.28119,0.11248 0.16168,0 0.27416,-0.11248 0.11951,-0.1195 0.11951,-0.28119 z m -0.78734,-1.57468 v 0.68892 h 0.78734 v -0.68892 q 0,-0.16168 -0.11951,-0.27416 -0.11248,-0.11951 -0.27416,-0.11951 -0.16169,0 -0.28119,0.11951 -0.11248,0.11248 -0.11248,0.27416 z m 2.73459,-0.75922 v 0.36555 h -0.2601 q -0.18278,0 -0.30228,0.12654 -0.11951,0.11951 -0.11951,0.30228 v 2.67133 h -0.36555 v -3.43055 h 0.25307 l 0.0633,0.26713 q 0.1898,-0.30228 0.7311,-0.30228 z m 0.73813,0.0351 v 3.43055 h -0.36555 v -3.43055 z m 0.16169,-0.6608 -0.68893,0.30931 v -0.36555 l 0.68893,-0.30931 z m 0.69595,2.98064 v 0.38664 q 0,0.16169 0.11248,0.28119 0.11951,0.11248 0.28119,0.11248 0.16169,0 0.27416,-0.11248 0.11951,-0.1195 0.11951,-0.28119 v -0.99823 q -0.0281,0.0281 -0.0844,0.0703 l -0.0351,0.0211 -0.54129,0.30931 -0.0633,0.0562 q -0.0633,0.0633 -0.0633,0.15465 z m 1.15289,-1.63795 v 2.25658 q 0,0.12653 0.12654,0.12653 v 0.36555 q -0.22496,0 -0.37258,-0.16168 -0.20387,0.19683 -0.51318,0.19683 -0.31634,0 -0.54129,-0.21792 -0.21793,-0.22496 -0.21793,-0.5413 v -0.38664 q 0,-0.21089 0.15466,-0.39367 0.0984,-0.0984 0.15465,-0.13356 l 0.5413,-0.30932 q 0.0984,-0.0703 0.14763,-0.1195 0.15465,-0.15466 0.15465,-0.33744 v -0.34446 q 0,-0.14762 -0.10545,-0.24604 -0.0984,-0.10545 -0.24604,-0.10545 -0.14763,0 -0.25307,0.10545 -0.0984,0.0984 -0.0984,0.24604 v 0.40773 l -0.36555,0.0422 v -0.44991 q 0,-0.29525 0.21089,-0.50614 0.2109,-0.2109 0.50615,-0.2109 0.29525,0 0.50615,0.2109 0.21089,0.21089 0.21089,0.50614 z m 3.89453,-1.26536 -0.75922,4.01402 h -0.41476 l -0.75219,-3.97887 h -0.0141 v 3.97887 h -0.36555 v -4.74513 h 0.54832 l 0.78031,4.18275 h 0.0141 l 0.78734,-4.18275 h 0.55536 v 4.74513 h -0.36555 v -4.01402 z m 2.14409,2.88222 0.36555,-0.0422 v 0.44991 q 0,0.31634 -0.22495,0.5413 -0.21792,0.21792 -0.53427,0.21792 -0.31634,0 -0.54129,-0.21792 -0.21793,-0.22496 -0.21793,-0.5413 v -1.98241 q 0,-0.31634 0.21793,-0.53426 0.22495,-0.22496 0.54129,-0.22496 0.31635,0 0.53427,0.22496 0.22495,0.21792 0.22495,0.53426 v 1.05448 h -1.15289 v 0.92793 q 0,0.16169 0.11248,0.28119 0.11951,0.11248 0.28119,0.11248 0.16169,0 0.27417,-0.11248 0.1195,-0.1195 0.1195,-0.28119 z m -0.78734,-1.57468 v 0.68892 h 0.78734 v -0.68892 q 0,-0.16168 -0.1195,-0.27416 -0.11248,-0.11951 -0.27417,-0.11951 -0.16168,0 -0.28119,0.11951 -0.11248,0.11248 -0.11248,0.27416 z m 2.79787,1.57468 h 0.36555 v 0.40773 q 0,0.31634 -0.22496,0.5413 -0.21792,0.21792 -0.53426,0.21792 -0.31634,0 -0.5413,-0.21792 -0.21792,-0.22496 -0.21792,-0.5413 v -1.98241 q 0,-0.31634 0.21792,-0.53426 0.22496,-0.22496 0.5413,-0.22496 0.31634,0 0.53426,0.22496 0.22496,0.21792 0.22496,0.53426 v 0.4007 l -0.36555,0.0422 v -0.44288 q 0,-0.16168 -0.11951,-0.27416 -0.11248,-0.11951 -0.27416,-0.11951 -0.16169,0 -0.28119,0.11951 -0.11248,0.11248 -0.11248,0.27416 v 1.98241 q 0,0.16169 0.11248,0.28119 0.1195,0.11248 0.28119,0.11248 0.16168,0 0.27416,-0.11248 0.11951,-0.1195 0.11951,-0.28119 z m 1.13181,0.0211 v 0.38664 q 0,0.16169 0.11248,0.28119 0.1195,0.11248 0.28119,0.11248 0.16168,0 0.27416,-0.11248 0.11951,-0.1195 0.11951,-0.28119 v -0.99823 q -0.0281,0.0281 -0.0844,0.0703 l -0.0352,0.0211 -0.54129,0.30931 -0.0633,0.0562 q -0.0633,0.0633 -0.0633,0.15465 z m 1.15289,-1.63795 v 2.25658 q 0,0.12653 0.12654,0.12653 v 0.36555 q -0.22496,0 -0.37258,-0.16168 -0.20387,0.19683 -0.51318,0.19683 -0.31634,0 -0.5413,-0.21792 -0.21792,-0.22496 -0.21792,-0.5413 v -0.38664 q 0,-0.21089 0.15465,-0.39367 0.0984,-0.0984 0.15466,-0.13356 l 0.5413,-0.30932 q 0.0984,-0.0703 0.14762,-0.1195 0.15466,-0.15466 0.15466,-0.33744 v -0.34446 q 0,-0.14762 -0.10545,-0.24604 -0.0984,-0.10545 -0.24604,-0.10545 -0.14763,0 -0.25308,0.10545 -0.0984,0.0984 -0.0984,0.24604 v 0.40773 l -0.36555,0.0422 v -0.44991 q 0,-0.29525 0.21089,-0.50614 0.2109,-0.2109 0.50615,-0.2109 0.29525,0 0.50614,0.2109 0.2109,0.21089 0.2109,0.50614 z m -0.37258,-1.34269 -0.68892,0.30931 v -0.36555 l 0.68892,-0.30931 z m 1.34973,4.09135 h -0.36555 v -3.43055 h 0.25307 l 0.0633,0.26713 q 0.18981,-0.30228 0.53427,-0.30228 0.27416,0 0.47099,0.22496 0.19684,0.21792 0.19684,0.53426 v 2.70648 h -0.36555 v -2.70648 q 0,-0.16168 -0.11951,-0.27416 -0.11248,-0.11951 -0.27416,-0.11951 -0.16169,0 -0.28119,0.11951 -0.11248,0.11248 -0.11248,0.27416 z m 2.11597,-3.43055 v 3.43055 h -0.36555 v -3.43055 z m -0.36555,-0.39367 v -0.49209 h 0.36555 v 0.49209 z m 2.08084,2.69242 h 0.36555 v 0.40773 q 0,0.31634 -0.22496,0.5413 -0.21792,0.21792 -0.53426,0.21792 -0.31634,0 -0.5413,-0.21792 -0.21792,-0.22496 -0.21792,-0.5413 v -1.98241 q 0,-0.31634 0.21792,-0.53426 0.22496,-0.22496 0.5413,-0.22496 0.31634,0 0.53426,0.22496 0.22496,0.21792 0.22496,0.53426 v 0.4007 l -0.36555,0.0422 v -0.44288 q 0,-0.16168 -0.11951,-0.27416 -0.11248,-0.11951 -0.27416,-0.11951 -0.16169,0 -0.2812,0.11951 -0.11247,0.11248 -0.11247,0.27416 v 1.98241 q 0,0.16169 0.11247,0.28119 0.11951,0.11248 0.2812,0.11248 0.16168,0 0.27416,-0.11248 0.11951,-0.1195 0.11951,-0.28119 z m 1.1318,0.0211 v 0.38664 q 0,0.16169 0.11248,0.28119 0.1195,0.11248 0.28119,0.11248 0.16169,0 0.27416,-0.11248 0.11951,-0.1195 0.11951,-0.28119 v -0.99823 q -0.0281,0.0281 -0.0844,0.0703 l -0.0352,0.0211 -0.54129,0.30931 -0.0633,0.0562 q -0.0633,0.0633 -0.0633,0.15465 z m 1.15289,-1.63795 v 2.25658 q 0,0.12653 0.12654,0.12653 v 0.36555 q -0.22496,0 -0.37258,-0.16168 -0.20387,0.19683 -0.51318,0.19683 -0.31634,0 -0.5413,-0.21792 -0.21792,-0.22496 -0.21792,-0.5413 v -0.38664 q 0,-0.21089 0.15466,-0.39367 0.0984,-0.0984 0.15465,-0.13356 l 0.5413,-0.30932 q 0.0984,-0.0703 0.14762,-0.1195 0.15466,-0.15466 0.15466,-0.33744 v -0.34446 q 0,-0.14762 -0.10545,-0.24604 -0.0984,-0.10545 -0.24604,-0.10545 -0.14763,0 -0.25307,0.10545 -0.0984,0.0984 -0.0984,0.24604 v 0.40773 l -0.36555,0.0422 v -0.44991 q 0,-0.29525 0.21089,-0.50614 0.2109,-0.2109 0.50615,-0.2109 0.29525,0 0.50615,0.2109 0.21089,0.21089 0.21089,0.50614 z"
       id="text149"
       style="fill:#666666;stroke-width:0.292909;fill-opacity:1;stroke:none;stroke-opacity:1"
       transform="scale(1.1070583,0.9032948)"
       aria-label="Servicios y Proyectos de Ingeniería Mecánica" /></g><g
     id="layer3"
     style="display:none"
     transform="translate(-370.48375,-146.83068)"><path
       style="fill:#ca1825;fill-opacity:1;stroke:#888888;stroke-width:0.08;stroke-dasharray:0.319997, 0.319997;stroke-dashoffset:0;stroke-opacity:1"
       d="m 368.28038,148.16519 h 91.24498"
       id="path65910"
       class="UnoptimicedTransforms" /><path
       style="fill:#ca1825;fill-opacity:1;stroke:#888888;stroke-width:0.08;stroke-dasharray:0.319997, 0.319997;stroke-dashoffset:0;stroke-opacity:1"
       d="m 368.28037,146.84 h 91.24498"
       id="path65996" /><path
       style="fill:#ca1825;fill-opacity:1;stroke:#888888;stroke-width:0.08;stroke-dasharray:0.319997, 0.319997;stroke-dashoffset:0;stroke-opacity:1"
       d="m 368.28038,159.9 h 91.24498"
       id="path65998" /><path
       style="fill:#ca1825;fill-opacity:1;stroke:#888888;stroke-width:0.08;stroke-dasharray:0.319997, 0.319997;stroke-dashoffset:0;stroke-opacity:1"
       d="m 368.28038,166.64 h 91.24498"
       id="path66000" /><path
       style="fill:#ca1825;fill-opacity:1;stroke:#888888;stroke-width:0.08;stroke-dasharray:0.319997, 0.319997;stroke-dashoffset:0;stroke-opacity:1"
       d="m 368.28038,162.25291 h 91.24498"
       id="path66002" /><path
       style="fill:#ca1825;fill-opacity:1;stroke:#888888;stroke-width:0.08;stroke-dasharray:0.319997, 0.319997;stroke-dashoffset:0;stroke-opacity:1"
       d="m 368.28038,148.16519 h 91.24498"
       id="path70268"
       class="UnoptimicedTransforms"
       transform="translate(0,0.26481)" /><path
       style="fill:#ca1825;fill-opacity:1;stroke:#888888;stroke-width:0.08;stroke-dasharray:0.319997, 0.319997;stroke-dashoffset:0;stroke-opacity:1"
       d="m 368.28038,159.65 h 91.24498"
       id="path70270" /><path
       style="fill:#ca1825;fill-opacity:1;stroke:#888888;stroke-width:0.08;stroke-dasharray:0.319997, 0.319997;stroke-dashoffset:0;stroke-opacity:1"
       d="m 368.28038,163.511 h 91.24498"
       id="path70272" /><path
       style="fill:#ca1825;fill-opacity:1;stroke:#888888;stroke-width:0.08;stroke-dasharray:0.319997, 0.319997;stroke-dashoffset:0;stroke-opacity:1"
       d="m 368.28038,167.54 h 91.24498"
       id="path70274" /></g><g
     id="layer7"
     style="display:none"
     transform="translate(-370.48375,-146.83068)"><rect
       style="fill:none;fill-opacity:1;stroke:#666666;stroke-width:0.0778997;stroke-dasharray:none;stroke-dashoffset:0;stroke-opacity:1"
       id="rect124921"
       width="84.648827"
       height="20.716547"
       x="370.43558"
       y="146.83443" /><rect
       style="fill:none;fill-opacity:1;stroke:#666666;stroke-width:0.0900463;stroke-dasharray:none;stroke-dashoffset:0;stroke-opacity:1"
       id="rect126281"
       width="89.994492"
       height="26.036427"
       x="367.72964"
       y="144.17448" /><path
       style="fill:none;fill-opacity:1;stroke:#666666;stroke-width:0.0799999;stroke-dasharray:none;stroke-dashoffset:0;stroke-opacity:1"
       d="m 455.08148,170.2273 -0.0116,-2.71279 2.6543,-0.0117"
       id="path126343" /></g></svg>
